<?xml version="1.0" encoding="UTF-8" standalone="no"?>

<svg
   xmlns:dc="http://purl.org/dc/elements/1.1/"
   xmlns:cc="http://creativecommons.org/ns#"
   xmlns:rdf="http://www.w3.org/1999/02/22-rdf-syntax-ns#"
   xmlns:svg="http://www.w3.org/2000/svg"
   xmlns="http://www.w3.org/2000/svg"
   version="1.1"
   width="600"
   height="600"
   id="za-map">
  <metadata
     id="metadata109">
    <rdf:RDF>
      <cc:Work
         rdf:about="">
        <dc:format>image/svg+xml</dc:format>
        <dc:type
           rdf:resource="http://purl.org/dc/dcmitype/StillImage" />
        <dc:title></dc:title>
      </cc:Work>
    </rdf:RDF>
  </metadata>
  <defs
     id="defs">
    <clipPath
       id="mapclip">
      <rect
         width="600"
         height="600"
         x="0"
         y="0"
         id="cliprect" />
    </clipPath>
  </defs>
	<g id="provinces">
		
		<path fill="#fefefe" stroke="#666" stroke-width="0.5" d="M483.8800210278973,64.0385156244709L485.6573011469865,63.62573581942783L486.5256875926359,63.182469620120145L487.00529985364847,63.20518201752384L488.84784071693065,63.82448515263502L489.34661195008835,63.44681869499897L490.2443726175532,63.454591585015066L491.07458394746425,64.07349790356395L491.5563777365113,64.04962743347403L492.1735819548813,63.32371254000674L492.7587514228197,63.25777835519659L494.035084817691,63.5447909170976L494.41210778521685,63.338935490669L496.127045653486,63.19942289020747L498.1178504145453,62.86188295294809L499.6357049193154,63.375471453725766L500.0274741180858,63.13545056777565L501.12915049550463,63.36866711437955L501.53356817074814,63.87363694980738L502.2799105530016,63.87641360803738L502.5225208405283,64.32595392976665L503.3861372881275,64.01600928580126L504.8384038657571,64.80000577984697L506.3061390839588,65.27822532574552L507.878043027985,64.7346475920993L508.52584098245757,64.68615908806382L509.34737234671576,65.17865018067789L509.6402680870981,65.85584989149558L510.1511577534141,66.23751594617761L511.1739701820233,66.03225218767923L511.74970210095387,66.1458523928948L512.1258572323923,67.14679756181826L513.0197542376081,68.3885052267949L513.9768991307807,72.17492836154202L514.0251188739644,72.44939460441708L517.4126177730454,86.06672031480196L519.2833758851282,93.56427249786822L519.7402132676548,95.719638239067L519.587748020256,96.64585388840558L519.5824489817547,96.74021944581997L519.3376896771894,98.19380386672645L518.8985584642392,103.11610360039643L519.0815983335842,105.65939423297684L522.2221137238602,109.67272120293777L522.8823813937195,111.03649444144787L522.9610258897106,114.2498949608239L524.8792021265433,120.19899276458608L528.3110043442631,122.75636474988545L528.3500539546617,123.7893033593129L526.4707275647586,123.72663456152796L526.0200090346092,124.18607809798817L525.111199423406,123.51728063547557L524.6341409024185,123.57257935510165L523.536466921181,124.445079132464L523.5168143449407,125.65228970903172L522.9727233129826,126.01193793900717L521.8122227208155,126.04021263134973L521.3767474919755,124.49902774559325L520.9092915115699,124.38948171806769L519.8978531083528,124.64005553653809L519.2112561852734,125.76212647022419L518.7942611985947,125.64382921209267L518.2005829987509,124.89966250760017L517.5721052367965,124.99469055898666L517.3755480402865,125.61150040800425L516.6923553760064,125.57329955067394L516.3545010285327,125.15170417910787L515.4823168365351,124.70045434193474L514.1972714749693,124.27399846369863L513.932013459787,125.24250485155193L512.8044805020547,125.80831954830902L512.4118915536146,125.24194223998083L511.69707099703425,125.78329543602402L510.1548231158946,126.19696999981684L509.43671236298223,125.88571882462782L508.8291276869286,126.52813457902542L508.13469329063423,126.7040343336225L507.97104942697143,125.8069062929394L507.58220692508803,125.15834033478797L506.87504389596177,124.63498631466425L506.37454508097426,124.20566306218302L505.67921798432803,124.3937967802677L505.4900989810493,125.14178313219588L504.73844147024477,125.45738300356098L503.27014302538225,125.42758998713018L502.12764789496845,126.07855078557657L502.80396205082843,126.24411689949494L503.90618742775064,126.12421175748096L503.70319563443854,127.14400417866418L503.0748859876904,127.01631285865852L503.39351437944686,128.06348400476182L501.4801422945415,129.43238887765557L501.5603745302195,131.00015819327265L501.63791013770026,132.378333308057L501.448374573137,134.1099314347189L502.90595044331985,134.2807987046106L504.4775431135955,134.17389874634074L506.0277815704989,133.77030647399408L507.2643877454757,135.98079160436268L504.6440296862859,136.1968285127661L504.53159017585534,138.32364240965785L505.8999644514805,138.04075133583433L507.38570586261426,140.66782778312054L506.38815666407686,142.6171971072094L504.92379895894385,142.63407456456287L503.4551280221229,142.73423174711226L501.41770051180896,142.8052552176597L501.3682340973845,142.80267719320133L500.10009747747415,142.86715428773462L497.89547457617084,143.06171927071327L497.85595482998554,140.92678338368333L496.5378378542692,140.98989031721993L495.2142534475047,141.40863373871744L492.993992246866,139.92274417449408L491.8125845106721,138.47779263547696L490.8057730185271,139.76676868411326L490.8190173666404,141.5090860677319L490.6150797338305,143.63179803269261L489.7620196726682,142.83147653939227L488.969364050576,144.0841571953106L489.88395354217084,145.64574092043898L490.12709547139616,146.99676034979808L488.7779526760237,147.99706971748057L487.48291670672955,147.89838632835225L487.33100928791,148.7323867030998L488.2411557888173,149.3573716153735L487.9191003108079,150.63343440893658L487.1708511763803,152.03106661439332L486.7175019682111,151.6890908160133L486.30997041398,152.7004643395313L484.8657707151042,153.42499030781437L482.70024016788966,153.99725879910625L482.6520184652536,155.0142362274915L482.39090024522056,155.04927190971893L481.311301304237,153.836838647807L480.9714200333593,152.12614367472295L480.5663683389181,151.79902975766143L479.4910926868952,151.5236583008403L479.47017379945544,151.97300576204248L478.343585795036,151.47040848332045L478.28779347723355,152.67658124884926L476.0344050253559,151.94494341290695L473.2373830715167,151.4627492033031L472.44291027736347,155.12439685122476L472.3989634713769,156.10606070939488L473.1609072670701,157.8350142299116L471.93046443199773,157.47171789625654L471.604352575671,157.58753352255067L471.5131314671829,159.63383716028386L471.313746345294,160.78648252652724L470.5917060921055,160.6595715430685L469.6483556642521,160.79563338593212L469.62624278745545,160.17834298848993L467.8230403665592,158.53484124500847L467.7920908129414,159.244580698455L466.16719337932545,159.44665037878255L466.9254236364192,161.30465683747116L466.9204686183616,164.82469133910288L466.55868293564964,166.06544909486738L466.6357995394658,167.97726575962963L466.1627832014311,168.09901296902802L464.5158657782109,167.75544429302977L462.95617008707984,167.9615625173911L462.9164926138567,168.89633143580448L461.37580259120165,169.5424770953104L460.9448455524994,168.67090531957692L460.1198512400488,168.68381630356728L459.9110267119455,168.67511080697392L459.12886164792315,170.029482636689L457.816180251801,169.34702772346162L456.1745127439399,168.8768601335757L454.21884488660476,169.78158970176133L453.39087842461333,169.57060720294965L451.3627779868967,169.8456639048624L451.2398117260066,170.46902431899963L449.18734207988183,169.80788028068014L447.5194931295894,170.0041550441746L446.33829840420856,169.69817288197328L445.9366405661141,169.58805852780773L445.7701117967297,168.46763365732517L445.08417458608596,168.71423994473184L443.3342214953634,168.47071855318748L442.6220662914796,169.42788575259434L441.4654907160483,169.77618644452548L441.16637685562034,168.21261298869646L439.43935950077463,168.6828004971141L440.2029975292415,167.64400478337933L440.55608614690544,166.40071351276538L440.36659869408817,165.86050349554444L439.9451926235068,165.9399319700891L439.6365873942917,165.96425250443866L438.07155523640546,166.35799452228522L437.9500165671376,165.28709721861574L437.1359875100097,164.98540260495326L436.3570451014431,164.73253102962522L436.22333275955555,164.3367455381208L436.1934337047409,163.7906026378479L436.194691851887,163.7550985867053L436.65778119313,162.1600258613631L436.63499792963916,160.02643789573074L436.6366790834728,159.97910388668151L437.6628058719788,160.24080850882578L437.9693022125165,160.28733494321276L438.12764093111264,160.34041189840593L438.04486745837704,159.89904220107195L439.36675178531937,159.14099975525681L439.0670181508958,158.90503665817565L438.0312659695327,158.55969351631023L438.0427247117598,158.24020679173074L438.0439978993563,158.20470843362662L437.60469956159136,157.38332550365115L436.0156353883265,156.9714298625559L435.8032520506324,157.0468644918665L434.4938276346181,157.45109875383952L433.7702958917631,155.5540570054694L433.4329303157633,154.96187082579755L432.6485407983622,155.15986322595782L432.468272066286,154.30072284838897L432.13042589315796,153.35328653163023L433.722956747632,152.6500803345116L433.18284872293657,151.4823636928468L430.813041399665,152.51468894079218L430.4625945968782,151.9223906954494L427.9762993859271,151.6613802349693L426.5215632512143,153.08214801322447L424.371500631713,153.90055356301798L424.1576776017671,154.0239564387373L423.0360528510665,154.7460809187104L423.7132417834945,156.33141534739065L423.9113129311604,156.69316800172356L423.13350086969933,156.71559994053936L423.0112587699981,157.06707791521453L421.7104426471087,157.25081234274424L418.7892883847372,157.59787149882527L419.419832176358,159.13371173816077L417.4480765251116,159.12041007853813L417.3850603646807,159.1658728127931L415.7628309220201,159.82750920187235L416.17214941569097,160.14785799473748L416.6403872026867,161.77320571443383L417.9886229336496,161.58924097926405L418.7256652610749,161.25650912800066L420.57388083458835,160.46101099119943L420.73980243948097,159.88571190805496L421.8423065174204,159.70722499428786L423.8817348690574,159.14445830212483L423.89316513739936,158.78941895052873L424.26836009204055,158.6238134417714L424.33399718886255,159.64477578994058L423.28948473477334,159.93103510136936L424.3640390279184,162.14558043045653L425.14192940133813,162.08788400377978L425.0038596421763,162.92460812949213L424.48716558140165,162.90784106772688L423.5634622142732,164.44201826021416L422.4541168714952,163.3283123697564L419.85158228823593,163.47139298573072L419.48382871975025,163.8153820286165L419.4859032403448,165.33202102545116L417.46813973063405,165.31718805944104L417.2945752228595,165.7621217192446L415.68559064002005,165.66593565603833L415.56904405607725,164.63164508529644L413.05431762203085,165.18476595593972L413.07138629199335,164.60472641397956L412.7331810925462,163.96686714028272L412.5331113098755,163.65297047826627L411.50632296845504,161.70383031413957L410.4250082198075,161.18691897576437L408.9612797213533,161.54794794271305L408.02996369525454,161.37951613333595L407.8791495076081,159.29038648226987L406.7932274152447,159.3430133693416L406.5322271121232,157.64189677294843L407.6186215537251,157.5891999414118L408.72639859376596,157.21759377052155L409.3651343620835,158.1714643077718L410.07797990362553,158.6774545450351L410.7098297772533,158.56527697785313L410.720044186921,158.2102022218412L412.0770768871631,156.0580915453806L409.91695478618203,155.24961650057074L408.93984596367454,154.90205801269204L407.9192174281938,154.3403409707562L407.78375716151413,153.44825231690803L405.19034617873933,153.5068691522989L404.57102844660585,153.13470782706392L403.94201637692464,153.11769187894805L403.4999728031677,152.57284723139782L402.6011136256933,152.95148481055438L402.3125555860814,154.05709516268L401.481241976673,153.76271011191918L400.40068846578316,153.55675425182164L398.7494791902938,152.98114856655883L398.3905832008429,153.01934155948976L397.3490722902226,152.72050788379028L396.41043525645625,152.74428616835607L395.78045756857756,153.2615053638466L394.15613244263494,153.57676226806322L394.0638309935262,153.3139659996385L392.31097856250574,152.82156279657428L391.302343611521,153.2001824502191L391.16670263768435,154.7602214275054L390.3672413581589,155.71252337958592L390.18511004055165,156.6438862374466L389.447641390267,157.07674101433096L389.249434741501,156.58655397309636L388.12415865148733,156.19349138459145L387.74932044179434,156.40995499075868L387.59827519330435,156.00384413306196L385.9849989236282,156.4648999133646L385.785529793082,156.01040986641542L384.4826392359418,156.38427247429405L383.02263181710646,156.62490865997665L382.330018339669,154.9994107388641L381.0270253316299,154.794145422086L379.4516827834781,155.82715870313075L379.73353640802327,154.7197866511147L378.8475803579342,154.61865570973438L379.0846187503365,153.28536147913292L379.62461109994604,152.23072703585333L378.29171244605254,151.62319922049346L377.3326197934325,152.66956619585164L376.9380286963383,151.418330848007L375.72152415612396,149.8786264430569L373.8538435432149,149.39248038189908L373.77883955794647,148.14783797883518L373.49638087699765,143.51337812585126L371.8883506500394,143.51863789357174L371.9506616040861,145.4849919213281L370.81372032377726,145.4639754187494L370.81046493699944,145.6414980920246L369.54125410940526,146.10382570668375L365.61176053609074,147.5030853002492L364.7077988386082,149.09799113595508L364.34115508918023,148.86690517521092L363.26624204963866,148.138761274293L363.099891312984,148.49121953105788L361.86768815969907,147.5359660559696L360.68633829112053,146.45171415235376L358.7535574897254,146.77697505099258L357.71919094639793,146.53643714551308L355.48485928383064,146.37345531827313L355.53428000079964,146.37416589436754L355.592732153041,145.7475761574984L354.6599504694061,145.28441167828473L354.575461765264,144.2651625708799L354.2777194520871,143.4560166665368L354.55374566717495,142.299860580789L354.4047844650237,141.4573463586019L354.6214434800443,141.01061073738137L353.9960723067751,140.5993873280968L354.42177292815,140.25026647210277L354.5289468694757,139.67180511547613L355.4237932634589,139.42413287727337L356.0667032921726,138.6285599601133L357.3679193112895,135.21544135026193L358.2114458168117,134.34045122923584L358.9493351602297,133.9137477757177L359.1696288780953,133.28990482336084L359.7468258010614,132.8490787531222L359.8150278657698,132.44778639589035L360.64858708545756,132.28324026426526L361.60360531666305,131.50546412229608L362.39011968563875,131.1985471080079L362.3511602179692,130.53526665375887L363.45971746104675,129.52379937354382L364.04587527984853,129.35594731589512L364.5262978220855,128.8314488492965L364.88167381855396,129.1095249376199L367.9952785492417,127.82580321734935L368.7956378934051,126.8105289773766L368.54572757533134,126.19085884304067L369.25202226979343,124.9019506962023L368.82960945184976,124.894438488736L368.7295178282707,124.23013368604668L369.1543199174049,124.10753764567434L369.06752817480435,123.39615622704622L368.6520588327831,122.98655733015468L368.6742163147991,121.7329657427901L369.3618871860946,121.5322454717766L369.5350092870568,120.1986104420831L370.2360270733284,119.27672089968695L370.38116805930525,117.44593292664857L371.01736889077085,116.70050706535679L370.88972069248535,115.5035968335005L371.37359489875166,114.93290859558121L371.38573613605035,114.27082293594967L371.80426075925357,113.87641144767375L371.6015856450037,113.3759645529781L371.08060618033375,113.23632908341946L371.94522015734566,112.31793987911871L371.62441250270797,112.13463815875775L371.7579327509198,110.97818275663602L372.1276139538437,110.5474723421504L372.15496552843126,109.06986637982703L372.43998871535507,107.8335996084358L373.3459986552539,107.44852061312099L373.34688789845455,107.40124172480688L373.372675262554,106.03019058125102L373.69237250375784,105.63422757480785L374.16255416450025,105.86777767948402L374.5608244138701,107.2469041681023L375.8360472691413,106.51477119962811L375.9282860375091,104.34110843866736L376.83010109966756,104.22870824699632L376.8494103750497,103.24782766371607L378.20761227834095,103.45213587928345L378.17278494234046,102.69481856930503L377.8594679965692,102.73584598086555L377.70949879891765,102.1062996187145L378.14243022391355,101.71300291804303L378.7082911725541,102.17359067645688L378.9305256964226,101.69338668172597L379.8714411305262,102.1499213146601L380.1428441103314,101.71807673144446L379.6234644615237,101.43555686224664L379.68623611479427,100.8103046766397L381.01942360378996,100.44762870115483L381.81646009813204,100.01503911067218L381.96179268033427,100.24268468143899L382.66169415464356,99.6782022469331L383.2504171404836,99.64341763416601L383.91673860231543,97.74275556796505L384.92324657306847,97.50445019964468L384.7510759737887,98.51725017530885L385.49009970555153,98.4860628135637L385.43917769852953,97.95303479242551L385.88113016564245,97.20623607789952L386.57010257623233,97.18597051143857L386.3399053163031,97.97282523579449L386.6416573782193,98.47595825938811L387.22955420077335,98.48903436093633L387.6722668696665,97.16324944560935L390.4136114744328,97.17839981480142L390.7553890810151,96.47711965641443L391.5562677463959,95.96390000473872L391.79094493597756,95.03566779729962L391.5927694640544,94.40461503735759L392.03627892043744,93.65862464419567L392.05600211368403,92.81998699684488L392.9070530970052,92.34373580219008L392.76629339674395,91.40679854650298L393.56940993119275,91.37863750439186L393.97641823816764,91.66018965092098L394.78149881386673,91.54960094744231L395.16325400870596,90.80253937172483L396.06678779137224,90.77732947377433L396.5168415688355,91.85198550521773L397.18992352422754,92.010452176656L397.74105870793335,91.52781796209393L397.6904848206787,91.04202905899879L398.3017291391996,90.17101730728177L398.8350533869958,89.91264293366294L398.6979672345671,88.88111952915807L399.9278127709799,88.38054642645483L399.78402300708115,87.62064314576597L400.47147601536267,87.73273410526645L402.4011097427597,86.89646922682365L403.69536754695133,85.90252495284307L404.03257323266166,85.02531334019343L403.8314641844088,82.6571027124345L404.5724485264466,82.67677752604791L405.76428959351506,81.82268739048988L406.193624292837,81.75158450028937L407.16766578403093,81.0692529878165L407.61398205562176,79.92379246100941L407.290774862795,78.40298389005946L408.1406153549566,78.15461260195428L409.16354138526094,77.56869352260338L409.93156415413085,76.65700862351937L410.57936377097167,76.45076989315154L411.34424792359647,75.669222534896L411.21472948492556,74.46090178297933L411.9888397339982,73.37274984928374L412.9206287429497,72.51368750453864L414.14953415691065,72.2893478821633L414.9134915580473,71.59123989109045L415.14830689679167,70.88958938254447L416.21409236955947,70.66112730622825L417.02772015743716,70.01216377923365L417.47440615260246,69.41145570751556L421.8218433570603,69.54355721591173L422.60920352252396,70.18203127336182L423.1398368485614,70.15135860879758L424.5437261509481,69.22722878933848L426.29275272232803,69.36559318121579L426.93961673702336,69.25650053075367L428.07888763481753,68.36054130192011L428.4543393719034,68.45542432146229L428.89871796916304,67.98581603601735L430.14058946683207,67.44806808035682L430.60707569827565,67.46350550669496L433.18594858369954,66.97126511310819L433.1527878313675,66.08459213806012L434.3421903595803,65.64086655818554L434.82150404283846,65.65723294544475L435.76346811773874,66.17366392453334L436.1353214624214,66.00938120367701L436.8584790223449,65.18431201236271L437.1065590725767,64.22478555309459L437.78262467385946,63.31566211068625L437.55499895251256,62.23340486987644L437.70536661360677,60.822059899398425L438.26386571582594,60.038892618580604L438.6962348354009,59.97143313709037L439.3072427602242,59.14306702351243L439.28622926782595,58.30428073653965L439.8219918194168,58.18157657802621L440.05229513040206,57.75302393390075L441.7538638543247,57.94356748114876L442.24345388931545,57.70150157232496L443.8834990534969,57.843534756247095L445.2133483305134,56.78271275253417L446.28180885739755,56.64509067263009L447.32397628168803,57.21495955103134L448.07948451598793,56.98353897766867L449.3549059879863,57.066967753880164L449.65989851402657,57.70410198331996L450.09400293682,57.27203583405523L450.6145572478898,57.56333651050943L452.52111998489124,56.70400985060127L454.3900917253048,56.50512977159323L456.02859228074385,57.018049107277335L456.2227519673854,56.27028217355763L457.73772969133415,55.752104112667126L458.7786071685682,56.32495847909942L459.2875565257634,55.63722518477451L460.0985458300871,55.31589672944577L460.72386677186444,55.82522663234553L461.5744482437103,55.777290610434534L461.99520112147246,56.01879216722389L463.9083878279151,56.00326439887189L464.9462498364478,56.931795563878126L465.67874419803366,57.281184574170936L466.74052315981754,57.32586509450607L467.4583056094898,58.017338897295275L468.7422817588289,57.894907727950425L469.93167425660835,58.79594974632258L470.1802544083371,59.19627176061201L471.7154586873579,59.40443105623291L472.051821695356,60.399078319870625L472.94856990533265,60.43827332125025L473.6626277890184,61.17810634854831L474.2446835470447,61.46354892874601L475.16088642402565,62.484245712014456L475.858322267606,62.161005609397705L476.93934236840084,62.03220850195174L478.5322229613713,62.05673628973747L479.29116626517117,62.8942029090897L479.7767045333112,63.896542194700146L480.50504269570683,64.28413324403621L480.9969641185275,64.03503923511806L482.864508858964,64.12120813379227Z">
			<title>
			</title>
		</path>
		
	</g>
</svg>