<?xml version="1.0" encoding="UTF-8" standalone="no"?>

<svg
   xmlns:dc="http://purl.org/dc/elements/1.1/"
   xmlns:cc="http://creativecommons.org/ns#"
   xmlns:rdf="http://www.w3.org/1999/02/22-rdf-syntax-ns#"
   xmlns:svg="http://www.w3.org/2000/svg"
   xmlns="http://www.w3.org/2000/svg"
   version="1.1"
   width="600"
   height="600"
   id="za-map">
  <metadata
     id="metadata109">
    <rdf:RDF>
      <cc:Work
         rdf:about="">
        <dc:format>image/svg+xml</dc:format>
        <dc:type
           rdf:resource="http://purl.org/dc/dcmitype/StillImage" />
        <dc:title></dc:title>
      </cc:Work>
    </rdf:RDF>
  </metadata>
  <defs
     id="defs">
    <clipPath
       id="mapclip">
      <rect
         width="600"
         height="600"
         x="0"
         y="0"
         id="cliprect" />
    </clipPath>
  </defs>
	<g id="provinces">
		
		<path fill="#fefefe" stroke="#666" stroke-width="0.5" d="M173.8847871773778,215.40759362115722L173.69784547745286,215.99498237284837L174.0870057036553,216.7411156679113L173.59849112482777,217.38599558605216L174.38179901904238,217.9411278425551L174.31269898538193,218.78554206712204L175.49135460677726,219.1973330106231L175.3677239551985,219.86561221211673L175.773249064368,221.50097867240356L176.12816334374685,221.22840339777622L176.35628398162112,220.41439532563408L176.95218763214828,220.0866011085047L178.03233499725434,220.0991019880398L178.81438092238398,219.13700557207446L179.64133688731795,219.19366294411333L179.71423864955466,218.43227982332155L180.53609739145645,218.32325384844495L181.73705588753612,217.52653012491825L182.54959931511445,217.50125974795571L183.64678504708473,218.0485489503152L184.14773787411264,217.7604216344486L185.71861253333546,219.1358984887139L187.86568501959107,219.1191696846954L188.84452008002413,219.39867109967867L189.3695462462287,219.92884474387137L190.8551660783587,219.70784486111825L191.3014637416573,219.19691174148977L192.26112724707326,218.81371467510453L193.0760701798239,218.88549916786832L193.94263496209274,218.6358151931402L194.30414831762985,218.98148574739167L194.8726064947901,218.91823084131687L195.61415925441827,218.09131392401034L197.04982507121113,218.22991587091929L198.26747840470176,217.9361343895076L199.29300911930937,218.16962880024545L199.60587962266146,218.5289433707906L200.38183470844024,218.50846056751976L201.6248635352597,219.18749255518327L202.1177676391269,218.54622241206218L202.83887262271503,218.75297031116787L203.13408387760512,218.43709216224357L203.80093613856724,218.42010116222284L204.74476140980508,219.2856268586138L205.96789581138242,219.20763202957767L206.26215106656173,218.84459209498547L206.98295394808667,219.05212976987195L208.2860402454682,217.76341001613292L209.54039964315945,216.93878976725074L209.87780017906374,215.81614064927265L209.87667335719152,215.76873751647935L209.6069059517426,215.14671503329038L209.62777643714907,213.9842014476116L209.10517015659917,213.46311422767144L209.1420970207996,212.97608735289603L209.79610739562764,212.3794893409296L210.70845511389354,211.90735158016923L212.3441662235798,212.22492125629583L213.83390311894652,212.01295358707225L214.80870773585985,212.1332247465017L215.70456368274506,211.4374023425338L216.61810403828449,210.97854116919885L217.74585739119982,210.85908811370686L218.3911217050158,209.77811902279004L218.51966167724117,208.96915995011574L219.28725072328677,208.46668674763544L219.62374420462564,207.70079519498603L220.19620990253418,207.7361496522145L220.2289246672883,206.97671646311971L221.18978577204672,206.37576156982425L221.01393756868998,205.52584393851674L221.72172297607926,205.02515120716964L221.69683822124864,203.81647482295335L222.2616270132887,203.4492503059157L221.92957898444683,202.69736133261347L222.12757968161765,202.25469033409712L223.2960305775781,201.60268128192112L223.58169847568342,200.6604632102544L224.75791589706859,200.3643920195934L225.68563084002375,200.44099860698213L226.03728451278826,199.72292681753618L227.16165748385257,199.8790544567301L227.36448973956078,199.64996131788365L227.18298158145183,198.44437656956046L227.85335245327366,198.4316188045236L228.46673783715045,197.98148020191172L228.29466395231094,197.26167632807562L229.15268835483408,196.1788655736589L229.57150641031333,196.39630491257938L230.2259207618594,196.1590645879789L230.57712236391004,195.34667406500867L231.917129695342,195.90327658339362L232.28934609465773,196.25222270777317L233.00888511799016,196.23950590145319L233.8662082150849,195.02743888734892L233.8351693261311,193.23831186484438L234.45153995829486,193.58322566876902L234.69504597407436,192.83238133406638L235.45944603753406,192.5467812753398L235.51968200176978,192.49835592487247L237.72848912223176,192.41425252156904L237.87917635093189,198.65789545962204L238.00929370658733,200.6589338411746L238.04133025609573,202.6260750169044L239.02180362096885,203.01325475271943L240.99909522279955,204.09631241366918L241.44916856106076,203.2833106351319L242.19572948438326,201.93246034171938L242.87615066361974,199.38564714983914L243.30992981265715,197.4116459292478L243.89335805426464,195.6251914335507L244.06543919709122,193.21677205541226L246.38811538332772,193.44414440789956L246.56439874326395,191.21365833583297L248.98707456461048,191.5360261721057L249.68173489376258,189.57144997299986L249.65346829875145,187.4269432681312L256.91850099706585,187.69358403646237L259.0384147302783,188.16794820194912L257.98254256599523,191.0708496805313L256.533956607489,190.4234512578162L254.20573128647442,189.82260728171613L253.71967705464868,192.0563739295493L254.8541330940623,191.95982521039153L256.6599447420832,192.91064755052173L255.2453476613207,195.11944931029365L253.9441483141688,197.49343330629205L255.87392299419471,199.87656645073065L255.42236275074248,205.01410106495328L261.5341771220121,206.5119819756049L262.6748592681713,207.47258852924563L265.3565369502964,209.49786408752152L264.24025096693396,210.98995212760235L262.37332479144686,213.85303715039834L265.2019281950126,215.16560026333326L266.3826010863279,215.55800792151044L267.35871356341426,216.1777790716976L270.8979988082099,217.3107232224025L272.6888746689805,218.41175318435074L273.7722367998171,219.02055761934997L274.27350266639684,217.85533662910757L275.70472618475065,217.89330910007692L277.19248792741365,219.27108504527013L277.3977820133152,219.1394496735814L277.91210494219996,220.025542515837L278.1201909870791,220.3799877518093L279.1516519682873,222.82821032104857L279.525363614848,224.74676912313657L277.73859568293864,225.55119866646064L277.5363166323747,226.13333091779504L276.9405792327873,227.65448184582942L275.63032241474934,230.79275643538705L275.23384983137083,231.1510296047323L275.17725016123933,231.73237022976485L277.129426107948,232.87012577084562L278.86414078114996,234.19981426805654L280.39084354608167,235.2231069157262L281.0549187068544,235.25528331370555L280.1999026150831,237.93933796456884L280.06086633155013,239.01906540504055L280.11517234571403,240.16892421150456L279.97012776646955,242.36329424139686L280.03911014223667,244.0111127480777L282.11361692223346,244.66470007082927L281.72082849422475,245.6033343737742L281.3694541424776,247.57342764217566L281.88054343593467,248.7685604730305L289.47710490897947,247.0084004059447L290.9564100171566,246.68439749836608L292.22156749683603,247.44045133472588L291.05936987694315,249.4944080428347L292.38367745208905,250.2503838749292L292.0730630636923,251.1877890337681L291.6188006659411,252.30340896779265L291.11434572374066,252.39943156239048L289.60688254122556,254.76302363433786L290.57026000396786,255.8395529878867L291.1209964705057,255.20973710606194L292.8417158070748,257.1626246161968L292.90290859629465,257.79098283091014L292.1975081883391,259.00190447927747L292.7974960588624,259.1311420665041L293.8185596526644,260.0661056336013L294.9232092429318,261.1316728842394L295.8334082700276,260.3360589178962L295.62842219098616,259.35207377579434L296.44356099728594,258.9006061642924L297.3430649865827,258.7219901930477L297.198789488675,258.28334849031904L297.79840485730426,257.87977612852603L297.60609086057565,257.346284206908L297.54533016596133,256.18424241718714L297.7970122157159,255.50818356222945L297.14805253628197,254.66670878425307L297.40011024304005,254.48865723423725L298.45660660303764,253.72916988350863L298.66045291692785,252.7448907375384L299.82587922581547,252.614219804818L299.92198591932515,251.90274861123214L299.982072998723,251.85531671307587L299.02040730209166,250.8712504136181L298.7077614330881,250.56304400401626L299.212563045813,250.02930740816404L299.2125332228662,249.88701512043326L299.3686568387186,248.77236573439518L299.82569280095777,248.59445238578212L299.87378389404165,247.9659975567589L299.1637440397261,246.76847586491996L299.7292627210807,245.73679154026368L299.77739325177345,245.42849488786908L301.9083555984906,245.02582005991798L301.75223452827237,244.1838701124121L302.5108670477645,244.21987191634884L302.76286173257205,245.4295029371429L302.8230526177816,245.42954762782915L302.96723011420295,245.78538201308191L302.91855742382836,246.46122025193424L303.12234280200283,247.4337013531735L304.79502972146787,247.22202656122568L307.63543047364215,246.85913767730145L309.15209653950825,246.68466001774343L310.6785144436014,247.36456674169966L309.25435945583513,249.13943681580815L306.71146641037717,252.12218590276353L304.5332517438994,254.75136863882693L304.48467975380925,255.201911095644L303.98010044352066,255.4740742243757L304.98636794827866,257.15910758102797L307.65291380441704,261.8593944923868L308.4106151743066,260.6989249562412L309.1777275642433,260.7837323792654L310.029774503737,260.47760584183584L309.2680039822126,263.0607143149974L308.0979433452051,266.67473581897934L306.937076719932,266.5419630434431L306.27706077963194,267.51316527140887L305.22410240208626,267.3811065042699L305.8203385618838,268.7693897479721L307.2908057293953,269.30558507688767L306.26882032909197,272.4224188529358L306.0646961290605,273.0031288571572L305.71629579950854,274.2121040282718L305.5132827263029,274.16436637017335L304.46031438961836,275.58592626933427L305.10454797505787,276.0373572906631L303.8945829319838,279.86602198815876L306.11186237993877,280.6753355116071L303.5904797821838,285.9843272333748L303.08950994148563,286.9680578086406L302.73176910374326,287.7622331462441L302.68415829489373,287.76219848169376L300.6837227818993,292.0062336891631L299.73272799107673,293.8796116949149L298.6759083123323,296.0615262677068L296.28216187441024,301.28009116725013L295.335825374153,303.2018875007731L291.36119720968526,311.7333197947449L289.32767660781917,316.01827374491324L289.5287207347994,316.1006804697452L289.42727067811353,317.7961659723036L290.23190814652986,318.4696448613986L291.22867041287964,320.6482953574176L292.17455647221095,321.63003546928223L293.0706573509124,321.48599640021587L293.8610655866018,321.57942528133685L294.01554891003457,322.290393593507L294.4641335608604,322.60974008157837L295.301247132763,322.5611630520768L295.8094883460444,323.627365520877L297.2014817728047,324.96546763510963L298.39162982359267,324.96475542821133L298.4857332656921,324.5617061932273L299.03967159245207,324.73931859132784L298.8867974188649,325.80614304076835L299.1345040701674,327.10989744548795L299.42895668470277,327.3231900542901L300.97150654056685,327.77367745035207L301.61913345888985,327.7264947039484L302.8552397016215,328.0472682439239L303.25471964412884,328.98395144268085L302.94843223245334,329.2918564611013L302.9009322859598,329.8251747004117L303.45344247149535,330.45382122340976L303.5470564754554,330.98725655845635L304.14663826665947,331.34344563985445L304.1456889754671,332.18493225536133L305.02711309475336,332.6364013453899L305.3320066814923,333.21756524713317L305.424751752043,334.10656884470865L305.870774364448,334.5102037513647L305.8699218436732,335.043513072929L306.31578152073865,335.4471955521829L306.6101739932711,335.0921761902341L307.45445786819,335.98263329390863L307.5014514085188,335.98272901894893L307.70032866975527,336.38607719317923L307.40547957694935,336.966167847043L308.2966169142737,337.63172127966106L308.6355770377333,338.3079933312347L310.0684592650496,338.13388596996293L310.4173047565606,339.3317658247083L310.06296333856056,340.1365991931306L310.1080414475592,340.8121829161874L310.9065501545851,340.58931895462825L311.8902924138437,341.1730320701933L312.4371814036141,342.5020344807159L313.12766153090257,342.90733284801854L313.8161120747898,343.81043073618196L313.51034384749914,344.0699776124176L314.2455426550276,344.9259128835906L315.0857036860946,345.8179606518141L316.1289256029403,345.7276154904496L317.35226462247465,347.2024704974921L317.39697409329506,347.6529315710237L318.1897899123548,348.36769797163896L318.72948389796153,348.15714844429266L318.9779624780701,347.6607891501915L319.42153440926955,347.9356341880868L320.160512607366,347.71450756343796L321.53820534114266,348.4332713211755L321.58343179204644,348.7060522358931L322.95653077535115,350.0532664053046L322.6144222827358,350.48951272085844L322.70274058017793,351.343107997444L323.0525966467079,351.5230138806664L322.7947291986539,353.4762318984687L323.13350869873716,353.5257501729993L323.2732764534872,355.44584792189244L324.0083318306484,355.62830739060763L324.64807572439247,356.0708955736642L325.33891683978334,355.8623855169853L324.5341594533645,357.3732328888661L323.3975593762615,357.93438341201227L323.0076241302575,358.6545063642618L324.3776907668758,359.8124371657276L323.9737513011016,360.88768975632195L324.16685784362716,361.68258780480016L323.0756811739812,362.6586393517101L323.36239619827177,363.41852029934404L323.8634907931555,363.46914563656856L323.41384742809095,364.48484035669287L322.7218620675213,365.15556951212176L321.9745821668554,365.3760182079552L322.4719167790547,365.9949304392473L322.22280748622126,366.7158603267817L321.27216241964317,367.906352140032L320.7837648814831,367.7732559180471L320.33722059377266,368.4813135501794L320.14153199663446,370.1737211713378L320.3822330888473,370.8382290017271L319.44792805368365,371.46074029005376L317.53205796683494,370.64573784439654L317.3907093719454,371.0003224028175L315.62615867517536,370.0212522154535L315.18425483525584,369.9246417346577L314.9830608957674,370.72907886859747L314.24903603854,370.9511275636072L314.0022983138466,371.5659488151115L313.5147932111259,371.25621539816643L313.45495025801466,371.7059833838105L312.82721208931434,371.5616128391021L311.8940860809048,372.28078275670714L311.1037819465035,372.05329231202654L310.66016682761,372.58483353452846L308.997336797241,372.4027147418411L307.71622552818155,373.1576165087109L307.7161249544169,373.20498122836125L307.2258351949963,374.13941775470613L305.9004394718032,374.1370233415553L304.53949820240166,374.66790457739637L304.78150938124054,376.2666777467702L303.7480121382224,375.64976835714486L302.61990336541635,376.7972790999538L300.71451913779555,377.1516025338897L300.3195254160862,377.4712218302027L300.029137973155,377.1160126412598L298.94862608184593,376.58336516151246L296.8926162599757,377.11734254383674L296.05698256850593,377.8285413566291L295.81564654423784,380.0545977373099L294.64409181252506,380.5888852989076L295.03929886892524,381.0381916349892L294.7973948432658,382.2815572119513L294.207070581419,383.0874358208589L294.7538909802955,384.2822035302215L294.5594816761891,386.06989106366524L294.51581963863833,387.84542277132033L294.2727388476759,387.94048802336806L293.1955141018066,387.89500867734466L291.82920959453514,388.0753765364024L289.53641601064265,388.2114758020478L288.9004282051379,388.53294151163783L288.6138658325813,389.46885437801154L287.2497994251996,390.05334225283116L285.97389665951476,389.38344194921166L284.0740441820742,389.13092146348635L283.6382984560785,390.0678760119496L283.79217216750385,390.82463916158633L282.323054478577,390.96170821143176L281.39975613442374,391.4515745133584L280.9544541651652,390.3887321157639L280.55927511539886,390.0831146751058L280.1239044100267,388.79539001189363L280.65199997381416,387.94032916912806L278.2081797687973,387.9542190207734L278.31426242777843,388.2613239104977L277.88156261237674,389.47121058996555L277.7825295966595,390.3121433179721L276.8614156565652,391.0753775769275L276.82112185263003,392.01059813840254L276.1884088909091,392.55910636901854L275.7016267679389,392.42033039640376L274.52110992171646,390.7005464266599L274.47097430241047,390.15646920980294L273.63627992816384,389.98492285797613L274.7970871492954,388.78122849878037L274.5967475858877,388.28551064243896L273.8205640816778,388.255533712406L272.69282317234655,387.6838830906239L272.055396992524,387.6414021837446L271.4067390078363,386.17869882812056L270.825540192898,385.95842867204163L268.6276373739479,386.4266171829215L267.98679762316084,386.02976166412014L267.2607003569328,386.474230976989L266.69040121513507,387.46190191379014L265.52135737883367,387.5675433854948L265.17807206702156,388.0087885852343L264.40127139201957,387.93348938467904L262.19325650586154,387.24566725005946L261.56265520857005,387.8678295007576L261.76480725210297,388.3628309112456L259.91084249740504,388.2882010369226L258.6446463657194,388.9771391973952L257.5970215854186,390.49247428992936L257.5102424940371,391.9729587798361L256.40416354100466,393.32350919059616L256.5634694512568,394.06718448746034L254.88270792447182,395.60259087043346L253.91511602630965,396.77453598691784L252.90254803461346,397.10711323520417L252.76041433531623,397.7243134820638L251.91757013124112,396.8952573472066L251.53678303667874,396.9358503131619L251.31948503457002,395.38850781973053L251.79545927650267,394.67205258171686L250.9107483382092,394.234244806727L249.0526653146902,393.6800507762903L248.41733611265983,393.73640533067373L246.8626996349305,394.19683505632247L246.08080181168836,393.7231751501817L245.5723259501753,392.2158360126706L244.61091703850406,392.9050832130862L243.199436455247,393.637130125535L241.90608425904747,391.6100668963904L240.15699468239703,392.21857641071904L239.52429623569662,392.4421583171413L238.89604093493688,392.2396711528304L238.35676879418682,392.50922561909204L237.28188796078535,391.91222243584104L238.16779801938148,389.5769222875753L238.44896560284513,389.08679194129076L236.87886309278014,388.71136218065965L236.81064506928695,387.4577232761467L234.65054216663714,387.18827879663803L232.88154466356073,386.1551559637519L230.31901203214505,384.9130713245709L229.27417505066623,384.25845386991824L228.1102421427638,384.63656131973573L227.76497580070532,387.094194125934L227.47630401131983,387.14732197317954L227.11031653261801,388.5398085825377L226.18106123261694,390.6895178642939L226.29366977663875,391.669740302879L224.94043353010642,392.27761314824346L225.44616605049094,392.6696104691596L225.19786188093133,395.2077738603574L224.12798972555774,394.9223472068588L223.67272248226965,394.1744037228176L222.5916153004847,393.92515990030637L222.70032186172807,394.68037863643144L223.1971860240976,395.20241736956734L223.22183964180124,396.36182478559044L222.41210390741773,396.87623598985783L222.970078712904,398.107002434872L223.14013107044315,399.0383364182468L222.56369810735123,399.63056050649755L223.12722702197553,400.60075558411575L224.35299510161644,401.23753411853454L223.9239769582697,401.6962401422878L223.09833247100843,404.1158862216407L222.47298227171956,401.85731960575504L220.94084455573648,403.0502765840224L220.3752694402907,406.1747157998054L219.66009401192798,406.6757107742169L218.63890196165593,406.8879526812143L218.33590747720052,408.26727367619293L217.78758369198735,407.9721424140909L217.66370790635875,408.6020335747899L216.26289170194792,408.81182690824744L214.05353705264417,407.9647213884529L213.83876788240656,407.17711567103015L213.06460876238742,407.10107031640126L212.70178303780142,406.3999060703629L212.03810632793358,407.07867637505507L211.484167084172,407.99149945110685L210.93814334250874,407.8156566857631L210.0317140925423,406.5957925633296L208.92676386238946,406.67090375721375L208.58770494687298,406.93981708989054L206.9044809956643,407.38526405895414L207.1912349592085,409.11720388689395L207.70790880989864,410.39355482884525L207.37295561660937,410.804427220204L206.5075010975002,411.18175648061214L205.2024586554644,411.0384561658808L204.2456784103373,411.86832424457907L203.88496390530534,412.5878004426988L203.24624186713618,412.38015125594814L201.66920533347889,413.2274393700832L200.10308368512545,412.78556531773586L200.173724873925,413.67091124881904L199.5335934683942,415.0610697770391L198.10665635980615,415.8583826604507L197.1656650682404,417.1391431366957L196.8821834947531,417.27739719271966L195.56872117773793,420.3435162237323L196.0905446782467,421.7003650974715L194.32568637015544,422.6035110544683L193.3186888501045,422.71613003160905L192.19678514410776,422.4421870874797L190.44515583639463,422.2350858992276L186.99404641142405,423.13468196589207L186.3999416561559,424.31255267023556L185.45533864112525,424.92215679079476L185.52687327519783,425.72409045391987L186.69208972654124,427.3781589496616L186.82147347081445,428.568422405849L186.34009564025413,430.0144691714187L185.90038683461364,431.31729152767366L184.32965256877407,431.9825930401888L183.97822910137603,433.15266788425765L181.59623339675372,432.793323895267L180.84166528189698,433.17310547106365L179.88093200898948,433.2052667803114L179.90723788340563,432.62502239877085L178.93773491527722,431.04961594681356L177.22590065921906,433.24819529745116L175.44008012666367,433.2626952046021L173.65449842877246,431.98919189184943L173.22936871311077,432.27621548622983L172.98928280089387,430.67649381446336L172.48955500210536,430.4814107755461L171.22185157310756,428.6937233367986L170.1046129611627,428.55669791975856L168.83685998936397,428.0707046277412L167.87785061246245,426.946835325358L167.8828166054373,424.59271030540407L167.57480279655388,424.02443232430204L166.43260629734922,423.26238398124144L166.193096241898,422.0764302204045L165.50848122536277,420.670463296916L165.68545704423644,420.1787309602156L164.89511731435843,418.4217306589206L164.85685977887798,417.40553444319124L164.21286116766902,414.6725332201646L165.7962610940355,415.4532580435932L166.85864188344163,413.9936195297362L166.62369180426722,412.9372064211882L168.11580040640933,411.22522257997457L169.24020991049326,411.4090303917692L168.74032458444796,408.4445720285663L166.5672387288214,408.61918718160314L166.9489232469047,407.08990030623113L166.0764229357179,407.20511558581603L165.036943097615,408.0962355832442L164.55875577122885,409.4872992337779L163.29591066917286,409.62975978185074L162.91610366076043,411.1592984792056L161.9939194443324,412.35451444036704L160.86268018017543,413.191124903655L160.02357590122776,414.12321383549886L158.19225961965088,414.40806722955085L157.44354701023025,413.8222382269709L156.51653142802834,413.6815948478067L156.0679716389228,414.8476168949797L154.98774009208256,415.4710095331444L154.12610875068773,414.6655571063753L154.01075519369928,415.5105887237373L153.3470949233104,415.89269676904433L153.9199416300969,416.67415226408286L152.5932253045191,417.4384874443839L151.8214444580478,416.5826143622337L150.9023860144909,417.73318853594185L151.0977995128319,418.83755359107573L150.57515500625047,420.3740743403654L150.75583942964792,421.123913347668L150.6513274991085,423.30555639065733L150.15191540323272,424.000856276119L148.44647248778054,424.96001401808064L147.48477274417905,422.8709274752249L147.08161130197126,421.23138065464013L147.22451750751762,418.91753236151635L147.82556366314375,418.4422540017258L147.23424349830677,418.0649712132471L145.85471046208474,415.4134260639132L145.5076588327441,415.10873559176946L144.8484593372501,413.4443653123003L144.39223273181472,411.6883205578123L146.75366943301566,410.29646525596837L146.531269766545,409.67846769767186L146.8540102068447,409.1319384942597L146.71816500188172,408.3799796988214L146.94489670854645,407.7428092437898L146.11060574555896,406.5824917984246L147.22524826137385,405.37462115002813L146.94352471986247,404.4511184552195L146.42073870551587,404.6509899933459L146.35194107388244,404.12105055781007L145.75833045507414,404.0161538041695L144.48591090313795,402.6379260426364L143.58411875402342,402.0966460997692L143.1345583328788,402.92149695739505L142.65786558163276,403.11991735749217L142.33472770797871,402.60110973427714L141.63078680240844,402.0990260902686L141.39150692058627,401.1265321631556L140.39286519759804,400.5073316294709L140.02194286457436,401.0093738198692L139.61956220067327,400.541636885247L140.06560689312965,398.60300938108765L140.19493648697116,397.0810917593967L139.68713547293638,397.6366532252215L138.03330546326285,399.98476193672843L137.6189117571389,398.4872211526326L136.80700219841845,398.7015295001914L136.39830480172793,398.3646694348148L135.97987315210509,398.833796735831L134.3482339989252,398.32788767645883L133.30518859762282,397.7954504591261L132.46916255553674,397.73938721532403L132.49137371399877,396.2219623309535L133.02847605775997,396.0667683556742L133.37710474460636,395.33983476344247L133.90784939119627,395.0429013425498L134.02211909577673,394.50451539074976L133.48431609326423,394.39894087585543L133.4576145613879,393.81963200165535L134.18013732310018,393.6560763431511L134.2657763992832,393.2493201876969L133.36333785521285,391.77423128193095L132.96829074320055,390.5009289037406L133.49416037764334,390.3344906673409L133.65232246842328,389.4859155620442L133.37653110648154,388.78763327174477L133.91643274788322,387.90962734887796L133.7367130154431,387.02912112702995L132.74980678165727,387.0271813701038L133.60706954682968,385.4708044895656L133.10394280199264,385.138426523967L132.32734463080163,385.1742949958765L131.77384155396223,384.7614631512914L131.2852901441348,384.9975107463607L131.65906954778814,384.54161795299206L132.09227471728,383.36005556389205L132.2237375324919,381.9317241987387L131.8128334259646,381.5951933280976L131.82916139557557,380.6936394565625L131.0495147466336,379.9357291650833L130.25298356901914,379.56990666854006L131.14724380197964,377.785704637773L129.694759316494,377.0949082011549L128.97840983154222,375.4807946943208L129.07495290681936,374.31445474202917L128.8775726781412,371.11083923775396L127.43269177409465,368.6773386120825L127.57410879832932,366.48885727732835L129.6753001991015,365.2278998678244L126.33778006503314,363.33398718288527L128.8093346162738,362.45808157953593L128.41239733447625,358.24296792165785L128.36346221713302,358.1978298631531L125.7148283045303,357.3864063472369L123.56346057730735,355.74619488771316L123.5375983483095,354.2410327890708L122.3526532458414,352.28190689760083L119.2356601622356,352.0788587598755L117.99918256912977,350.0878550153003L116.45089896964734,347.7568168785285L114.44958209168189,348.3442025515295L114.0421904057743,350.951327380286L114.992763872473,353.2758396187405L114.58619481808728,353.1184962380498L112.837847877444,350.79922341224164L110.82406068432343,349.0638027207133L110.87578136312888,349.1560491136847L111.93160611392622,351.42708382177966L110.8184184299553,353.7150123426446L110.89605990540986,356.11933173417106L108.97029453833582,359.8378999144851L107.98762162979114,361.8468595327157L107.65388493677906,362.1728803555639L106.48977820193991,361.6176337487069L105.96509227836745,361.87091874348914L106.28502412654558,362.3877271658828L105.24293333334276,363.0245406841272L102.76235790691047,361.0581349373165L101.80705319760835,360.7065658007784L100.26995902304196,361.2768689411998L99.97381569836892,362.2778210045243L100.16660113617215,365.7906812211433L99.51592217856728,365.64850248786325L98.39078616856304,365.80552921079396L97.7759814918735,366.1006155699604L96.78556895010306,366.15575935928365L96.78649882093936,367.0098712159097L98.32833308513904,369.1068567511497L96.965414491984,370.21470200655824L95.05460082893734,372.14869219665144L95.90571102861637,375.04247104974127L93.55661635053158,374.3330562543303L92.9713134400551,373.4767119698381L92.88908679366827,372.8526966634915L91.81655491940529,371.442991465112L91.85171509551296,371.03763424073685L90.99423298173542,369.1174719402721L90.191913122183,367.9653750474421L88.2431240337425,365.8001719484438L88.22249304031345,365.44541067481856L87.57772657319714,364.41505249245694L87.59539864756061,363.91565462248303L86.34457058409515,361.9358981490112L85.9668659282776,360.4865496801139L83.82583806021316,357.7526710042493L83.74759005469136,357.22322993970863L82.84329360896345,356.20873431855733L83.0380569661742,355.3425911937131L82.14766220695381,354.374838877687L81.84074288397443,353.3604989759278L80.67312399069058,352.0890786491912L80.32242593053914,351.13676232472073L79.8372390117039,350.4893163769582L78.59294452787549,347.9764959575224L78.17831469192365,347.72855850796054L77.41473780163972,346.5758496768509L77.27291691030825,345.01732660809756L76.91509662408222,343.9705653661218L76.38158719703995,343.32633648041104L75.94017355379302,341.88102072700997L75.67792777511704,341.6358451275869L75.56801029980315,340.60956825027785L74.88200045766533,339.98668514617873L74.30104580694311,338.5856133734719L74.11975215733526,337.17182840303843L73.3693836097944,335.5199717674313L73.30366320322142,334.45526055132797L72.75221336520798,333.5511776381363L71.94989376021951,332.79334413233096L71.68459445473167,331.5628388822695L71.35374987180484,331.17961412102323L71.41769824059608,330.49868896593154L70.98744781083857,330.0385292182894L70.45686269683196,328.7295457054921L70.34848577978775,327.7505275203849L69.78734553141632,326.71664999054093L69.5310424231842,324.32156539810836L69.15292400533713,323.7632380047046L68.78844579931854,322.66957318381026L68.73498769586729,321.8177066581049L67.7014217089627,320.63547829685007L67.74574614680884,319.646765586955L67.31037359144392,318.379426498047L66.99283681106394,318.0431027363821L66.38622822529899,315.5749499887161L65.52183808772381,314.4774318576863L65.17966173750324,313.01419870467726L64.32521340557005,312.272645404761L63.92789238171278,311.44263068950835L63.340968431719915,310.9930707157657L63.354665625860946,310.2793631508278L62.951200174658254,309.54485028090477L62.94816595862926,309.4975220156415L62.35214360068292,308.72788287808925L62.30480119209048,308.73092530315176L61.897946166632295,307.9491870775308L62.08777994302196,307.75875753452794L61.562543904705024,305.879697697039L61.0406591541136,304.79649919061444L61.03307657748749,303.94151884480556L59.654592535049915,302.6880778766749L58.722031461724384,302.26153345687317L57.84030407116575,300.9763514484531L57.829773866665874,300.085854636406L57.25772645480086,299.71926044975226L56.76121764383038,298.3258694117478L55.70502143824453,297.49217805043554L54.29605085194055,296.7415125003245L54.04983530655383,296.80535940254214L53.75928301545437,295.4817871972055L53.27489268131063,295.0148388857727L53.26658778434356,294.1716445076523L52.95457727063459,293.9665987212831L52.90104847073826,293.1620572268418L52.529508774648235,292.96100019527114L52.773985149387784,291.97023568432786L52.155220292457045,291.1082718340798L51.46872482288882,290.6668676205173L50.23397228110835,289.35915223924155L48.865326484115,288.55998767877963L48.86468180710153,287.13384107007715L49.60812825934735,286.0972883845469L50.548882137344066,285.85583385351504L53.14261928791166,284.74403166421934L53.57794460683132,283.72881817227767L55.161123319738294,282.5073143055731L55.71591117552401,282.3877014480935L56.184719321049016,283.3314255653458L57.12958885493924,283.13896430518486L57.516210769282424,282.0918181722642L58.041516023600025,281.70116825991994L58.29581600567053,281.0073294468209L57.9431418311529,280.18652516504943L57.95550333015501,279.63910085018347L59.08309250675492,278.3658840631402L58.44583415617157,277.77731541888L58.19385018524406,277.0331322880095L57.22581322675319,276.15723926241003L57.398861706469376,274.94578325145477L58.00185643529193,274.81157121276897L58.684339739448774,275.3496438132836L59.43111572992484,275.02812478005694L59.263336981581176,274.10020490808466L58.693917259501774,273.82801516771036L58.794477258691984,273.1560771974781L60.06645518754743,273.15730498603557L60.12784602106262,272.6186452702543L59.33756539248833,272.08723763133565L59.25543501736891,271.557808210731L59.69829203091473,271.35105426861077L60.93986401778119,271.8061036156862L61.00081233814373,269.56832393387947L60.74900481986032,268.8239643064227L61.250959069912454,268.03141045650244L62.155101099454754,267.89061389902156L62.92248922946911,268.05575407636945L63.448202133349525,267.440251376638L64.48778935550703,267.9211884309602L64.98469313921441,267.03445968252043L65.84350621468957,266.9330678621355L66.7649052703278,266.29332414682165L68.14464836126032,267.41939573359434L68.56156244907945,268.3321507075391L69.88864108128388,268.4284450813574L70.31110803311586,268.85392327885046L70.39328498725817,270.19136588157596L70.14601299300082,271.05008465383855L70.16956456771726,272.2129289454164L71.2634982020027,273.61893665875687L71.87574028280949,273.6289979921016L72.55327501813667,273.1362161792272L73.31975201283453,273.3153257291565L74.02956702642564,272.5595106588436L74.83530866572221,272.5940012104819L75.54671124259266,273.4540207527442L75.7475519322056,274.20224058047245L76.44925850720657,274.9085526155481L76.28950260750213,275.64276953508335L77.57279623115036,277.66866841801783L77.18332420889837,279.5688396610283L76.84388390078675,279.89800785517025L75.84195093156595,279.95813141482955L75.46565142737114,280.4678446910913L75.37555671525666,281.5543166083636L75.6720697500306,282.1066677402892L76.18341404616868,282.2540996989755L76.80695835574681,283.4758894385249L77.0285182866067,284.57926323497213L78.10828677378592,284.2415266770055L78.5323772308997,284.5370051209095L78.37990207666897,285.38948509433766L78.61406763286615,285.9100984350055L78.45391342589701,286.63236445294046L78.55509713946503,287.5291343294177L78.19122913226232,288.03785076815933L78.44058270132965,289.81669096736005L78.75199633931373,289.833779128666L79.75398351920296,289.01404887245906L80.11934603363059,289.134966057454L80.73533376318193,288.64720848257326L82.21706174658809,288.86896273258486L82.68569941889135,288.3070317289966L83.59568971730934,288.34898917978677L84.23676151666959,289.10754716730276L84.25444541391153,290.23490261360394L84.64261511079417,290.96067989532924L85.46976112677146,291.23352757767157L86.12107659845697,291.14847266413085L86.97126394332795,290.16134025571347L88.13884077917936,290.54593079281216L88.61190206956226,289.8420123493357L89.28717952398384,290.3856337040131L90.74752945279167,290.25562300956426L90.95049762260157,290.46985402464793L92.26150160799952,290.4438501749553L93.97485269755816,290.5741216391051L94.3709760077588,291.2647314335321L94.90818526740046,291.05690644481115L96.01080048412601,291.8037485842381L97.17967145163664,293.11728173862025L97.93955850061363,294.1564900145612L98.98490755574895,293.8741270199132L100.23035239006978,294.65001041192824L100.87934637612102,294.53202298575104L101.74187606810531,294.8420913458986L102.37360862350735,295.2952477839743L103.03424476630283,294.5001918149332L104.08479169070708,294.53959681586434L104.36063322896274,293.89573481977146L104.8647023704849,293.96420132457354L105.32059819977272,294.0233867962962L107.1081369057388,293.79948786953554L107.69180504522862,294.2560207419935L109.3549643577141,294.3958373273216L110.43274504752023,293.80637152152883L111.12904811347937,293.6759076416193L111.98419399578287,293.8580918445603L112.55198712044776,293.06954241649856L113.625278205971,292.6118663751655L114.72902233643299,292.5210332384946L115.35811504553502,291.9910787208619L117.5576435106426,291.88241358492536L118.24406507199137,291.5401041492711L119.25880672707419,291.5737050957727L119.97584485907436,291.8594231753191L120.42307098540755,291.7428084102178L121.73215929711654,291.95280298635646L123.03773575194123,291.8429017986785L123.75215190099456,292.08197143943755L124.59626677790828,292.04202080589977L126.0263647063,292.5564289156572L126.60995609770416,293.0633081591913L127.17973426286773,294.5561399188314L128.33822031194907,294.6329627552939L129.17511845090283,295.48459773237494L130.5929535580041,295.77570153633354L131.3309841224972,295.5165665345289L132.71283551955486,295.01486280943664L134.24097814819382,293.2490219711512L135.5065843741428,293.3233095584826L135.81983210411565,292.5973084143171L135.34659241760622,292.1316228844486L134.94395590235706,292.1850978626723L134.02845654964364,290.6235265330032L133.94489899063265,289.82013884320884L134.79767971190387,287.5507011302509L135.53397837282978,287.20946924577333L137.29949916234963,287.4879023588843L138.29740562592434,287.1239254014115L138.85118420521164,287.2423207844103L139.62375739992973,286.627362892734L140.75586461703824,286.0446458175751L141.42210831780838,285.16165660235754L141.6179413751958,282.47101451539896L141.857188394385,282.1997391770827L142.59516779347507,281.85989930229135L142.82852830748234,281.44651723700173L142.87296274148534,280.23405448144274L143.458840831118,279.675318925727L144.05874164278302,279.73325167669276L144.93967932989952,279.0793500451067L145.50041408730064,279.0560693838808L146.6830273791715,279.6243845623596L146.67230612330596,279.3637287295045L147.41659861706336,279.1551698553707L147.98413015494825,278.41991130682703L148.82695061340866,277.98214068141044L149.90052066503543,278.52028866551376L151.01922481059478,278.70090372681193L151.7915013717864,277.6851304631764L152.0101702986101,276.8694644293485L152.4637987343477,276.8514950911027L152.83670855225722,276.3027363572609L153.9521794299737,276.3894414783665L155.69168727642474,275.60973314039944L156.3383602615581,275.6322477288233L156.54318855960733,275.67183479141437L156.3031093889102,269.42722065244436L155.94504179212885,260.11365141994844L155.66032430244098,252.70796580151585L155.08636512767094,237.77891732324468L154.67688935299518,227.12818821300536L154.37675691844538,219.32154993234548L154.12964933584848,214.15888447141924L153.94607420855368,209.38556863986798L153.87129028632896,206.17403668275244L153.39870311014104,193.88173929706215L153.2196533255824,190.4971911556574L153.1656347034856,187.81947965445474L152.684566400864,175.30658269784612L152.1558678607048,161.55479252986032L152.03610823042015,159.72268143125197L151.5588493288667,147.31300750589745L152.57594729671425,148.03213399526055L152.86416393005013,148.77925737158756L153.69638256965408,148.8779136910556L153.778294722364,149.4078709751598L154.56096806729684,149.50858833140597L154.4770878005708,150.23435848234107L155.16749595989464,150.51636931216956L155.34968558927955,151.08999717225942L156.69959984913788,151.16990244571912L157.7864603821952,152.16028980394088L158.17529315502063,151.64841936698687L158.733589213828,152.38608578609032L159.13419125737798,152.19373009753508L160.2008256712843,152.65244477281098L160.4238971977201,153.3551482741104L160.89895203389318,153.51567017120323L160.92115970413235,154.13089629451244L161.92709884802073,154.6396678664232L162.27303047871698,155.33810107622398L162.94161028116355,155.39718162659372L163.1700752044063,155.9221765876881L164.12094614494882,156.2913118769804L163.9461559361024,157.28081390733558L164.33161237161124,157.71741758288923L165.12014418457298,158.0451346561997L164.98160075295044,158.66607528238603L165.57326169634143,159.01264608686878L165.8350315717907,160.508220593581L166.5522892691769,160.22260917954574L166.91831210099159,160.4705894253657L166.6926190593929,161.42627651044634L166.1926107173254,161.92943729901162L167.0030658024358,162.92031828868332L167.8876094560231,162.85427083567524L167.59669413640955,163.70556066811855L167.99333392526395,164.49766503826277L168.62211041621285,164.52351295403452L168.80605444391446,165.58367826945303L169.60185743129364,166.18461214244303L169.3171192668254,166.85788020195486L170.216051761093,168.69971203693152L171.19279650315102,168.48905676817L171.4610757962436,168.78817015025555L171.27488935420132,169.4698828613876L171.64450922918658,169.86042019601672L172.05295310317086,169.57421801036006L172.37178856409218,169.91911518636346L171.86947777733596,170.33877714254172L172.1003143211861,170.99471786559724L172.7755175506347,170.97226524500115L173.16185672301384,170.39063973843955L173.58049050879032,170.41237450985244L173.39989118111782,171.27157948789426L172.48356136400008,171.43229255391753L172.77079332701317,172.31158212654503L172.31785470172133,172.72957942353813L172.43689847343393,173.3537410901344L172.95376005028476,173.3839836809194L173.69946282121634,174.0230256906698L174.57894081402867,175.3807901559716L174.33735299220646,175.87463441771575L173.55266638645327,175.90045242743653L173.7919169338162,176.82888483573686L174.31101588475275,176.942190383859L174.387059442677,177.39008414499466L173.94784056000475,178.21048819675784L174.01711481283945,178.82454946742826L175.23328937720524,179.63812054357948L175.7865597146856,180.81727726473113L175.81000759210025,181.53956341024252L176.48908939506833,181.69537762432702L176.86393522432104,182.2996670614147L176.26916656256876,182.85227105922638L176.293686215462,183.61011481895167L176.75598388855067,183.51220920553874L177.34197652435134,182.68732309635834L177.71331119519738,182.8058194463373L177.71652145920655,184.82084847640775L178.50653302759594,185.02088008137747L178.47211549918595,185.86361139887515L178.07574530051292,186.10146794784185L178.24927891205755,186.93759140346805L179.36838805850442,187.88600611845993L179.19733008860615,189.05317308947974L178.7082338772688,189.8273973228199L179.2381743135678,190.34407324928688L179.42091330986096,191.0970279489483L178.91007904268923,191.56370809502673L179.03537080416407,192.04580813730684L179.6067054121139,192.33597849736768L179.02184918805227,193.1606679180315L179.60872970353148,193.94829173639457L180.33279355095243,194.05591397215423L180.10038045980326,194.82199606621737L178.91484070429792,196.32964937470217L178.9419384742846,197.18246016043946L178.71682169413424,198.1618744908273L178.28353359854415,199.11239919224207L177.22072184749885,199.82238365048818L176.8991790491235,200.81693691715213L176.08938978531148,201.4123831876164L175.46972039999707,202.59468830328825L175.3954577869693,203.67621318573433L174.88424340981808,203.6929956558466L173.95449101609705,205.05185168579374L173.28528622806996,205.07409626350199L173.04045368102547,205.40245154722055L172.96139154930546,207.40926708278292L172.76657542278667,207.77156326592046L172.91775643042496,209.3793840161868L173.66595799354053,210.2913261981347L173.69740634493422,212.69782869106342L173.87298794241087,213.22569158028654L173.31263782997223,213.55272718202585L173.4649874667549,214.84041698281703Z">
			<title>
			</title>
		</path>
	</g>
</svg>