<?xml version="1.0" encoding="UTF-8" standalone="no"?>

<svg
   xmlns:dc="http://purl.org/dc/elements/1.1/"
   xmlns:cc="http://creativecommons.org/ns#"
   xmlns:rdf="http://www.w3.org/1999/02/22-rdf-syntax-ns#"
   xmlns:svg="http://www.w3.org/2000/svg"
   xmlns="http://www.w3.org/2000/svg"
   version="1.1"
   width="600"
   height="600"
   id="za-map">
  <metadata
     id="metadata109">
    <rdf:RDF>
      <cc:Work
         rdf:about="">
        <dc:format>image/svg+xml</dc:format>
        <dc:type
           rdf:resource="http://purl.org/dc/dcmitype/StillImage" />
        <dc:title></dc:title>
      </cc:Work>
    </rdf:RDF>
  </metadata>
  <defs
     id="defs">
    <clipPath
       id="mapclip">
      <rect
         width="600"
         height="600"
         x="0"
         y="0"
         id="cliprect" />
    </clipPath>
  </defs>
	<g id="provinces">
	
		<path fill="#fefefe" stroke="#666" stroke-width="0.5" d="M355.53428000079964,146.37416589436754L355.48485928383064,146.37345531827313L357.71919094639793,146.53643714551308L358.7535574897254,146.77697505099258L360.68633829112053,146.45171415235376L361.86768815969907,147.5359660559696L363.099891312984,148.49121953105788L363.26624204963866,148.138761274293L364.34115508918023,148.86690517521092L364.7077988386082,149.09799113595508L365.61176053609074,147.5030853002492L369.54125410940526,146.10382570668375L370.81046493699944,145.6414980920246L370.81372032377726,145.4639754187494L371.9506616040861,145.4849919213281L371.8883506500394,143.51863789357174L373.49638087699765,143.51337812585126L373.77883955794647,148.14783797883518L373.8538435432149,149.39248038189908L375.72152415612396,149.8786264430569L376.9380286963383,151.418330848007L377.3326197934325,152.66956619585164L378.29171244605254,151.62319922049346L379.62461109994604,152.23072703585333L379.0846187503365,153.28536147913292L378.8475803579342,154.61865570973438L379.73353640802327,154.7197866511147L379.4516827834781,155.82715870313075L381.0270253316299,154.794145422086L382.330018339669,154.9994107388641L383.02263181710646,156.62490865997665L384.4826392359418,156.38427247429405L385.785529793082,156.01040986641542L385.9849989236282,156.4648999133646L387.59827519330435,156.00384413306196L387.74932044179434,156.40995499075868L388.12415865148733,156.19349138459145L389.249434741501,156.58655397309636L389.447641390267,157.07674101433096L390.18511004055165,156.6438862374466L390.3672413581589,155.71252337958592L391.16670263768435,154.7602214275054L391.302343611521,153.2001824502191L392.31097856250574,152.82156279657428L394.0638309935262,153.3139659996385L394.15613244263494,153.57676226806322L395.78045756857756,153.2615053638466L396.41043525645625,152.74428616835607L397.3490722902226,152.72050788379028L398.3905832008429,153.01934155948976L398.7494791902938,152.98114856655883L400.40068846578316,153.55675425182164L401.481241976673,153.76271011191918L402.3125555860814,154.05709516268L402.6011136256933,152.95148481055438L403.4999728031677,152.57284723139782L403.94201637692464,153.11769187894805L404.57102844660585,153.13470782706392L405.19034617873933,153.5068691522989L407.78375716151413,153.44825231690803L407.9192174281938,154.3403409707562L408.93984596367454,154.90205801269204L409.91695478618203,155.24961650057074L412.0770768871631,156.0580915453806L410.720044186921,158.2102022218412L410.7098297772533,158.56527697785313L410.07797990362553,158.6774545450351L409.3651343620835,158.1714643077718L408.72639859376596,157.21759377052155L407.6186215537251,157.5891999414118L406.5322271121232,157.64189677294843L406.7932274152447,159.3430133693416L407.8791495076081,159.29038648226987L408.02996369525454,161.37951613333595L408.9612797213533,161.54794794271305L410.4250082198075,161.18691897576437L411.50632296845504,161.70383031413957L412.5331113098755,163.65297047826627L412.7331810925462,163.96686714028272L413.07138629199335,164.60472641397956L413.05431762203085,165.18476595593972L413.0243597736687,166.20281461938208L412.5039453145922,166.32971357966636L412.4547800432362,166.3282737352076L412.14507703773586,166.402155352338L412.09591269373385,166.4007201017334L410.83299121246637,166.68396606076482L409.99123045160667,165.5816060694157L409.2089834949275,165.83178566374963L409.17734575511776,166.94459051877848L407.60530955774067,167.30305059180245L407.0855722119046,167.4188491016821L407.04764171841356,167.0149597668124L405.6687853104992,167.96015010266638L405.3567587798023,168.12929594302977L404.9881916017037,168.11919862369936L403.63825249131634,166.66078509452626L403.0596561648203,166.6807571646733L402.701973713171,166.7185652077487L401.8862189941743,168.26072913452458L402.5812916275014,169.39296266878506L403.31896621434765,168.92697287890152L403.81947686154274,169.50919795139825L404.41291155055455,170.28360575344888L404.66333415633335,170.56294937361756L404.09116666729517,170.81990404575205L403.6641506174256,171.16380535237337L403.28072679798686,172.17247300775736L404.34717967660697,172.69901161206633L405.1289459996898,172.85070952566946L405.05429079020325,173.33449223442017L404.8973436036545,173.68568230907994L404.432135108441,173.63743176471775L403.7634866486314,173.39413402648034L403.3501803416318,173.24077667584942L402.8887163798338,173.05062460420268L402.33860500020216,174.3393399477233L402.11715147507516,174.81926949194786L402.57621488339856,175.0922251868114L402.6710357400841,175.67541073106491L402.75451622613144,176.2227522808379L402.28770000131624,176.245809736941L401.8541838932224,176.86231778585943L401.974423066091,178.3349731359471L401.71585358508236,178.37549766075452L402.64365954344277,180.35566736504967L401.6554470115234,180.64926988294357L401.7427032842442,181.05453203471473L401.9707094047427,182.6131523269285L400.8742308126576,182.85666276855457L400.08801711290556,183.4167386693288L399.960545274432,184.077107511819L399.6045094427051,184.1152223947062L399.5095036129746,183.5320085066951L399.7984816716619,182.781031935179L398.76155557118636,182.6237465745055L398.52815758456137,183.60140809445787L397.9039183758613,184.0712932057797L396.5947804745389,184.52391248041852L395.1455153291297,185.2105223410831L395.123258006517,183.64554935376205L393.3028875419865,184.48955178882426L392.7079970213531,183.27809084862395L392.19746582423926,183.12353325190475L391.97578819287156,181.6486781662638L390.67658382957023,182.1983478588744L390.6701256429721,182.47076409873813L389.8734238609634,183.02080218766665L388.5769149194036,183.48829010426888L387.9569186712804,183.82950705311237L386.44687963119463,184.02023367554204L386.58875743685724,184.7819131064787L386.1728599476841,184.77251416546255L386.35457494561,185.93804115354135L386.0499275571467,185.88376294097415L386.0996872488743,188.01817952498263L385.86473978503716,189.22179513425846L385.407635724588,189.43673281629685L385.0374394396093,191.78709770437337L384.8080092363076,192.76576994692692L383.0146443334695,192.67890681457862L382.8756842388558,194.01525919489399L380.7843341230647,193.61479311403525L381.2848097946669,196.4820325975289L381.9124585130934,198.49874393573037L381.0695215894861,199.14452562255855L380.1460691966676,199.57542729657945L378.8855238055975,200.4025890163536L377.42004528432574,201.7475785566531L378.50562835186736,204.04588826417864L378.66740069381393,206.2305410577558L378.10056754230254,206.5745055202168L376.34272841925497,206.85887581545987L376.6400451675995,207.8014222489772L376.8963349013517,207.7591796102098L377.1336196828735,208.65314431674403L378.5220784082597,208.55118220895426L378.8759571974797,210.8348191702822L380.6845611100438,210.37487521637672L382.12496203898286,210.09750146771395L381.729160723883,209.28275786103939L381.95009342000355,208.62359272017778L382.8232535497793,208.73737787134655L383.358997531102,209.81613485696488L383.1474803950331,210.03676266204536L384.59931102423843,211.4441631135306L384.8681727368488,210.8336334231426L385.63462047785026,210.80341989799152L387.11670032569225,211.37068505154105L389.0591243917238,211.46319050843516L389.1483495255232,213.87223978775634L390.04261670396374,213.03965046222356L390.0170236000432,214.118041692757L389.3421530849678,214.4103721389829L389.6512829920448,214.69038364589437L388.97765401249416,214.93537847773433L389.3735083366384,215.656128436078L389.0463465882758,216.14644215470207L388.5917034634786,215.86306988798327L388.02423759617443,216.25300270220845L387.3103852710335,216.1534926351851L386.93936180034916,216.45325631847953L387.3384302358301,217.04344423829997L387.10771551010475,218.10531292917608L386.3346171816411,218.4907764916037L386.0608861747325,219.32644241278138L385.53945987268446,219.86008626981786L384.91256859567216,220.23728451951658L384.1785847218097,221.07465759844143L383.8261672473907,221.11426956693433L383.283689099596,220.42640632576945L382.76364217619835,220.36757352529673L382.6288235365316,219.87846753312442L381.77051294543287,219.19582027148383L381.53048609034875,218.51477721364637L380.71815540330374,218.49738284704506L380.2888432708707,219.29455538419936L379.5624502993569,219.8128075487424L379.3937058674227,220.3428489051042L378.45870046818436,220.99923335552523L377.7192524733755,222.18158886793412L377.706353207787,222.80977760514472L376.64614139158425,222.5154316021662L376.8628678974524,221.9862381311712L376.8343794802879,221.00149328143965L376.316003516373,220.8605783880577L375.58762083531747,221.5218336605213L374.83517067565975,220.96144949851367L373.90644858061086,221.34635159083L371.82508821598543,221.17586277361374L370.15921208251046,220.16050014146657L369.59854643809945,219.66402594905094L369.7200666576962,218.99042818498123L369.35790175877685,218.90078333503624L368.73002038953496,220.08686457041432L368.86230170759404,220.81253399771822L368.83729487548084,222.1874874061986L367.99646104260074,221.1051636590044L367.5352059853455,221.14433495494018L367.0850913860868,220.555349954451L366.97603133460694,220.55341932864422L366.24635395738727,221.3824127543644L365.5744765557281,221.69084865326934L364.7697221930454,221.27386396209897L364.00263792567455,221.4860951882904L363.4350260922891,222.09309074099633L362.351706398192,222.395221401338L361.77133380141714,223.80852185781538L361.1553899969564,223.70366025215267L361.1617130222602,223.31248689117285L360.60906715024873,223.03088856023805L359.9858257867978,223.37665961237246L359.3803874446634,223.36710959487567L359.2096145004782,224.2181214343983L358.329019126026,224.78542528921315L358.1750151843197,225.35218418288156L358.5202982865211,225.72507742258603L358.24626229267784,227.01326505959082L357.2342305651184,226.72509387229863L356.82824251773286,226.3632588033812L356.31212930551715,226.88910104948218L355.6322814136137,227.86317010688356L355.1256996806786,227.76089022929176L354.5558196440088,228.68933203555315L353.33756216058373,228.45851052559738L353.121988235752,229.16690026169312L353.5706556011914,229.93209723420821L353.6114337291482,230.46625358734002L354.36329658701527,231.14101504900714L355.31628358222343,232.09159914168004L355.4634047797136,232.76964111660686L355.2045497145318,233.12157538797004L355.3376573050606,233.9298488530332L354.8299908666741,233.9580106585883L353.89434189474423,235.2014511006166L354.0912152762563,235.78530351666524L355.0946190272451,236.51130560297923L355.9105834663446,236.83162542900567L355.54407098044175,237.13451719006446L353.9329894136456,236.71981193117216L353.26064578030423,237.32686753347227L351.48486508936344,236.5907250443368L350.5165281981117,236.80292527041954L349.5865818447522,237.77477867543845L348.9335035998972,237.89667998869098L348.16378876366366,237.70889867405182L347.5545105644629,238.18733230058004L346.8196075486976,240.0516737891391L347.16475984988,240.41171850954663L347.1086826613054,241.03949106262473L346.19053073646523,241.20598802541267L345.7260868695043,241.7339304966501L345.21842002406413,241.85823783523801L344.7488360538677,242.83684501945686L344.1491537260311,242.6044609631341L343.78346171311773,242.96778912105506L343.47149004139425,243.90096101560906L342.6043879402943,243.89104432634375L342.29238099023496,244.8598888402824L342.64296136389277,245.8006417955711L341.66100223900906,246.41812111314172L342.0166203976667,246.90826513445091L342.8223200959819,246.96478758043725L342.8778888853425,247.36860287691994L342.30531351345047,247.99060667079436L341.03245405820803,248.86587003839605L340.28096703536977,248.27668432382637L340.03504871487206,247.6455700411237L340.2915133152963,247.29256320234967L340.10264140696626,245.8201316737376L339.39668406946475,245.40949622983294L339.40127866079166,244.97079634941406L338.3275742464217,245.17314867583124L337.83171098706475,244.1957757245567L336.77026445560193,244.36312241143082L336.86229881789484,244.80276650431927L335.6453397348561,244.88590304935948L335.2406464112317,244.3840591188728L335.2945949199412,243.7679563684065L334.79742672657636,242.8265614124478L333.9365644008939,243.43530485722215L333.32260637234685,243.39424565073227L332.7161451485583,243.87509289114433L331.64091343731644,244.2690623787886L331.0821861810659,244.84543642003072L330.4199831583258,244.84002382080857L330.1143302632593,245.4185963216206L329.99387989289374,246.9354385914115L329.1856193665026,247.18995155756014L328.5787170988577,246.2959508540072L328.2289782227167,246.3881719345073L327.6188441556248,245.8856143811807L327.2086520400978,246.01306012388298L326.6011323023111,246.8150435499596L325.1300020873377,247.2555201901689L324.2161549580019,247.1546609977608L323.70711923379764,247.73244847345728L322.8873633266954,248.00009759548587L322.2380262369697,247.94876899720214L321.5262118773944,248.30035901015464L320.3543250262054,249.23059653218144L319.68543733637483,250.6499750201649L319.12018658703454,250.69448687981063L317.9661382250731,250.6887899905223L317.44795330878657,250.9590781135575L317.25235714693537,251.6696474185884L316.5899934277209,251.9749681755707L316.58821226675263,252.37812924577892L317.1388882726235,252.83120409255417L316.9810907039468,253.18622556937748L315.1150549700608,254.16245830913348L315.00535074269084,254.56518936181124L314.04148398262197,255.40337619949332L313.48983547560545,255.22348215151487L313.23643678702695,255.57831949105676L313.2343867157588,256.1593548454956L311.95827309812466,257.31715599073476L312.4594805171284,258.16071022366066L311.09716679648665,260.3857504347655L310.029774503737,260.47760584183584L309.1777275642433,260.7837323792654L308.4106151743066,260.6989249562412L307.65291380441704,261.8593944923868L304.98636794827866,257.15910758102797L303.98010044352066,255.4740742243757L304.48467975380925,255.201911095644L304.5332517438994,254.75136863882693L306.71146641037717,252.12218590276353L309.25435945583513,249.13943681580815L310.6785144436014,247.36456674169966L309.15209653950825,246.68466001774343L307.63543047364215,246.85913767730145L304.79502972146787,247.22202656122568L303.12234280200283,247.4337013531735L302.91855742382836,246.46122025193424L302.96723011420295,245.78538201308191L302.8230526177816,245.42954762782915L302.76286173257205,245.4295029371429L302.5108670477645,244.21987191634884L301.75223452827237,244.1838701124121L301.9083555984906,245.02582005991798L299.77739325177345,245.42849488786908L299.7292627210807,245.73679154026368L299.1637440397261,246.76847586491996L299.87378389404165,247.9659975567589L299.82569280095777,248.59445238578212L299.3686568387186,248.77236573439518L299.2125332228662,249.88701512043326L299.212563045813,250.02930740816404L298.7077614330881,250.56304400401626L299.02040730209166,250.8712504136181L299.982072998723,251.85531671307587L299.92198591932515,251.90274861123214L299.82587922581547,252.614219804818L298.66045291692785,252.7448907375384L298.45660660303764,253.72916988350863L297.40011024304005,254.48865723423725L297.14805253628197,254.66670878425307L297.7970122157159,255.50818356222945L297.54533016596133,256.18424241718714L297.60609086057565,257.346284206908L297.79840485730426,257.87977612852603L297.198789488675,258.28334849031904L297.3430649865827,258.7219901930477L296.44356099728594,258.9006061642924L295.62842219098616,259.35207377579434L295.8334082700276,260.3360589178962L294.9232092429318,261.1316728842394L293.8185596526644,260.0661056336013L292.7974960588624,259.1311420665041L292.1975081883391,259.00190447927747L292.90290859629465,257.79098283091014L292.8417158070748,257.1626246161968L291.1209964705057,255.20973710606194L290.57026000396786,255.8395529878867L289.60688254122556,254.76302363433786L291.11434572374066,252.39943156239048L291.6188006659411,252.30340896779265L292.0730630636923,251.1877890337681L292.38367745208905,250.2503838749292L291.05936987694315,249.4944080428347L292.22156749683603,247.44045133472588L290.9564100171566,246.68439749836608L289.47710490897947,247.0084004059447L281.88054343593467,248.7685604730305L281.3694541424776,247.57342764217566L281.72082849422475,245.6033343737742L282.11361692223346,244.66470007082927L280.03911014223667,244.0111127480777L279.97012776646955,242.36329424139686L280.11517234571403,240.16892421150456L280.06086633155013,239.01906540504055L280.1999026150831,237.93933796456884L281.0549187068544,235.25528331370555L280.39084354608167,235.2231069157262L278.86414078114996,234.19981426805654L277.129426107948,232.87012577084562L275.17725016123933,231.73237022976485L275.23384983137083,231.1510296047323L275.63032241474934,230.79275643538705L276.9405792327873,227.65448184582942L277.5363166323747,226.13333091779504L277.73859568293864,225.55119866646064L279.525363614848,224.74676912313657L279.1516519682873,222.82821032104857L278.1201909870791,220.3799877518093L277.91210494219996,220.025542515837L277.3977820133152,219.1394496735814L277.19248792741365,219.27108504527013L275.70472618475065,217.89330910007692L274.27350266639684,217.85533662910757L273.7722367998171,219.02055761934997L272.6888746689805,218.41175318435074L270.8979988082099,217.3107232224025L267.35871356341426,216.1777790716976L266.3826010863279,215.55800792151044L265.2019281950126,215.16560026333326L262.37332479144686,213.85303715039834L264.24025096693396,210.98995212760235L265.3565369502964,209.49786408752152L262.6748592681713,207.47258852924563L261.5341771220121,206.5119819756049L255.42236275074248,205.01410106495328L255.87392299419471,199.87656645073065L253.9441483141688,197.49343330629205L255.2453476613207,195.11944931029365L256.6599447420832,192.91064755052173L254.8541330940623,191.95982521039153L253.71967705464868,192.0563739295493L254.20573128647442,189.82260728171613L256.533956607489,190.4234512578162L257.98254256599523,191.0708496805313L259.0384147302783,188.16794820194912L256.91850099706585,187.69358403646237L249.65346829875145,187.4269432681312L249.68173489376258,189.57144997299986L248.98707456461048,191.5360261721057L246.56439874326395,191.21365833583297L246.38811538332772,193.44414440789956L244.06543919709122,193.21677205541226L243.89335805426464,195.6251914335507L243.30992981265715,197.4116459292478L242.87615066361974,199.38564714983914L242.19572948438326,201.93246034171938L241.44916856106076,203.2833106351319L240.99909522279955,204.09631241366918L239.02180362096885,203.01325475271943L238.04133025609573,202.6260750169044L238.00929370658733,200.6589338411746L237.87917635093189,198.65789545962204L237.72848912223176,192.41425252156904L235.51968200176978,192.49835592487247L235.39556996212593,191.65899414609527L236.77419543420817,190.83000980656024L236.48441721980868,188.83199814612766L237.5610745807208,188.897195345149L238.34099341517722,188.75416311984523L238.46243460839537,187.1879361282784L238.2475315893422,186.7529432774277L238.39481774026993,186.02770596966752L239.05755021428968,185.40088032480878L237.8588897669551,184.6617915830284L237.9991489863573,184.25662352383404L238.77643153597927,183.8886084292965L238.55701352821416,183.18116006282963L239.27544632192195,182.9445465020225L239.98634551453506,182.22237341451626L239.98002590174087,181.81960516901148L238.52256114983896,181.0370215421215L239.29037897377017,180.7996339782882L239.42631964693584,179.32825523117987L239.67367110958523,178.696388608474L240.60002697863516,178.37385174855376L241.19629760903413,177.29833273335478L241.43593297004907,176.1335917502584L240.91955468031838,176.04674045539798L240.44262066664578,175.34327985202242L241.41619643537044,174.84253508695397L241.99332564149697,174.88114445112996L242.1351281819782,174.52358803584218L240.879187245174,173.42914292467765L241.29214848678106,173.1503214786458L241.694365432935,172.16091911176676L242.0939987887731,171.7994731654679L242.29000345906397,170.95543952374177L241.86578299169784,170.5116957295407L241.96947804023404,170.05998160824083L243.10689742534436,169.7349586990142L243.8040541214281,167.85311131179776L244.1545048293823,167.44526516838062L245.688363181838,166.40460934039166L245.89230698171542,166.04639281352914L245.7327568197611,165.1958446464456L245.98662246897834,164.88431658461406L247.0170341331523,164.69230723543154L246.7912718803931,163.48734456979236L247.63431656272996,163.96136228428722L248.23857838949326,163.15964612825712L248.49801979172594,163.23906662023785L248.2990948883396,163.9997370396859L248.6255126755687,164.49280423824558L249.1437193399914,164.61619477004214L249.34449241015503,163.9858155172848L250.21310786409757,163.6191526168613L250.797575710025,164.10906264392162L251.25800815327997,163.55838485596692L251.71430547932385,163.64737431701232L252.48993895542543,162.7020743638134L253.4228107245728,162.513009829613L253.881166956086,162.7680358880694L255.39193111977386,162.537030824587L255.75636423406306,163.19604255547898L256.4775861312538,162.78513732219065L256.7399401202449,163.13747401057395L257.77040843982195,162.86546381505147L258.14670183469883,163.52457277213813L259.23013415607795,163.60767467247257L259.7007640404846,163.9106398785952L260.5717237673514,162.48041966341927L261.2989501672094,162.60330342106562L260.99905927185756,163.36429528470939L261.51474493242625,163.2643515689149L262.30028894522843,164.33431130111683L262.14823607564307,165.129328836284L263.0788000895261,164.71758922113517L263.34132011394087,165.1651343995419L264.17826724614696,165.251989251687L264.18400928433823,165.86781374897993L264.95932030820364,165.9554139933201L264.96493828328386,166.57125022382476L265.38409794094844,166.70957834617778L265.52753994979236,166.25821461907958L266.1072286787844,166.4780913125374L265.7904099284095,166.78884621884845L266.51943550668165,167.2324993996705L266.7349065842777,167.98866370130145L267.249403700412,167.80657419699912L267.3557541024342,167.30820792365736L267.8752274079865,167.70653193221614L267.57295698965305,168.28944946056419L268.6562664720079,168.55287510373768L268.77038999839056,168.99019533924093L269.3796177597627,168.36936911474493L269.7523617493201,168.89941847157726L270.41765758133795,169.1548151970947L270.22500099575257,169.65378450293684L270.6322578080443,169.9112327514622L270.5869520637258,170.40906768498294L271.26456351028366,170.71190392619923L272.19669429431275,170.57473972314003L272.45673776921484,170.88083572537522L271.99316184297567,171.2869280569473L272.30552251033424,172.04276087239396L272.7693750698924,171.68407816968286L273.13975752718716,171.98944562102687L272.9846288823555,172.61834590834385L273.96753129591445,172.7892304975975L274.38679076335916,173.09439322099712L274.3407249049125,173.54483897022027L275.16530593087566,173.94216651315392L274.9605598922974,174.5239505741571L275.84730561952546,175.09871840420362L276.46046855623626,175.0949027382897L276.5061813218155,174.5497021850519L276.97068603185346,174.28627146671812L278.2718750441554,174.45636322732855L278.16756206939203,175.52310532822776L278.84098539982637,175.34163418317456L279.09630045575875,174.93746448506826L279.7741222447818,175.5616727531752L280.1905326319409,175.46472755710835L280.07721787118294,174.89670112240515L280.44440957936325,174.75265745169395L280.6554154192411,175.2491214104512L281.2663537735514,174.79593537901758L282.4553876299027,174.66000170216685L282.4533269358385,174.20986710438564L282.9675030845316,173.98247753015966L282.97008226952715,174.56291253718143L283.3882722624056,174.83353402293716L283.9016729679892,174.4285813802337L285.1927906202964,175.26443963525622L285.82349468025797,176.69545161935415L286.45151007808806,177.498743476929L287.0134188497932,176.951854665339L287.22345328971693,177.4487037430796L286.8073706520738,177.62781423638447L287.06652973551195,178.1600333455475L287.5305795575045,177.67277772073982L288.2052623923255,177.88388077674597L288.2065030616753,178.28666730198933L289.1402559371743,179.17242467971323L290.01085631491253,179.48992476545794L290.26718587627664,179.13385238970278L290.73324377698617,179.35778966355383L290.7320391755707,178.86021804936698L291.4551518994459,178.98885229289948L292.1276795552296,178.37137159534873L293.268125838545,178.9023060894907L293.268209170125,178.94969375004405L295.18035432983385,179.74056099625253L296.05003958277723,179.78695323605962L297.1408332576138,180.72191710817282L298.1695426276611,180.9463874841592L299.56548606215017,181.52650212097285L299.8715380006476,181.07627375210785L301.0103008640843,180.8513036223764L301.6223872511472,181.21878540594122L301.98977118806806,181.07678900137287L302.9199445341886,181.57498215005427L303.3363867450547,181.35021892931854L304.92858834683364,180.90173422738127L306.1650145492443,181.08123858857334L307.25694133898656,179.92211397065302L308.4460509896231,179.43882030768705L308.5938412365047,179.08373788630945L309.52620543339583,178.55283220498671L309.3799626476904,178.23260660866964L310.1517898831083,178.2819624584568L310.5079740010294,177.97490726631855L311.3398103983134,178.46299938891815L311.9529893149285,178.28716189484624L312.1111546314699,178.64306514359836L313.1375495871689,179.45204773760508L313.60382364030215,179.22858148766548L314.74184439055756,179.55266765348216L315.6126343029072,179.2836361633527L317.2649744577602,179.59875885481864L318.82098489455325,179.52316341461545L319.2851370096357,179.786113522258L320.0084647698911,179.65950650146806L321.5077911078327,178.77909957310106L322.7973688302066,178.2534456038662L322.8466642057215,178.20635161875106L324.0419266826433,177.14745511411695L324.9258729211142,176.92801892662732L325.44186369652556,176.75371195489583L326.8973647652447,175.47238908791903L327.5743346738718,175.1218124629898L329.14631673556096,171.60339488810968L330.2092209155255,169.12416425927398L330.57606815661927,167.7886404087123L331.0577075865465,165.96851966797095L331.2291558453072,164.53683319592133L331.4385962785693,162.98708452946295L332.33449724564264,161.7865507459701L333.1904987859831,159.56749051825688L334.6795670391375,155.56639194422735L335.5776468837942,153.08809925733L336.64213017376164,150.10266745694096L337.1746007884729,149.9301771469443L337.07249281171823,148.9939246945557L337.2878790384672,148.4277469125332L337.0440067646829,146.81539713707156L336.74192098097745,146.10223961794296L336.11674386905844,145.5636483971083L336.38216655991795,144.93875672353758L336.2899601321319,144.22765792432753L338.2683519010928,144.19940235430468L338.4192871304163,143.94048508675112L339.93858294322365,144.08610144265728L341.29558017570037,143.21259415666506L344.0725493682306,142.61591918322188L346.999400006564,141.975714588465L353.530132319239,140.28516519339513L353.9960723067751,140.5993873280968L354.6214434800443,141.01061073738137L354.4047844650237,141.4573463586019L354.55374566717495,142.299860580789L354.2777194520871,143.4560166665368L354.575461765264,144.2651625708799L354.6599504694061,145.28441167828473L355.592732153041,145.7475761574984Z">
			<title>
			</title>
		</path>
	</g>
</svg>