<?xml version="1.0" encoding="UTF-8" standalone="no"?>

<svg
   xmlns:dc="http://purl.org/dc/elements/1.1/"
   xmlns:cc="http://creativecommons.org/ns#"
   xmlns:rdf="http://www.w3.org/1999/02/22-rdf-syntax-ns#"
   xmlns:svg="http://www.w3.org/2000/svg"
   xmlns="http://www.w3.org/2000/svg"
   version="1.1"
   width="600"
   height="600"
   id="za-map">
  <metadata
     id="metadata109">
    <rdf:RDF>
      <cc:Work
         rdf:about="">
        <dc:format>image/svg+xml</dc:format>
        <dc:type
           rdf:resource="http://purl.org/dc/dcmitype/StillImage" />
        <dc:title></dc:title>
      </cc:Work>
    </rdf:RDF>
  </metadata>
  <defs
     id="defs">
    <clipPath
       id="mapclip">
      <rect
         width="600"
         height="600"
         x="0"
         y="0"
         id="cliprect" />
    </clipPath>
  </defs>
	<g id="provinces">
		
		<path fill="#fefefe" stroke="#666" stroke-width="0.5" d="M474.05662934055374,355.06264324384034L473.7926086683872,355.44148252240564L472.6858405833175,357.04945668215487L471.946473812206,358.0819622657924L471.45878329592057,358.99593727643594L470.8323321526856,359.6306792021677L470.7812086697792,359.72316014378L470.7789923504597,359.77049379816754L470.77733011253645,359.805994005508L470.19235684660305,360.81039377764074L469.7015606795696,361.8073727925008L469.1829057802694,362.1508780196973L469.13240359548763,362.23154331987143L467.10107832960534,364.7228440282612L466.9148347525489,365.4731702275839L466.4026535286645,365.94772526200467L465.55358194114206,367.41481121438L464.57733543969255,368.3545942543944L464.5532541137862,368.88702016454886L463.4808532520591,369.6448508664953L462.78348606068084,368.80740586196055L462.60299750949093,368.4081006934676L462.8814248473127,367.66178298944993L461.9596630643018,367.39538646154443L462.04206863049205,366.5928490695662L462.5206963003526,365.8079592388448L461.89345961896254,365.4717534370719L462.3084520599558,364.02000341489435L461.6950552235735,363.364314101928L461.64841218134154,363.36224454761697L461.3862388214578,362.68663254926923L460.2590902140256,362.54203781167035L460.1189034096148,362.27502339644354L460.1209829421932,362.22768680878454L460.1988428633767,361.5196820822708L459.96163137086535,361.331408091672L458.7350139237666,361.31336654578365L458.4194410703644,360.50521537328416L458.06562170231024,360.8455743835994L457.0910438017653,360.67303027449L457.03269693163594,360.6705170949793L456.9551324442406,360.2996112783711L456.9997765827181,360.3489611186565L457.0444194856908,360.3983114526323L457.2287837689909,359.647398735891L456.09450292168697,359.64610858366234L456.14322016005644,359.60076546352064L456.80455403441385,359.17856108257524L456.63861196123673,358.4125596563267L456.08629551406113,358.74461098841L455.0547109126769,358.52276507080666L454.7532652543839,358.7352524938498L454.75527343520207,358.6879092082322L455.0306339618007,357.9881644519511L454.39385207164065,357.8307365466939L453.9597502857754,357.85982515556844L453.1432387654819,357.24446613596524L453.01223267568474,356.74096474356463L452.4709058413142,356.81317226286177L452.75732448384264,355.8409799001445L452.39541488037196,356.09857860624203L451.92339981025464,355.62832417378826L451.06041794302325,356.3988155627118L450.50399273279965,356.5536900012025L450.23579485900234,355.96164511537086L449.30829479213185,355.74574244703314L448.8879062165421,355.14757823162375L448.66223231128055,354.6522389630027L447.95293712448523,355.1095797370027L446.2778624520084,355.136956436451L446.260028961295,354.41297120847065L445.58592043600527,353.99476138347035L444.8036152613928,353.6435307344498L444.1694358779124,353.3931685731597L443.8615724177848,352.58661374264227L442.3156499745246,352.88179103824353L441.5165381846821,353.2538835035461L440.52261835064553,353.2155232842677L439.633857434677,353.48971618258736L438.80818144609304,354.2644693818559L438.1538406512521,353.30303501201604L437.5758775451816,353.1033855053864L436.78602811422303,352.93145961132683L436.36152842323554,352.38206978142347L434.93636641786384,352.2817493634422L434.3931139869384,352.4040037049929L434.4250890341917,352.8082786540294L433.9261062010821,353.00336020040453L433.5639902963788,352.01793323429627L432.59130980462646,351.70983537263885L432.9434702982061,351.3669485660713L432.02677381389014,350.8002104640672L433.1876352783861,350.13094057148624L432.88566725092153,349.088449788381L433.15735919450515,348.3869324255162L433.9821680077571,348.59489604071763L434.6949530315658,346.7476531869262L434.68425157349384,345.76309590186867L435.58439261353493,345.5354510113954L435.8572624290573,344.8222406056846L437.14627340865275,344.5619763319005L437.17110483100174,343.8988490596306L437.9669310807461,343.96431107839095L437.6114908982788,342.8006754865336L437.9398625396169,341.8761869573374L436.8086374835315,340.39887469236805L435.9299996448085,340.01043084204747L436.57429942197734,341.32698493120654L435.9390515193994,341.3508072382309L435.70584683187894,340.9864074273112L434.3813688387861,340.58186281650353L433.94197764971705,340.3879065945048L433.5740664410063,339.52066467762006L433.0746625767074,339.6803897119149L432.6993423991432,337.7100927409466L432.1979873569152,336.61282517309064L432.5091745738655,336.1378186595083L432.5561661174255,336.13951520567L432.72610053881283,334.3667368547145L432.4153291144414,333.1932684215297L431.9487407474759,332.41745217271676L431.27098751584276,331.94250342681346L430.6620031090165,330.85340811631454L429.78209063774136,330.41900057768254L430.3069246110624,329.90385939792526L430.852880303,329.79278435578306L431.8783519068158,328.7975590691083L432.46119886203326,329.30478536800507L432.64087319352893,328.2438039502364L434.10363996584204,327.8935637388296L434.50821130044994,327.4694734555805L434.2661092812808,327.31829851433696L434.34564097462805,326.4316137103915L433.9098188541046,326.4157317890783L433.679929462788,325.60081146097383L432.5629630327255,325.1690028353968L433.4222991199634,324.5713894840787L433.25281122193064,323.71122604060537L433.54371636812107,322.52373238135607L434.2002845570519,321.02925676728205L434.06804288354056,320.4432014821423L434.4791162740152,320.1853425885847L434.5080670801695,319.3916248607677L435.46697578368276,319.0234009944783L436.30106915366946,318.2000195442158L437.79826004159656,317.99465911241913L438.1930047386933,318.1873700781674L438.31942208934754,317.3379680065922L438.61951844435976,317.2187353497795L438.52138716944995,316.05245287570955L438.56685683747105,316.1016128687845L439.46769883418835,316.0524984374866L439.63005662739187,315.5129162542771L439.1031307288432,315.0540742426162L439.32768216984755,314.433771280963L438.8058999390066,313.83280423452993L439.1535680307144,313.7153867042996L438.97625637830635,313.0799335136476L438.78685933622876,312.76435530797573L440.3189214584317,312.01547713424486L440.9065597083435,312.13275229790287L441.37493301603456,311.65234692507863L442.0826992721603,311.41847627293345L442.15597730619515,310.7450234622468L442.72749740849696,310.36365348136L442.7549415339349,309.65283712877294L443.2519114143781,309.6720582392895L443.5716427466838,309.0674912922908L443.5238504383427,307.8554190873215L443.87223162771227,307.73843727064394L443.8051482148685,307.02392737900806L443.41816277328076,306.60549595228855L443.5211095741538,305.17380489768414L442.9388220115469,304.89024228116983L443.1016011724806,304.36259593043474L442.5788698551406,303.7610354089117L442.7060749874715,303.2319976791997L441.86988378864487,302.7489961647076L441.21290248877244,302.85440983906415L440.7370700433614,302.2549100392379L441.2115007268952,300.39824811635737L441.1757834531396,300.08838785177323L439.7822367983668,298.29138100359273L438.83271172032596,298.2557155995213L438.3156459964671,298.7347332767822L437.44531737385694,297.84808806740745L437.3700979431396,297.3113710683221L436.96994402251653,297.20165445215116L437.10306501144555,296.4946629653255L435.9243784282462,295.5614188654405L435.3304895467049,295.5397168388354L435.14797980004516,294.99914038668936L434.3601958223963,294.74510842657793L434.5203621961057,294.2644435069274L433.6497439088359,293.3312655389299L432.90396214233283,293.22144712032843L432.97695546568303,292.51216388665983L431.83016939913523,292.29331506944266L431.5661109683372,291.34663139663326L430.03379122525064,292.26559400747715L429.9086594316721,291.41882610608656L428.89635728107913,290.39881067394566L429.13317447016493,289.06632210570456L428.4401646600842,288.78129500375513L429.132072632416,287.72556662766897L427.96330498979546,286.71226802598966L427.44335446229945,287.27578766828515L426.99584656956586,287.11810771899786L427.2730061831934,286.3326498730882L427.57393826511736,286.2480383794905L427.8313068242799,284.6551305074178L427.7885380214473,284.5112846657917L428.52822388336125,283.4689105235834L429.24979984487084,282.9599624469365L429.2255626582022,282.2828155195835L429.6584829574317,281.5028993283663L430.2968796419446,280.3149224804302L434.05454318898495,279.42775116791034L435.18589548544867,280.18055573320106L436.3410344489513,278.9648479871826L436.57508378743944,279.42432111450375L437.28546114996425,279.27242542194693L437.70059127345087,278.70629816408217L437.03406553762403,277.66126211051096L438.02700872122097,276.66552266842154L438.839107626609,275.40223451636086L439.1752669072816,275.6876822366518L440.1734378950154,275.8555771266937L441.09796088847395,275.43949485843615L441.0257065355536,274.81970267023945L442.2100107104603,274.18823840279777L442.7799243360006,273.6759886869595L443.98161579681573,273.85267597045777L444.7608954011986,271.96035425456625L446.0696270162947,270.9432589804283L446.1912385741633,270.2834521852406L447.0013199076774,270.0897534866355L448.2939092035326,269.5118483202858L448.5788043661705,269.8791877762307L450.42006119055713,269.3713257055112L450.58650955231684,268.8083761243225L450.2629046741231,268.2138372778719L450.70219108144,267.42451096628247L451.8142831976904,267.19653087219814L451.86478445920454,265.95245402783905L451.6269135168138,264.4237244096381L451.73522087502727,264.1195506363114L451.01116830686493,263.3307350290612L450.5863886294919,262.5540960989727L451.33840507990897,261.4688497525199L451.27121543479717,260.75407542180267L451.76662978453356,259.7890928658659L452.58120041153296,259.54921287603946L452.50695073070017,259.012141202102L452.01230110585806,258.76656082995646L452.28778977084465,258.1962258859327L453.07989429685927,257.33840355292443L453.0365822206054,256.04305388156695L453.48413043812593,255.9782656887088L453.2557526006472,255.3874106366256L453.4355738897973,254.81324342755158L454.3647586852091,254.4478494360735L454.37937941035557,254.09241762521413L453.6721843553762,252.85289439141565L453.99006450769275,251.26379335572818L453.9148972162453,250.45372084827306L453.2220187274056,250.02190515729268L452.78873041462214,249.4227616729347L453.0385055367543,248.3174016724214L453.648104700266,248.4372097132563L454.37627531203,248.0160855877915L455.01098232456087,247.23521911870856L456.0966139049326,246.92410832501662L456.4324342382656,246.0954688711447L455.69072415944504,244.4982012852754L455.03919691552545,244.21022013194155L454.6706289637071,244.37305947194926L454.1813856725885,243.94949996008526L454.62588515945754,243.11330861364118L454.09554837817836,242.51007906314754L455.0905749817978,241.79145120301655L455.8122960864881,241.56017242084243L456.2535002517319,241.98193723693356L456.9589681421895,242.14182047085072L457.8109053095293,241.10937545176787L458.43653273344296,239.4386239839303L458.43852536429563,239.39123901231758L459.5076242588499,239.53128735281678L459.55785919140857,239.48594511952922L459.6060879700665,239.487987922893L460.2114309920087,239.73916212285147L460.2596565291909,239.74121329254422L460.585804058075,239.1735952929663L460.86228627702747,238.63948597714096L462.714451799212,239.39546454313083L463.79921851493543,240.28509207136412L464.570042388687,240.05759292771972L465.4754804400053,239.24275183503525L466.02596984676836,239.36191392167558L467.6344729326888,240.9523029494551L467.97794617358556,240.29109854968817L468.49218594130525,240.13603696970094L469.506677032818,239.06589507681383L470.3483697684103,239.42431003848492L470.5873499944089,240.01669597024406L470.94932050978525,239.7601199669352L471.9701550123514,239.62854543396324L472.1641417263711,237.76210984679852L472.7634750953081,237.8726149354457L473.6120752370165,237.2944161930672L474.76197747715696,237.78670974004984L474.88053596980103,236.272955208445L475.7893769127138,236.4932531907013L476.65221675702196,236.40301588931152L476.57675674463155,238.01372330191546L477.2217799291707,238.43569496040536L478.7184250459577,237.9722302673086L479.67660738837634,238.16022574510694L480.5263045357542,238.5925435627618L481.547900459934,238.46356683629796L483.80119301332405,237.37386509833476L485.6292433793809,237.33286207616783L485.8586480228711,237.83086917133176L486.3234604311938,237.72323738380337L486.96517811904664,238.19424116100691L487.1366990806516,238.87940749595742L487.59730312308284,238.85482540914023L488.26055718547843,238.88790339621363L488.37862294294825,239.42801552486486L488.9275020320655,239.81164407546248L489.9605117260404,239.45995471999623L490.0487526776658,238.66900654222584L491.3330572558739,238.37784334061158L491.9481526551915,238.40912144691436L491.8595124126092,239.20002295361104L491.85710060432797,239.247387791172L492.3363287202575,239.80606137534784L492.3916481496799,240.61618858807748L493.62487542543664,240.37070423266923L494.2878625796642,240.40484312901373L494.35257427523936,240.0876265971969L495.62550250084166,240.2484980420698L496.0491879611859,239.77187415527652L496.6566384372152,239.94600756600954L497.33148400784086,239.75571338978492L498.4998655677363,240.75506716884493L499.24981291350593,240.97276597162872L500.5622646838942,239.2495503778644L501.3839493005104,238.35538140794796L501.43219254804865,238.35795962574718L502.83534151426375,236.78280299203598L504.18390241622706,237.354288559896L505.6246954290557,238.00255412549348L505.9331304293479,238.1143860832526L506.62983124084917,238.4256242150295L509.15685829807114,239.53875250082186L509.8603059546656,239.7203692084952L511.3914574398897,239.80597402570567L512.355944402495,239.86021778538654L516.0088120460591,240.06790470271716L517.3328367488352,240.17968941772656L524.3966674200201,240.59388636770169L524.4689263575236,238.36523637476387L524.5922785342054,234.66692899140781L525.1682023294906,230.90070304615358L525.1710250090716,230.85336539822006L525.2606443471643,229.3504074630752L525.767834381143,227.76551098194517L525.7724639177837,226.87508019702713L526.6084217667252,223.25544313448262L526.4722482030708,222.89102298926508L527.1945667475665,222.80368836906666L527.5215812961537,223.22711115549038L529.2319792226006,222.87905380475755L529.7307439784865,224.07317055000382L530.4392583161543,224.21127486612554L530.5144737662034,224.57215288559792L531.770753110974,225.08836502504855L532.3434921927525,224.86221492355457L532.4759550913725,224.28838640417243L532.9498184269255,224.09187641051594L533.9459272937265,224.68781834125392L534.8024066510126,224.78839954496905L536.20039127449,225.36242963295123L536.7249823581968,225.13391991081795L536.7086897962243,225.3942115207545L541.4526018848914,225.69413694749204L546.9491797303423,226.19168005560314L546.946861806534,226.22716833679954L548.072116370176,226.30083271826402L549.5115365023596,226.21734800051314L550.839344519231,226.3527313839548L552.5726685278269,226.42060703092176L553.5524795324311,226.3079739823814L555.2007301215419,226.91789998458285L554.8956305706804,227.65773945050523L554.5037660597957,229.68687653020066L554.4232752535149,230.8815350851569L554.1241146022375,231.5386683042779L554.1246665480098,232.2516349952079L553.4585213977697,233.85847187422755L553.3441262242953,234.65878746570664L552.6603695549561,236.53787315379412L551.8116535039101,237.81192510309984L551.8180096459371,238.4421229423525L551.2942185754216,239.39340766588765L551.26186849972,239.87843601180643L550.5819285783343,240.99763600071506L550.3631020343685,241.9218086135719L549.8431904187744,242.82599910422604L549.0271313868724,245.10091557452202L548.3647069531787,246.70881638765934L547.6839288256431,247.68582343762864L547.0876108013101,249.03685360716227L547.1855761163858,249.93450436009886L546.9135058183235,250.95041859504192L546.3783146628664,252.11543710261415L546.2092326925497,253.22133445352318L544.8185154723867,257.3368750209599L544.7620189415697,257.46389870242155L544.246074935161,259.0938541428904L543.6473471003275,262.00183446461284L543.6229099045652,263.11724353135196L543.7222704512648,263.25442353430725L543.3544678148544,265.0248287773673L542.9029956103051,266.42145145080735L542.2184787187832,269.19331242556336L542.1985417360681,269.50097724212725L542.1402643545634,270.4003058991555L541.7547645733836,271.71811351992244L540.9911228174159,273.32047544874143L539.6330382308162,275.5976930135271L537.4893920930626,279.1322272513323L537.4405955439913,280.6500317176101L536.9192039900072,282.446676989869L535.2825227141634,282.02212531235534L534.7250731770572,283.6503760881188L533.3008457231324,285.56879739318816L531.6544280768219,286.8560133033486L531.377172101056,287.2783492942636L530.0635132308469,288.2304769431829L528.9496364207682,289.0527567484444L528.1397291829333,289.98902068997995L527.6608715424483,290.39922057016526L526.7701468210687,291.1050735567901L526.4364298171234,291.4886329570041L525.2749943966595,292.5347020871289L524.6733210651399,293.21101860460857L522.6616052299315,294.93108518273664L521.9260170047274,295.46908964233484L519.2512328371934,296.55732357299877L516.8034114393466,297.2568011601903L516.035306500555,297.3545212571264L514.5010806995521,297.93061063093757L513.3276802564494,299.0743729620175L512.5718913792459,300.0048492862015L511.5667141654545,300.9330834771095L510.5092156201139,301.9535901792014L509.75466433393706,302.8846177300652L509.1665741789153,303.6114073639695L507.8225291528653,305.10328885956613L506.29994132196896,306.4074971502537L505.98673118192255,306.69879545003306L505.13682775251044,307.4590565704469L505.0894690654375,307.4564309240786L504.24979243695407,308.2530603304742L504.12627062383007,308.55497359597115L502.90473838461804,309.8295216790509L500.90216389963837,311.73865843540466L498.7624348186522,314.4724369108009L498.7598859086112,314.519790498881L497.2654827594971,316.3154818076063L497.2629517840685,316.36283537508064L496.97447219131834,317.10724305299436L496.07704312823364,317.94983595626445L495.81277599005057,318.24446476168526L495.1537014508807,319.28984795520125L493.8683132019252,321.00272022892557L493.3635234016847,322.05645265156477L492.98432205643667,322.7488139196348L491.83318330921827,324.6472928565402L491.83071654461406,324.6946448568308L491.04510312400146,326.39867237061867L490.8527937546939,327.37387398445355L491.05152114343196,328.32187726008283L491.4332496575191,328.4722860036699L491.47855526563245,328.73577202829034L489.2547740824398,331.3505190892265L488.8298883860795,331.8152759054526L488.8274556674015,331.8626247422493L487.5217892885843,333.1843435792112L486.27785450808983,334.2366252830102L486.0576466717349,334.62895921196196L485.1421975100691,335.9592905577837L484.62846114139575,337.27437484860286L484.5814841208685,337.2720117266883L483.9291164263162,338.30724574095655L482.66816161417364,340.70050682874495L482.44684960474467,341.36582901277916L481.8625931475412,342.00125986461734L481.5740518543797,342.84124920579256L481.2592245087363,343.2646682688391L480.8455228838855,344.50189221385426L480.3293385987175,344.9628866226095L479.3620896125683,346.48145294526927L478.86486369215487,347.524864005831L478.23835256438156,348.3366027094143L477.4185851802371,349.9931760573413L476.82730542620357,350.8186510687416L476.35069777513775,351.45992753876794L475.9389994558042,351.97388966582486L475.4918448380796,352.9843836455832L474.76170210643863,353.79156592538203L474.583695018531,354.32868053530314L474.58199814834734,354.3641834963564L474.43098512183116,354.58233361170176L474.4287244589609,354.629670711563Z">
			<title>
			</title>
		</path>
		
	</g>
</svg>