<?xml version="1.0" encoding="UTF-8" standalone="no"?>

<svg
   xmlns:dc="http://purl.org/dc/elements/1.1/"
   xmlns:cc="http://creativecommons.org/ns#"
   xmlns:rdf="http://www.w3.org/1999/02/22-rdf-syntax-ns#"
   xmlns:svg="http://www.w3.org/2000/svg"
   xmlns="http://www.w3.org/2000/svg"
   version="1.1"
   width="600"
   height="600"
   id="za-map">
  <metadata
     id="metadata109">
    <rdf:RDF>
      <cc:Work
         rdf:about="">
        <dc:format>image/svg+xml</dc:format>
        <dc:type
           rdf:resource="http://purl.org/dc/dcmitype/StillImage" />
        <dc:title></dc:title>
      </cc:Work>
    </rdf:RDF>
  </metadata>
  <defs
     id="defs">
    <clipPath
       id="mapclip">
      <rect
         width="600"
         height="600"
         x="0"
         y="0"
         id="cliprect" />
    </clipPath>
  </defs>
	<g id="provinces">
		<path fill="#000000" stroke="#666" stroke-width="0.5" d="M432.5561661174255,336.13951520567L432.5091745738655,336.1378186595083L432.1979873569152,336.61282517309064L432.6993423991432,337.7100927409466L433.0746625767074,339.6803897119149L433.5740664410063,339.52066467762006L433.94197764971705,340.3879065945048L434.3813688387861,340.58186281650353L435.70584683187894,340.9864074273112L435.9390515193994,341.3508072382309L436.57429942197734,341.32698493120654L435.9299996448085,340.01043084204747L436.8086374835315,340.39887469236805L437.9398625396169,341.8761869573374L437.6114908982788,342.8006754865336L437.9669310807461,343.96431107839095L437.17110483100174,343.8988490596306L437.14627340865275,344.5619763319005L435.8572624290573,344.8222406056846L435.58439261353493,345.5354510113954L434.68425157349384,345.76309590186867L434.6949530315658,346.7476531869262L433.9821680077571,348.59489604071763L433.15735919450515,348.3869324255162L432.88566725092153,349.088449788381L433.1876352783861,350.13094057148624L432.02677381389014,350.8002104640672L432.9434702982061,351.3669485660713L432.59130980462646,351.70983537263885L433.5639902963788,352.01793323429627L433.9261062010821,353.00336020040453L434.4250890341917,352.8082786540294L434.3931139869384,352.4040037049929L434.93636641786384,352.2817493634422L436.36152842323554,352.38206978142347L436.78602811422303,352.93145961132683L437.5758775451816,353.1033855053864L438.1538406512521,353.30303501201604L438.80818144609304,354.2644693818559L439.633857434677,353.48971618258736L440.52261835064553,353.2155232842677L441.5165381846821,353.2538835035461L442.3156499745246,352.88179103824353L443.8615724177848,352.58661374264227L444.1694358779124,353.3931685731597L444.8036152613928,353.6435307344498L445.58592043600527,353.99476138347035L446.260028961295,354.41297120847065L446.2778624520084,355.136956436451L447.95293712448523,355.1095797370027L448.66223231128055,354.6522389630027L448.8879062165421,355.14757823162375L449.30829479213185,355.74574244703314L450.23579485900234,355.96164511537086L450.50399273279965,356.5536900012025L451.06041794302325,356.3988155627118L451.92339981025464,355.62832417378826L452.39541488037196,356.09857860624203L452.75732448384264,355.8409799001445L452.4709058413142,356.81317226286177L453.01223267568474,356.74096474356463L453.1432387654819,357.24446613596524L453.9597502857754,357.85982515556844L454.39385207164065,357.8307365466939L455.0306339618007,357.9881644519511L454.75527343520207,358.6879092082322L454.7532652543839,358.7352524938498L455.0547109126769,358.52276507080666L456.08629551406113,358.74461098841L456.63861196123673,358.4125596563267L456.80455403441385,359.17856108257524L456.14322016005644,359.60076546352064L456.09450292168697,359.64610858366234L457.2287837689909,359.647398735891L457.0444194856908,360.3983114526323L456.9997765827181,360.3489611186565L456.9551324442406,360.2996112783711L457.03269693163594,360.6705170949793L457.0910438017653,360.67303027449L458.06562170231024,360.8455743835994L458.4194410703644,360.50521537328416L458.7350139237666,361.31336654578365L459.96163137086535,361.331408091672L460.1988428633767,361.5196820822708L460.1209829421932,362.22768680878454L460.1189034096148,362.27502339644354L460.2590902140256,362.54203781167035L461.3862388214578,362.68663254926923L461.64841218134154,363.36224454761697L461.6950552235735,363.364314101928L462.3084520599558,364.02000341489435L461.89345961896254,365.4717534370719L462.5206963003526,365.8079592388448L462.04206863049205,366.5928490695662L461.9596630643018,367.39538646154443L462.8814248473127,367.66178298944993L462.60299750949093,368.4081006934676L462.78348606068084,368.80740586196055L463.4808532520591,369.6448508664953L462.8569595835568,370.55342395980045L462.2603455393045,371.64110507206846L461.65653131014665,372.11209276159013L460.9695609599705,373.1484777990938L460.57049946443203,373.2138000569975L460.09105186057343,374.04611122487114L459.53492521791395,374.507637020401L459.5151816335245,374.9571932614845L458.86035361571874,375.2840844440028L458.7962741650048,375.68428054810147L456.9934035023085,377.5259597050106L456.35495541605883,377.75914071266675L456.07440999817766,378.6003815665217L455.4558372134709,379.19009423115807L454.45187077148154,379.8227165722061L454.4831874562461,380.1795733394157L453.53409321851166,380.62514275891573L453.312290886219,381.19642337219267L452.3077565778643,381.8650845438134L450.34314778130806,381.8778740207114L449.43021624310904,382.5984814374037L448.8548604729335,383.5938107115388L447.8817819458111,384.66771573418885L447.16513290065166,385.4441916798221L446.2680372847866,385.81066901721044L445.69924426199225,386.676289326487L443.5453596703738,388.0236935755661L443.2198877119333,388.6268027912327L442.28093213416673,388.9096009253878L442.234616097865,388.9077798885065L442.12990299395284,389.2116560226146L441.32503417226553,389.63025752067244L440.7461973711844,389.6076901196996L439.69530274603216,390.09998860328227L439.12689299400347,391.0138225450172L439.10641607834657,391.5460402920627L438.1007735343916,392.0878560644414L437.6610149979326,392.37902744827807L437.40679192832863,393.8853406564721L436.76410535836567,394.03860565447485L436.7178549787292,394.03685523788363L435.65369179763576,394.9323326227369L435.0438631168667,395.7621403790321L434.66406927529204,396.6361151663109L434.1193910894476,396.97109421522L433.34391061000315,398.23307710710606L433.2861647490009,398.23094390558174L433.22206828280355,398.7140584965358L432.38412768024136,398.8608304743166L431.6208429735467,399.8156643173647L430.8725377157609,400.3686006338387L430.6441872556734,401.2483017843451L430.09715497796884,401.6784206322092L429.5212961784557,402.5929720727561L429.35740935126256,403.2974082670988L428.79465058593325,403.8573317084746L428.2100968346494,404.06140908328433L427.0586845692369,404.955803623989L426.5832300944321,406.0044192784457L425.47891264753184,406.9008721224583L424.91035768413883,407.99370675427866L424.20305006750107,408.7740588963619L423.56523363422076,408.88229006625625L423.03873633940736,410.118770043699L421.70245703829926,410.7833814498855L421.0479366185141,411.7435210801814L420.25366844150966,412.071878755017L419.74683427693355,412.76496599590934L419.0981257671721,413.22856887873115L418.87601352138006,414.0258435514494L418.24925069351366,414.1826490946345L417.6813445326168,415.0040888503998L417.29736084031373,415.1335127169983L417.29581697286267,415.1807898522401L416.7815483417721,415.7792803956412L416.142191776778,416.3382825975372L416.0185281365981,416.96133069044333L415.6278934995446,416.94872817440637L414.59570339157983,417.5781467901289L414.42790522479584,418.1524785904111L413.9398882348063,418.31440321207066L413.5254697592301,419.05837805642426L413.09204775035545,419.31676996399347L413.0137893314724,419.97674511710477L412.2306030611477,420.40165656578324L411.72642577827065,421.0956341766849L409.47155403227515,421.9605036011915L409.2617415258711,422.4390372443347L408.06674631330844,423.6091804702961L407.66618355421303,423.95192474001425L407.65020658115577,424.48363744641176L406.7301740970274,424.55072053262796L406.38716277396827,424.8953016117258L405.1053286178841,425.56700611123216L404.4528757944032,426.3047383686713L403.67483463801466,426.6368761039187L401.8722022186444,427.1172393587739L400.64797674962836,427.83935712869976L399.9955324055745,428.62508113588467L400.02911952682746,429.0634851608843L399.35109647237476,430.7825424429154L398.7183889306519,431.2970180403661L398.123753757354,431.6825940979776L396.8311914039524,432.9004136829419L396.34600864512686,433.06461563459936L396.3450533619645,433.10005242131507L395.4158503479241,433.6070521877359L395.07446378364364,433.9643840710005L394.2769437686226,434.6997320200076L393.9737290079099,435.35364029751884L393.721912359079,435.7961565402874L393.1344138024366,435.9580730615897L391.7161675718796,436.85504080765384L391.2227111973121,437.37421852503303L390.54540364404136,437.48697232950536L388.3485979864282,438.49549927666646L387.6038864567606,439.5052076847687L386.47810036972265,440.2339841824238L386.08858514408405,440.7562780215703L385.05704246459106,441.39319524426105L384.8534991388195,441.79006268339344L384.03588730872667,442.08970091284186L383.68530593468665,442.43589605049056L382.41516182921976,443.06790782726387L381.34453940311863,443.97660419696035L381.03598104212716,444.5011764494866L379.535902661979,445.27064950636026L379.2857541639734,445.7493866170192L377.2917442902415,446.73319397779005L375.2876104952868,448.249315176431L373.54319964058584,449.4056688615477L373.0390827439469,450.103860263171L372.0328186460265,450.30771616628465L371.4003804490445,450.61380907559L370.81907786188117,451.21624202205686L370.02410398548767,452.27504625941623L369.45460016403234,452.2992971295296L368.14753126432504,452.80534197055704L368.0943439676055,453.2057719158755L365.24677984707745,454.00244072136803L364.61409238816793,454.39229561000855L363.05888496634844,455.5095161251328L361.71217051292257,455.8046037245946L359.5076518977589,456.4280532116822L357.5693164747679,457.5056965602766L357.03881421112726,457.9928893299525L356.6980762599507,457.9874295473398L355.6299451208657,458.72593694189607L354.8663831626857,458.8910926999101L353.5111749843868,459.8854134427752L353.0790973981227,459.9261303959496L351.2986623388801,460.56084045303055L349.8735728007608,460.18646201629093L348.10394596486157,460.0794080501387L347.23779249317323,460.3274040868925L345.94658914097926,460.0980131743861L345.04538499483505,459.5435708678026L342.13971060126886,458.4928800399297L339.5662875959745,458.06196893088577L337.8853433412157,458.0436270006893L335.1572485796495,458.23979911899414L333.33677679680255,458.57629595695454L331.6043450108924,459.26855021354265L329.6289857701506,460.58502750239745L329.5835872577527,460.5846485133404L328.71566332032364,461.2383404862281L327.40999744081273,462.7855722129974L327.0299321697183,463.53778963521484L326.484328523728,465.2208157403625L326.4380206795056,465.3502439066052L326.38503520704666,466.3762121366674L326.9018728829618,466.95814360902307L326.90160396655574,466.99353132320164L328.0971515886665,467.67521259622595L328.6131357008658,468.30453362828644L328.6049341151771,469.31887676943404L327.46180946715447,469.26263813880206L327.07244304042644,469.8375889117867L325.3507829634593,469.96636699571076L325.0691301277495,469.77564491921936L322.35562510972795,469.2266871597621L320.20363811959203,469.35528237182007L319.87683683209013,469.08214709584524L319.1081210621078,468.85380489892873L317.53881698548275,467.91383733723774L315.10690742548053,467.14768005188625L312.9669179399713,466.83249137780365L311.720657411232,466.8281460367003L309.62396506951393,467.08134286690336L309.5786497178648,467.0812199608971L308.00282015927235,467.5727384309291L306.75522179560016,468.40762189587235L306.6069888923477,468.94991704874315L306.70806710971885,469.3865145867011L306.60575549104294,469.6104190532264L306.60566739266443,469.6575968496097L306.5143640854312,470.05843522642783L306.4682887208171,470.4947312968792L304.9831975135712,472.22594986718013L304.1224802869778,473.0621090750319L303.88390069972513,474.04056671521585L304.7420123735758,474.9259607276148L303.88268225524047,475.1489389289631L301.98382087411653,475.06482591055317L300.9779521621269,474.61634479927875L300.3109495649794,474.8874182951776L299.8361810332311,474.7459157888338L298.64900765361307,474.16839702027073L297.40546034501665,474.34596283741354L297.31529344542463,474.7115588883741L296.41079624370485,474.57086802897993L295.9243332112767,474.2648212975779L293.8774440947207,473.9611956296758L292.6433318233503,473.16169941863046L292.16705742816134,472.5848965067827L290.77359226223416,471.75096659594936L288.7256287149286,471.70973184198067L288.20400330961286,471.3576347031243L285.7682110179687,470.6118035564881L285.38195240426484,470.2595571603624L285.3826835875851,470.4364659589039L283.52547342694737,470.22054054693876L283.24311836376285,470.35160320646446L280.56881299542306,469.78735995164527L278.6543536936826,469.5742955572075L276.88575943214295,469.19617706214797L276.6038777820667,469.3749549148418L274.12024860456563,468.8142877752448L272.918627108931,468.6463488821395L269.48060374533424,467.8722130009804L269.5232683339646,467.5651434995582L269.18666683290223,466.6361238906835L269.46300637796105,465.83152157093383L269.2642060927724,465.12538168220783L269.78481582777863,465.0265190617235L269.733426957868,464.31906837901255L270.63897561866844,464.1344716505797L271.1100853361544,463.50527033855576L268.72196927541404,462.7703992261189L268.33315777246105,462.4198665004726L267.0387649584008,462.30186986453486L266.89106778670464,461.0642327674916L265.729687174579,460.67404381252356L264.88199316165185,461.03635822345063L264.88725157191607,461.56732604504805L264.308581363234,461.57310410096846L262.14759556597215,461.1116952969161L263.19144581110385,459.9914142586472L263.4591945961867,458.4308100708185L264.4703990990756,458.467750527397L266.37190660503006,457.77648810410216L266.3664276355033,457.1982066061546L266.79481410174566,456.8400839327197L269.4303105588825,456.7692004266945L270.05561035511136,456.81108345790307L270.2350114051733,455.1688896149437L268.6443821671599,453.9785277117534L268.5357747078589,453.2711902437742L267.91068470785825,453.32400026076607L268.1374081549412,450.70104499960155L267.4048970462191,450.2590231295202L265.53082226778844,449.5210269626019L264.94367198318866,448.8655341495715L264.1369715456349,449.0506911273237L262.83656544899236,448.83968599058716L262.01807329637336,448.97821633015695L260.58098884543585,448.7813024690263L259.80496745710064,447.63275486303803L259.1712818504953,447.0140905103192L256.19669140916835,446.96678241076455L254.4653819347252,447.02393354453L253.7990177108418,447.481271989828L252.45481664146456,447.49897260138135L248.63073550068833,448.5794971868155L245.5959386726635,448.25851992010274L243.96730665951924,448.28378975627436L242.84911831713094,447.4630931259435L242.9003151927954,444.9702574923051L243.87077172378346,445.049322484109L243.90651531614287,444.4227623757648L244.38463520268687,444.36802081953726L245.78613003564078,441.28705355165346L246.81872297777585,440.11379729087105L247.27459994212612,438.51213188518363L249.0674791041825,436.0758226593464L249.11081838149983,435.1062971302803L248.42478361744838,434.31261840773436L248.4660881551801,434.00478721687966L249.41707228701438,433.3176317808835L248.8235808258737,431.8134354073188L250.38874538117642,429.97135087483747L250.4680572888704,429.08382510576735L253.12519179070173,429.0953043447871L253.64441003640394,428.50939753510374L252.85018639386118,426.4749267263454L254.5772393697108,425.2941773521292L255.6782329152299,425.3276677524959L256.1213370268883,425.936888451875L257.5783654576413,426.0493573813082L259.1795500933657,426.7517786224075L261.305017650508,427.26006711428624L261.86651423632173,425.1145903549782L260.5138662957769,425.129246044879L260.5465741345629,423.934959854191L259.9517239267384,423.04311875219474L258.0572731737747,421.9180394494703L258.967434010498,421.2336211886567L259.1458245189561,419.7655241087481L258.5941393222527,417.72631080512633L257.26874917240787,416.4056459920238L257.34059894331244,414.7137494497259L256.55361399011485,413.3395148013103L258.0498757356265,412.4347373225212L259.06072334674934,412.29298725102944L259.8136647747687,410.68781666019675L260.3139167158268,411.1671870525739L262.06045628584326,411.9880591175195L262.58828148202537,410.740675519363L263.19937113731345,409.71719279342597L265.3884439126465,409.8728813426062L267.0379032517113,410.21221657987024L269.5602848507194,410.3673967009224L269.9471902530299,409.8319069039704L269.06302212550463,408.76306781698906L269.6784439834059,406.6286924934601L270.35709171764313,406.48109298873277L271.31794063293125,405.5861199708823L271.94982445910017,405.3208954183442L272.48578762709315,404.5596639578594L273.4581404578891,405.08470397280865L275.0260537344764,406.76506097823733L276.2387395644685,407.1945139938033L277.0633932269924,406.43212723636395L277.5007473578987,406.3465655458282L278.267449366259,405.4546749512459L278.94589687041247,405.178570616554L280.30510728585665,404.9934412096371L280.69488828013885,404.5891277535951L280.49454382382623,403.785782473822L282.34043979112334,403.9537111303166L283.348598432214,402.52929653635647L283.3444996097031,401.64202002844377L282.2346126137356,401.19774375292013L282.41624806053085,400.5816351661002L283.0029770099089,400.17655729583197L283.48063139399903,398.6125511872782L284.50972066328757,398.9156177792867L285.084869489194,398.380754519364L284.74865734128963,398.07452326988516L285.9095878892647,396.63807032618354L284.8781365219706,395.89676658661483L285.17710380691216,395.528698509197L284.19137507293806,394.775540214874L283.6588015626211,394.6004060828116L283.4174916665958,394.92101245894656L282.446701767564,394.9729336729326L282.96857333345383,392.87583153163007L283.84877717132747,393.1321447037625L283.79217216750385,390.82463916158633L283.6382984560785,390.0678760119496L284.0740441820742,389.13092146348635L285.97389665951476,389.38344194921166L287.2497994251996,390.05334225283116L288.6138658325813,389.46885437801154L288.9004282051379,388.53294151163783L289.53641601064265,388.2114758020478L291.82920959453514,388.0753765364024L293.1955141018066,387.89500867734466L294.2727388476759,387.94048802336806L294.51581963863833,387.84542277132033L294.5594816761891,386.06989106366524L294.7538909802955,384.2822035302215L294.207070581419,383.0874358208589L294.7973948432658,382.2815572119513L295.03929886892524,381.0381916349892L294.64409181252506,380.5888852989076L295.81564654423784,380.0545977373099L296.05698256850593,377.8285413566291L296.8926162599757,377.11734254383674L298.94862608184593,376.58336516151246L300.029137973155,377.1160126412598L300.3195254160862,377.4712218302027L300.71451913779555,377.1516025338897L302.61990336541635,376.7972790999538L303.7480121382224,375.64976835714486L304.78150938124054,376.2666777467702L304.53949820240166,374.66790457739637L305.9004394718032,374.1370233415553L307.2258351949963,374.13941775470613L307.7161249544169,373.20498122836125L307.71622552818155,373.1576165087109L308.997336797241,372.4027147418411L310.66016682761,372.58483353452846L311.1037819465035,372.05329231202654L311.8940860809048,372.28078275670714L312.82721208931434,371.5616128391021L313.45495025801466,371.7059833838105L313.5147932111259,371.25621539816643L314.0022983138466,371.5659488151115L314.24903603854,370.9511275636072L314.9830608957674,370.72907886859747L315.18425483525584,369.9246417346577L315.62615867517536,370.0212522154535L317.3907093719454,371.0003224028175L317.53205796683494,370.64573784439654L319.44792805368365,371.46074029005376L320.3822330888473,370.8382290017271L320.14153199663446,370.1737211713378L320.33722059377266,368.4813135501794L320.7837648814831,367.7732559180471L321.27216241964317,367.906352140032L322.22280748622126,366.7158603267817L322.4719167790547,365.9949304392473L321.9745821668554,365.3760182079552L322.7218620675213,365.15556951212176L323.41384742809095,364.48484035669287L323.8634907931555,363.46914563656856L323.36239619827177,363.41852029934404L323.0756811739812,362.6586393517101L324.16685784362716,361.68258780480016L323.9737513011016,360.88768975632195L324.3776907668758,359.8124371657276L323.0076241302575,358.6545063642618L323.3975593762615,357.93438341201227L324.5341594533645,357.3732328888661L325.33891683978334,355.8623855169853L324.64807572439247,356.0708955736642L324.0083318306484,355.62830739060763L323.2732764534872,355.44584792189244L323.13350869873716,353.5257501729993L322.7947291986539,353.4762318984687L323.0525966467079,351.5230138806664L322.70274058017793,351.343107997444L322.6144222827358,350.48951272085844L322.95653077535115,350.0532664053046L323.0128107065692,350.40906219094586L324.0917551648434,350.0605688502107L324.7381626852248,349.66204558698587L325.4281574905224,349.74971547979214L325.7672489812202,349.7994817771268L326.6635870024893,348.86988485120327L327.01383874408583,349.0027878549872L327.6499145699101,350.0383475402666L327.1972529263798,351.1012806682545L327.4884166691439,351.28117727284473L328.47255145443563,351.11099021468937L329.1199178343621,350.63031879205494L329.46924415982227,350.8463833563506L329.2645447253511,351.5674658879668L329.79910214965565,352.01015466762146L331.3306062839677,352.11774416712433L331.9134778118074,352.3478951308527L332.2683323036513,351.9007933825435L332.324234391177,350.87050935157845L332.8191741938628,350.48392740872123L334.2940651063475,350.4500692716863L334.65186248290036,349.74253707035325L335.54185259279984,349.70368350950594L335.68669857767355,349.25484673612647L335.06865808257123,347.77961439600944L335.9058076393525,347.20712677183235L336.58926007874095,347.972238497402L336.58215177900195,348.6831030165731L337.1327759329828,348.65310384682743L337.1373455644695,348.20289121570596L337.7316038225557,347.35583595282253L337.77845177242705,347.356319253637L338.1788837701697,347.1471883307979L339.7151667099556,346.98579650910204L340.41016712296283,346.6379208657157L342.0869403468527,346.5146214008265L342.87465450217786,347.28213145252715L343.36811181708475,347.1576016154494L343.3765352940786,346.4467281722354L342.7837825511119,346.03686375379243L343.3902938991536,345.2856129972727L344.12699503416445,345.4247658464868L344.7638155639781,346.0605384108286L344.6953968659956,346.8654814583953L346.71623968563955,347.3291523051933L346.8102803092538,348.21906396314233L347.296247135843,348.675587874234L347.24421370252804,349.077788944885L348.4301727691017,348.8207654775454L349.55967886978453,349.2861655518873L350.0111395919756,348.8064888673372L350.5965062393131,348.8145380862237L351.40025874690775,348.28066626836636L352.38177984738394,348.43678179525443L353.55133002289074,349.34242716809L353.24247454428985,350.45174814292074L353.38099704617684,350.5841078760709L354.46448400190565,350.9200119082989L355.34171003905186,351.72706799489026L356.2285695604746,351.88278971003336L357.6584631942132,351.7273307522874L357.85039156813497,352.1687754735263L357.4944619705041,352.4830784546495L357.885918925954,352.88026805850967L358.58005958364464,352.6306559686933L358.78535438713106,352.2310896798719L359.08216790361945,351.96334850879134L359.5616742079346,352.69391849883357L359.6669283290087,352.6956355202359L360.6158766423976,351.9055176677399L361.3052290831502,351.96441135016585L361.9584140534295,351.39481040958447L362.7483491797653,351.0528006796243L363.28347987613637,351.23976675984653L363.2828647082181,351.2753045211909L364.1485241007813,352.6293677676746L365.04114530740424,352.4318589490882L365.0523184749081,351.80404171609433L365.3907053679711,351.85747741926906L365.73694538518316,352.12437551283597L366.8271204858502,352.0138014326821L367.22140131840155,351.57074749692157L366.65590984502245,350.4939160290312L367.25080891286643,349.9715600979056L368.88608312316535,349.551689688502L369.07835476908497,349.91082250155233L369.82988522691494,349.7947424423861L369.9848400568354,349.0392816708374L369.58681521585476,349.0316883999742L369.35287728586013,348.39916999048774L368.77412375153375,348.03272801631533L368.98234621035965,347.5507696021409L369.91834772821494,347.61593622503256L370.75602188021423,347.3120631785338L371.50467076270786,347.37401761110726L371.4382479361785,347.775651022687L372.0240630265267,348.3678245607746L372.9803680965467,347.40314799282385L372.7963447955036,346.641010837448L373.92999402265457,346.79409574342276L374.4606328355054,347.2077943494167L375.02301481097567,346.63856545710445L375.7121959185089,346.74756682986117L375.82430796686003,345.8610244064377L376.2695447410437,345.87027241032837L376.40801490971404,346.5368477691781L376.7457512642771,346.6387251347986L378.13966215651556,346.123039593299L378.1404207033031,346.0875006098953L378.69794909120077,345.77944427648896L377.8197881381004,345.1799333407421L377.9304277018503,344.38820115779805L379.1662425852535,344.7228600824281L379.91522427200255,344.2531853911774L379.7247176360455,343.84605503358773L378.8768172084208,344.0054842070694L379.05323801001066,342.8951613523378L380.2767039501997,343.2773387667096L381.02926394177166,342.6657142963274L380.6678228409315,341.4961620531784L379.8260452779125,341.34735180416624L379.8492646769974,340.2810830490825L380.29232619392394,340.4211430844521L380.7752420271341,340.88216963198965L381.58598077116267,340.3193137999054L382.8730692481555,339.9925751271826L383.2192201128388,340.26119023818575L383.13421547086386,341.4208850258806L383.1331407414049,341.46827330741763L383.6294562880803,341.8351576573443L384.046063423193,342.6032831048273L384.84652802868385,342.4913459463032L385.5229669920684,343.1708405833566L385.9923489894766,344.1656172714775L385.787799692773,344.38602298441776L385.9776093186218,344.7934649230448L386.7140159844058,344.8937960561357L387.2894165655605,345.84382209016314L387.030689928894,346.37102174356176L387.6025535165659,346.96542648444125L388.4384619766231,347.2936886244173L389.5079874161228,348.12564278630526L389.5851299343258,348.8030989997905L390.2682626387554,349.12804390490066L390.9280081378278,350.38883098994165L392.24951070443444,350.91970494842093L393.23598066590654,350.80250635958004L394.9092078474289,350.8455572270612L395.31506237039093,350.5479621376845L396.2078220894647,350.4409690453187L396.2814759983749,351.2014415921218L396.8580720897463,351.97519741424816L398.7164958400413,352.51084768189787L400.495501393141,352.51192695721454L401.14235694340096,352.39939833474637L401.9983845373415,353.18172593319923L402.1099123335772,352.9596513814656L402.32993233662745,352.2072637471265L402.0236491362409,350.5986146366686L402.82834823039104,350.3011304090388L403.47904994813473,349.6557189921054L403.41554397635025,348.5871359381904L404.0291527328501,348.0237138775204L403.9429383595626,347.3456095735445L404.19900630061807,346.9972795060607L403.4938878500541,345.8155971195464L404.4134123822786,344.82224599856454L405.6477750619633,344.7272480901919L405.81177411527904,344.32892972085955L406.6153939502024,343.7239348924927L406.9489012912002,342.74969944487685L407.01656014768923,342.0403691156022L406.4769949698307,341.62157829385825L406.6018561904704,340.9613110695908L405.37489062293463,340.34492902242584L405.143750605392,339.80480034085866L406.0678912278921,338.7169797936693L408.1499801405941,338.63550126124517L408.4122687591458,338.10971904403004L409.01742305897875,337.91423826336705L409.06439186457715,337.91563409227905L409.3229767019756,337.5202146495752L410.0263757239733,335.62046466785506L410.5654265634897,335.6840860335974L411.0391234166715,334.79725066461947L412.6103979932625,335.34309983632824L413.3065958505962,335.26966023659963L414.0994092610235,335.1163511232113L415.12313148941007,334.3538503028973L415.6708839041072,334.1457648886325L416.85240511288373,334.36103155810065L417.73579930674504,334.69754827587803L418.339373856302,334.58651161857415L419.16382912945954,334.92147780320875L419.8291127486434,334.3620822715884L420.77952191686904,334.08489993503315L421.3304149044499,334.15048969428636L421.68305952977795,333.80640400926274L422.8205500370908,333.92727134859587L423.3748029036628,333.54265249976197L424.17422115189777,333.56958786558994L425.2783954602827,332.94297731648845L427.3482390920434,331.982375689231L427.46928928364025,331.5477715748642L427.91173165394184,331.6935974950012L428.96092197623096,331.3270318729781L429.43753436553095,330.5017338787539L429.7350258662972,330.41733954283467L430.6620031090165,330.85340811631454L431.27098751584276,331.94250342681346L431.9487407474759,332.41745217271676L432.4153291144414,333.1932684215297L432.72610053881283,334.3667368547145Z">
			<title>
			</title>
		</path>
		
	</g>
</svg>