<?xml version="1.0" encoding="UTF-8" standalone="no"?>

<svg
   xmlns:dc="http://purl.org/dc/elements/1.1/"
   xmlns:cc="http://creativecommons.org/ns#"
   xmlns:rdf="http://www.w3.org/1999/02/22-rdf-syntax-ns#"
   xmlns:svg="http://www.w3.org/2000/svg"
   xmlns="http://www.w3.org/2000/svg"
   version="1.1"
   width="600"
   height="600"
   id="za-map">
  <metadata
     id="metadata109">
    <rdf:RDF>
      <cc:Work
         rdf:about="">
        <dc:format>image/svg+xml</dc:format>
        <dc:type
           rdf:resource="http://purl.org/dc/dcmitype/StillImage" />
        <dc:title></dc:title>
      </cc:Work>
    </rdf:RDF>
  </metadata>
  <defs
     id="defs">
    <clipPath
       id="mapclip">
      <rect
         width="600"
         height="600"
         x="0"
         y="0"
         id="cliprect" />
    </clipPath>
  </defs>
	<g id="provinces">
		
		<path fill="#fefefe" stroke="#666" stroke-width="0.5" d="M402.36734857324535,213.75535402581363L402.0920034233114,214.5068532693461L402.51091803964397,216.08345393916045L403.29954314912163,216.99425560941793L403.8015026684116,217.28072059827025L403.83800116881883,217.720495419879L405.1954481654215,218.6592202089594L405.75082852832077,218.75769640203097L405.9941485421089,219.16770851810094L405.86470466993705,220.32629793193178L406.62583311315586,220.4306691025388L407.04421495629504,220.2171434225246L407.3659973329258,219.56212512750923L406.97872215896086,219.1005128591745L407.6383827091088,218.94131038015647L407.9753807922551,219.8877944381536L407.9090031794167,220.5144569219863L408.4460592854504,221.24137956634212L409.1008026873177,221.66342457289295L409.6185207885077,221.37002525968458L409.22984891646024,220.5523287950901L409.745320167489,220.34189921049236L410.29797156276743,220.93908576396143L410.3319326047583,221.43818960379554L410.80305095065603,221.0842921916531L411.0809146977691,221.94635283976245L412.13933320308985,222.64173203995182L412.9681043963666,222.0852279403502L414.5505786370798,222.2751146800636L414.5344399042624,222.80834543303047L415.30105874772863,224.30234427485703L414.87470542633883,224.77566251080523L415.07506976441545,224.95966501293037L416.07608264584076,223.9227803811101L415.58532444882394,223.32658191616622L415.8934907682106,223.15809859837384L416.65607116804193,223.58479673323757L417.0596699990166,223.46679369668516L417.8638450749473,224.10852626116568L417.6329749825452,224.90788650172684L418.4327977088,225.28868110974338L419.0261569359369,226.0664303209878L420.04406952523476,226.05116573444633L420.9009704977829,225.01094094663117L421.4062742916971,225.12201900504152L421.7031331741538,225.30948210645334L422.11461969816713,225.32274679286132L422.39062677418144,224.65556420108274L421.6348891331813,224.41768137007642L421.10449081884553,224.7090572176675L420.8105823784433,224.4268487184093L421.34598989526245,223.60183686404795L421.81753825453285,223.2611531744115L422.13811179624463,223.09356903652784L423.22633672241557,223.92356341152038L423.9476348849017,223.73361980216728L424.5475660298305,224.28709288785217L424.82987606758604,224.91320583961613L425.45306498218633,224.75589890186473L426.0948458285165,225.1330957747923L425.9830202932454,225.5801210072212L427.15090267543417,225.79714119044752L427.1313796189529,226.37772788265104L428.05091105149387,226.40876039032747L428.57881221384247,225.8454266036651L428.92206027876034,226.08249734531302L429.20790786030585,226.9344831749229L429.6659810625964,226.99761813513516L429.8432910042894,226.06657174984264L429.4484475243506,225.92254749420144L429.65749409723327,225.47894212074056L430.2201674372786,225.676211438224L431.60755199035543,225.49885608422545L431.98331468542074,224.80020318151367L433.48626705615527,225.48166809525424L433.84135910629095,225.71961119839187L434.20659039321026,225.32922213922308L434.77076189340846,225.4797765278262L434.62851364166363,226.411876147915L435.1700510904185,227.19043334587383L434.7784206323163,227.98313906931762L436.0460244718663,229.7724786810444L436.4989053948957,231.30736289676184L437.0309112203412,230.65039945004014L437.75691638934927,230.32089992272705L438.67896874435144,230.25973362616287L439.84303870602173,230.5280720174607L440.04893458155004,231.8288893828681L440.59454236921954,232.12204705314105L441.060250896358,231.96145588643776L441.911836436738,232.47981421601355L442.14542773506525,233.02250721999116L442.7573863271406,232.83204258364492L443.1581670489676,233.10824567061124L443.2728840949489,234.227885825182L444.02992632715984,234.35162964236085L445.05640410980936,234.07060137122366L445.6065290453439,234.54266518238205L445.9566459288207,234.55619473433018L446.9273841024608,235.70921910681415L447.20973180518337,236.52708191765254L447.0803323760681,237.05598090602348L447.6659388813939,237.83827539074105L447.4418730795709,238.31599759395613L448.060237211658,238.25717954829457L448.2271166380033,238.92822647153818L448.83837895000454,239.04724892089763L449.42188140559153,239.86536948454756L449.32073514500127,240.89371347834572L449.7305258132424,240.90998309427798L450.24759727393246,241.86801725255663L450.94236937910284,242.29926660796437L451.0151520510914,243.1921773925076L451.4103934782135,243.56405598849636L452.4240156358893,243.55750467186806L452.53093170427127,243.30076662631689L454.0042867790953,243.2658289033391L453.9699348920486,241.74545952936617L454.65798007607094,241.15657882555448L455.37099160340125,241.1384603887063L455.8122960864881,241.56017242084243L455.0905749817978,241.79145120301655L454.09554837817836,242.51007906314754L454.62588515945754,243.11330861364118L454.1813856725885,243.94949996008526L454.6706289637071,244.37305947194926L455.03919691552545,244.21022013194155L455.69072415944504,244.4982012852754L456.4324342382656,246.0954688711447L456.0966139049326,246.92410832501662L455.01098232456087,247.23521911870856L454.37627531203,248.0160855877915L453.648104700266,248.4372097132563L453.0385055367543,248.3174016724214L452.78873041462214,249.4227616729347L453.2220187274056,250.02190515729268L453.9148972162453,250.45372084827306L453.99006450769275,251.26379335572818L453.6721843553762,252.85289439141565L454.37937941035557,254.09241762521413L454.3647586852091,254.4478494360735L453.4355738897973,254.81324342755158L453.2557526006472,255.3874106366256L453.48413043812593,255.9782656887088L453.0365822206054,256.04305388156695L453.07989429685927,257.33840355292443L452.28778977084465,258.1962258859327L452.01230110585806,258.76656082995646L452.50695073070017,259.012141202102L452.58120041153296,259.54921287603946L451.76662978453356,259.7890928658659L451.27121543479717,260.75407542180267L451.33840507990897,261.4688497525199L450.5863886294919,262.5540960989727L451.01116830686493,263.3307350290612L451.73522087502727,264.1195506363114L451.6269135168138,264.4237244096381L451.86478445920454,265.95245402783905L451.8142831976904,267.19653087219814L450.70219108144,267.42451096628247L450.2629046741231,268.2138372778719L450.58650955231684,268.8083761243225L450.42006119055713,269.3713257055112L448.5788043661705,269.8791877762307L448.2939092035326,269.5118483202858L447.0013199076774,270.0897534866355L446.1912385741633,270.2834521852406L446.0696270162947,270.9432589804283L444.7608954011986,271.96035425456625L443.98161579681573,273.85267597045777L442.7799243360006,273.6759886869595L442.2100107104603,274.18823840279777L441.0257065355536,274.81970267023945L441.09796088847395,275.43949485843615L440.1734378950154,275.8555771266937L439.1752669072816,275.6876822366518L438.839107626609,275.40223451636086L438.02700872122097,276.66552266842154L437.03406553762403,277.66126211051096L437.70059127345087,278.70629816408217L437.28546114996425,279.27242542194693L436.57508378743944,279.42432111450375L436.3410344489513,278.9648479871826L435.18589548544867,280.18055573320106L434.05454318898495,279.42775116791034L430.2968796419446,280.3149224804302L429.6584829574317,281.5028993283663L429.2255626582022,282.2828155195835L429.24979984487084,282.9599624469365L428.52822388336125,283.4689105235834L427.7885380214473,284.5112846657917L427.8313068242799,284.6551305074178L427.57393826511736,286.2480383794905L427.2730061831934,286.3326498730882L426.99584656956586,287.11810771899786L426.4663534201272,286.5661649654611L425.13390382254454,287.1973817701445L424.8545853228869,286.64223587231123L424.83836734735047,285.70440498398915L425.15243799105394,285.2285115654946L424.7176943280446,284.6800187945073L424.17287753534197,284.5668897214068L423.3832182621516,283.9236882750595L422.62827769371233,284.0292532835622L421.9443290782088,283.42544358570774L422.0051966205412,283.02405433908467L422.0067497074628,282.97664835447927L421.7723575707298,282.48254444560513L421.959513720082,281.50393555405293L420.94030668623543,280.1775151738523L420.304664284976,279.89593143862885L419.8399709001731,280.2368838198463L418.65626967858304,281.0413493132879L417.8424217761205,281.11043195860634L417.5037267728063,280.8743227697794L415.83917460058336,281.04761360520286L414.8866973323801,280.97066949550805L414.42119191603933,281.35970489982503L412.7584760942568,281.4869622962945L412.83482977374604,282.1180303834178L411.75912119869736,282.97534075642324L411.7009530794164,282.92614289911296L411.75912119869736,282.97534075642324L411.6821115739994,283.55432546149L411.21194750752704,284.12154482587687L410.5727948879095,283.9601507065252L408.9458921218588,284.54092073881316L408.3524702087873,284.03722572460816L406.38829520101,284.33645919110415L405.53554849714135,284.13424901614155L405.37512826339264,284.74655603114724L404.03957860445684,285.61052768846656L404.07727124306103,285.96745184855996L403.52222648657175,286.21293906790044L403.52090737476436,286.2603514415449L403.3512918759802,286.78943700542067L402.616796512517,287.93159373239L401.913268013376,287.9596970595363L401.99600059334654,288.8516164071097L401.1745939868967,289.2799274095241L401.2648833982719,289.8992036167029L399.99530618430566,290.18510139997363L399.40784822073624,289.8965245181688L398.72739309544136,289.0717960093234L398.16691007655135,289.104401872579L397.76023485041435,289.6274582524449L397.8936304384523,289.98681598636693L397.0478036186773,290.01208248866266L397.2394828604648,290.4203828424904L396.90704834121647,291.3013073477619L396.2615346397872,291.4150032883473L395.2156827379537,290.90174372604787L394.9104942634258,291.2023292098011L394.1577112255586,291.3255120757656L394.0121206051261,290.96599059028676L393.2087829366575,291.2066985653722L392.98437244588416,292.0906550619435L392.02885656932256,292.2447759854505L391.70541823158425,292.8179609050609L391.461588179623,294.5080412666578L390.5142749122226,294.35435729705455L390.2333485737123,295.64032329767736L389.7313406454409,295.7586177704969L390.27543351428335,296.3529775494817L390.2633218155459,296.85082240472235L389.4948301189764,297.18801705700645L389.4776734769921,297.89922261994855L388.97485644559515,298.0650308038981L389.0095328223799,298.59957264846554L387.95755217371516,298.8946953994531L388.44550664796543,299.3451255920336L388.33871865959793,299.8407020333686L387.7760554115173,300.04081681840876L387.38959192361426,299.81820711255807L387.2219700938109,300.3835357991595L386.0515045025082,301.2100816938436L385.8879874436715,301.60951796880846L385.28988286753497,301.8210357260453L386.26743326630896,302.6382625799117L385.1352028243383,303.90474906522576L383.3818794454568,304.3629435113712L383.90868963591083,305.18126995632383L382.80789374561493,305.642703716624L382.82927373028895,306.80536035882227L382.1327131359478,306.6949628676025L381.87694676223896,307.009482965604L382.3634533364607,307.5064918414327L382.2389770339632,308.31011611417233L381.39463923401917,308.46931851644285L381.38681393047557,308.82490361086366L380.7656070246647,309.61766050268807L380.31312945519585,309.73824660838443L380.49001754854106,310.8567743424346L379.9430721776454,310.9753445149972L379.45188294813164,310.703873511551L378.74183237770734,311.2578683390541L378.5774891860391,311.7524074525659L378.7623584178905,312.51525213275164L377.8212201475502,312.2700092054413L377.16444754031073,312.564537362572L376.9020921973121,313.23495723271463L376.16028851551073,313.07729648582966L375.74643983969344,313.64980869760404L375.1416970511639,313.73231585776404L374.2623744767105,313.35880692235804L373.7434299152227,313.88199347584293L373.2943030915569,313.87305290722105L372.59830554909837,314.3928828920923L372.6357821206433,314.89162215705034L372.0255403128579,315.27095161828254L371.37985722535313,315.0449843017491L371.17207023111996,316.0132451169428L370.4903062558625,315.20574825820063L369.93163840963786,315.3729776779845L370.27433393540593,315.9960439365179L369.7714927175298,316.34220857049274L369.8084236731496,316.88831675721536L370.54222297919745,317.43582284879386L371.12979031734693,318.2059285282308L372.001301046005,318.93423151375464L372.49228330709053,319.78566096037906L373.5218514978035,322.61598510200844L375.6944755237592,328.2440290454913L375.8753058834282,329.18431290319654L376.217621930016,329.1439703949035L376.80478718547727,329.78450548538626L377.25197900458886,329.79387284342084L377.28510267916363,330.4584497135454L378.07663650259,330.8782425421357L378.89001769757067,334.10822639271726L381.08233464622685,333.8833140744277L381.36439955559877,334.4230058055648L380.8138347924538,334.8613173753716L380.6415398724886,335.74659950851355L380.2969271398764,335.9168581709279L380.1247959328699,336.8021481092469L380.0818596864829,338.76892734850435L380.6208327978831,338.8281473030907L380.4046412498188,339.58202229413877L380.8029111308915,339.6263355826969L380.29232619392394,340.4211430844521L379.8492646769974,340.2810830490825L379.8260452779125,341.34735180416624L380.6678228409315,341.4961620531784L381.02926394177166,342.6657142963274L380.2767039501997,343.2773387667096L379.05323801001066,342.8951613523378L378.8768172084208,344.0054842070694L379.7247176360455,343.84605503358773L379.91522427200255,344.2531853911774L379.1662425852535,344.7228600824281L377.9304277018503,344.38820115779805L377.8197881381004,345.1799333407421L378.69794909120077,345.77944427648896L378.1404207033031,346.0875006098953L378.13966215651556,346.123039593299L376.7457512642771,346.6387251347986L376.40801490971404,346.5368477691781L376.2695447410437,345.87027241032837L375.82430796686003,345.8610244064377L375.7121959185089,346.74756682986117L375.02301481097567,346.63856545710445L374.4606328355054,347.2077943494167L373.92999402265457,346.79409574342276L372.7963447955036,346.641010837448L372.9803680965467,347.40314799282385L372.0240630265267,348.3678245607746L371.4382479361785,347.775651022687L371.50467076270786,347.37401761110726L370.75602188021423,347.3120631785338L369.91834772821494,347.61593622503256L368.98234621035965,347.5507696021409L368.77412375153375,348.03272801631533L369.35287728586013,348.39916999048774L369.58681521585476,349.0316883999742L369.9848400568354,349.0392816708374L369.82988522691494,349.7947424423861L369.07835476908497,349.91082250155233L368.88608312316535,349.551689688502L367.25080891286643,349.9715600979056L366.65590984502245,350.4939160290312L367.22140131840155,351.57074749692157L366.8271204858502,352.0138014326821L365.73694538518316,352.12437551283597L365.3907053679711,351.85747741926906L365.0523184749081,351.80404171609433L365.04114530740424,352.4318589490882L364.1485241007813,352.6293677676746L363.2828647082181,351.2753045211909L363.28347987613637,351.23976675984653L362.7483491797653,351.0528006796243L361.9584140534295,351.39481040958447L361.3052290831502,351.96441135016585L360.6158766423976,351.9055176677399L359.6669283290087,352.6956355202359L359.5616742079346,352.69391849883357L359.08216790361945,351.96334850879134L358.78535438713106,352.2310896798719L358.58005958364464,352.6306559686933L357.885918925954,352.88026805850967L357.4944619705041,352.4830784546495L357.85039156813497,352.1687754735263L357.6584631942132,351.7273307522874L356.2285695604746,351.88278971003336L355.34171003905186,351.72706799489026L354.46448400190565,350.9200119082989L353.38099704617684,350.5841078760709L353.24247454428985,350.45174814292074L353.55133002289074,349.34242716809L352.38177984738394,348.43678179525443L351.40025874690775,348.28066626836636L350.5965062393131,348.8145380862237L350.0111395919756,348.8064888673372L349.55967886978453,349.2861655518873L348.4301727691017,348.8207654775454L347.24421370252804,349.077788944885L347.296247135843,348.675587874234L346.8102803092538,348.21906396314233L346.71623968563955,347.3291523051933L344.6953968659956,346.8654814583953L344.7638155639781,346.0605384108286L344.12699503416445,345.4247658464868L343.3902938991536,345.2856129972727L342.7837825511119,346.03686375379243L343.3765352940786,346.4467281722354L343.36811181708475,347.1576016154494L342.87465450217786,347.28213145252715L342.0869403468527,346.5146214008265L340.41016712296283,346.6379208657157L339.7151667099556,346.98579650910204L338.1788837701697,347.1471883307979L337.77845177242705,347.356319253637L337.7316038225557,347.35583595282253L337.1373455644695,348.20289121570596L337.1327759329828,348.65310384682743L336.58215177900195,348.6831030165731L336.58926007874095,347.972238497402L335.9058076393525,347.20712677183235L335.06865808257123,347.77961439600944L335.68669857767355,349.25484673612647L335.54185259279984,349.70368350950594L334.65186248290036,349.74253707035325L334.2940651063475,350.4500692716863L332.8191741938628,350.48392740872123L332.324234391177,350.87050935157845L332.2683323036513,351.9007933825435L331.9134778118074,352.3478951308527L331.3306062839677,352.11774416712433L329.79910214965565,352.01015466762146L329.2645447253511,351.5674658879668L329.46924415982227,350.8463833563506L329.1199178343621,350.63031879205494L328.47255145443563,351.11099021468937L327.4884166691439,351.28117727284473L327.1972529263798,351.1012806682545L327.6499145699101,350.0383475402666L327.01383874408583,349.0027878549872L326.6635870024893,348.86988485120327L325.7672489812202,349.7994817771268L325.4281574905224,349.74971547979214L324.7381626852248,349.66204558698587L324.0917551648434,350.0605688502107L323.0128107065692,350.40906219094586L322.95653077535115,350.0532664053046L321.58343179204644,348.7060522358931L321.53820534114266,348.4332713211755L320.160512607366,347.71450756343796L319.42153440926955,347.9356341880868L318.9779624780701,347.6607891501915L318.72948389796153,348.15714844429266L318.1897899123548,348.36769797163896L317.39697409329506,347.6529315710237L317.35226462247465,347.2024704974921L316.1289256029403,345.7276154904496L315.0857036860946,345.8179606518141L314.2455426550276,344.9259128835906L313.51034384749914,344.0699776124176L313.8161120747898,343.81043073618196L313.12766153090257,342.90733284801854L312.4371814036141,342.5020344807159L311.8902924138437,341.1730320701933L310.9065501545851,340.58931895462825L310.1080414475592,340.8121829161874L310.06296333856056,340.1365991931306L310.4173047565606,339.3317658247083L310.0684592650496,338.13388596996293L308.6355770377333,338.3079933312347L308.2966169142737,337.63172127966106L307.40547957694935,336.966167847043L307.70032866975527,336.38607719317923L307.5014514085188,335.98272901894893L307.45445786819,335.98263329390863L306.6101739932711,335.0921761902341L306.31578152073865,335.4471955521829L305.8699218436732,335.043513072929L305.870774364448,334.5102037513647L305.424751752043,334.10656884470865L305.3320066814923,333.21756524713317L305.02711309475336,332.6364013453899L304.1456889754671,332.18493225536133L304.14663826665947,331.34344563985445L303.5470564754554,330.98725655845635L303.45344247149535,330.45382122340976L302.9009322859598,329.8251747004117L302.94843223245334,329.2918564611013L303.25471964412884,328.98395144268085L302.8552397016215,328.0472682439239L301.61913345888985,327.7264947039484L300.97150654056685,327.77367745035207L299.42895668470277,327.3231900542901L299.1345040701674,327.10989744548795L298.8867974188649,325.80614304076835L299.03967159245207,324.73931859132784L298.4857332656921,324.5617061932273L298.39162982359267,324.96475542821133L297.2014817728047,324.96546763510963L295.8094883460444,323.627365520877L295.301247132763,322.5611630520768L294.4641335608604,322.60974008157837L294.01554891003457,322.290393593507L293.8610655866018,321.57942528133685L293.0706573509124,321.48599640021587L292.17455647221095,321.63003546928223L291.22867041287964,320.6482953574176L290.23190814652986,318.4696448613986L289.42727067811353,317.7961659723036L289.5287207347994,316.1006804697452L289.32767660781917,316.01827374491324L291.36119720968526,311.7333197947449L295.335825374153,303.2018875007731L296.28216187441024,301.28009116725013L298.6759083123323,296.0615262677068L299.73272799107673,293.8796116949149L300.6837227818993,292.0062336891631L302.68415829489373,287.76219848169376L302.73176910374326,287.7622331462441L303.08950994148563,286.9680578086406L303.5904797821838,285.9843272333748L306.11186237993877,280.6753355116071L303.8945829319838,279.86602198815876L305.10454797505787,276.0373572906631L304.46031438961836,275.58592626933427L305.5132827263029,274.16436637017335L305.71629579950854,274.2121040282718L306.0646961290605,273.0031288571572L306.26882032909197,272.4224188529358L307.2908057293953,269.30558507688767L305.8203385618838,268.7693897479721L305.22410240208626,267.3811065042699L306.27706077963194,267.51316527140887L306.937076719932,266.5419630434431L308.0979433452051,266.67473581897934L309.2680039822126,263.0607143149974L310.029774503737,260.47760584183584L311.09716679648665,260.3857504347655L312.4594805171284,258.16071022366066L311.95827309812466,257.31715599073476L313.2343867157588,256.1593548454956L313.23643678702695,255.57831949105676L313.48983547560545,255.22348215151487L314.04148398262197,255.40337619949332L315.00535074269084,254.56518936181124L315.1150549700608,254.16245830913348L316.9810907039468,253.18622556937748L317.1388882726235,252.83120409255417L316.58821226675263,252.37812924577892L316.5899934277209,251.9749681755707L317.25235714693537,251.6696474185884L317.44795330878657,250.9590781135575L317.9661382250731,250.6887899905223L319.12018658703454,250.69448687981063L319.68543733637483,250.6499750201649L320.3543250262054,249.23059653218144L321.5262118773944,248.30035901015464L322.2380262369697,247.94876899720214L322.8873633266954,248.00009759548587L323.70711923379764,247.73244847345728L324.2161549580019,247.1546609977608L325.1300020873377,247.2555201901689L326.6011323023111,246.8150435499596L327.2086520400978,246.01306012388298L327.6188441556248,245.8856143811807L328.2289782227167,246.3881719345073L328.5787170988577,246.2959508540072L329.1856193665026,247.18995155756014L329.99387989289374,246.9354385914115L330.1143302632593,245.4185963216206L330.4199831583258,244.84002382080857L331.0821861810659,244.84543642003072L331.64091343731644,244.2690623787886L332.7161451485583,243.87509289114433L333.32260637234685,243.39424565073227L333.9365644008939,243.43530485722215L334.79742672657636,242.8265614124478L335.2945949199412,243.7679563684065L335.2406464112317,244.3840591188728L335.6453397348561,244.88590304935948L336.86229881789484,244.80276650431927L336.77026445560193,244.36312241143082L337.83171098706475,244.1957757245567L338.3275742464217,245.17314867583124L339.40127866079166,244.97079634941406L339.39668406946475,245.40949622983294L340.10264140696626,245.8201316737376L340.2915133152963,247.29256320234967L340.03504871487206,247.6455700411237L340.28096703536977,248.27668432382637L341.03245405820803,248.86587003839605L342.30531351345047,247.99060667079436L342.8778888853425,247.36860287691994L342.8223200959819,246.96478758043725L342.0166203976667,246.90826513445091L341.66100223900906,246.41812111314172L342.64296136389277,245.8006417955711L342.29238099023496,244.8598888402824L342.6043879402943,243.89104432634375L343.47149004139425,243.90096101560906L343.78346171311773,242.96778912105506L344.1491537260311,242.6044609631341L344.7488360538677,242.83684501945686L345.21842002406413,241.85823783523801L345.7260868695043,241.7339304966501L346.19053073646523,241.20598802541267L347.1086826613054,241.03949106262473L347.16475984988,240.41171850954663L346.8196075486976,240.0516737891391L347.5545105644629,238.18733230058004L348.16378876366366,237.70889867405182L348.9335035998972,237.89667998869098L349.5865818447522,237.77477867543845L350.5165281981117,236.80292527041954L351.48486508936344,236.5907250443368L353.26064578030423,237.32686753347227L353.9329894136456,236.71981193117216L355.54407098044175,237.13451719006446L355.9105834663446,236.83162542900567L355.0946190272451,236.51130560297923L354.0912152762563,235.78530351666524L353.89434189474423,235.2014511006166L354.8299908666741,233.9580106585883L355.3376573050606,233.9298488530332L355.2045497145318,233.12157538797004L355.4634047797136,232.76964111660686L355.31628358222343,232.09159914168004L354.36329658701527,231.14101504900714L353.6114337291482,230.46625358734002L353.5706556011914,229.93209723420821L353.121988235752,229.16690026169312L353.33756216058373,228.45851052559738L354.5558196440088,228.68933203555315L355.1256996806786,227.76089022929176L355.6322814136137,227.86317010688356L356.31212930551715,226.88910104948218L356.82824251773286,226.3632588033812L357.2342305651184,226.72509387229863L358.24626229267784,227.01326505959082L358.5202982865211,225.72507742258603L358.1750151843197,225.35218418288156L358.329019126026,224.78542528921315L359.2096145004782,224.2181214343983L359.3803874446634,223.36710959487567L359.9858257867978,223.37665961237246L360.60906715024873,223.03088856023805L361.1617130222602,223.31248689117285L361.1553899969564,223.70366025215267L361.77133380141714,223.80852185781538L362.351706398192,222.395221401338L363.4350260922891,222.09309074099633L364.00263792567455,221.4860951882904L364.7697221930454,221.27386396209897L365.5744765557281,221.69084865326934L366.24635395738727,221.3824127543644L366.97603133460694,220.55341932864422L367.0850913860868,220.555349954451L367.5352059853455,221.14433495494018L367.99646104260074,221.1051636590044L368.83729487548084,222.1874874061986L368.86230170759404,220.81253399771822L368.73002038953496,220.08686457041432L369.35790175877685,218.90078333503624L369.7200666576962,218.99042818498123L369.59854643809945,219.66402594905094L370.15921208251046,220.16050014146657L371.82508821598543,221.17586277361374L373.90644858061086,221.34635159083L374.83517067565975,220.96144949851367L375.58762083531747,221.5218336605213L376.316003516373,220.8605783880577L376.8343794802879,221.00149328143965L376.8628678974524,221.9862381311712L376.64614139158425,222.5154316021662L377.706353207787,222.80977760514472L377.7192524733755,222.18158886793412L378.45870046818436,220.99923335552523L379.3937058674227,220.3428489051042L379.5624502993569,219.8128075487424L380.2888432708707,219.29455538419936L380.71815540330374,218.49738284704506L381.53048609034875,218.51477721364637L381.77051294543287,219.19582027148383L382.6288235365316,219.87846753312442L382.76364217619835,220.36757352529673L383.283689099596,220.42640632576945L383.8261672473907,221.11426956693433L384.1785847218097,221.07465759844143L384.91256859567216,220.23728451951658L385.53945987268446,219.86008626981786L386.0608861747325,219.32644241278138L386.3346171816411,218.4907764916037L387.10771551010475,218.10531292917608L387.3384302358301,217.04344423829997L386.93936180034916,216.45325631847953L387.3103852710335,216.1534926351851L388.02423759617443,216.25300270220845L388.5917034634786,215.86306988798327L389.0463465882758,216.14644215470207L389.3735083366384,215.656128436078L388.97765401249416,214.93537847773433L389.6512829920448,214.69038364589437L390.9310140760555,214.495562565814L390.89805487780046,215.8702355961119L392.17083851904835,215.9483962508408L392.59318353503147,215.5555278037868L393.5153481467221,215.57816030866323L394.02496306233627,215.59076396836934L394.4692084483461,216.27770240383376L395.1683000510426,216.95923524263412L395.15428224877354,215.58336477528536L396.08574891708383,215.23926247902443L397.5695403645081,215.14671517238753L397.96999776804034,215.1570404389102L398.6374243435807,215.17434319735668L399.0732290971615,214.29635615985472L399.2428016027451,213.85018967566543L400.2220769796795,213.56763148609855L400.4971064076274,212.81600543238238L400.9645130595826,212.60311596822373L401.0130859692139,212.60440872237814L401.57389355636127,212.5363747060007L402.31623829516724,213.39823355919458Z">
			<title>
			</title>
		</path>

	</g>
</svg>