<?xml version="1.0" encoding="UTF-8" standalone="no"?>

<svg
   xmlns:dc="http://purl.org/dc/elements/1.1/"
   xmlns:cc="http://creativecommons.org/ns#"
   xmlns:rdf="http://www.w3.org/1999/02/22-rdf-syntax-ns#"
   xmlns:svg="http://www.w3.org/2000/svg"
   xmlns="http://www.w3.org/2000/svg"
   version="1.1"
   width="600"
   height="600"
   id="za-map">
  <metadata
     id="metadata109">
    <rdf:RDF>
      <cc:Work
         rdf:about="">
        <dc:format>image/svg+xml</dc:format>
        <dc:type
           rdf:resource="http://purl.org/dc/dcmitype/StillImage" />
        <dc:title></dc:title>
      </cc:Work>
    </rdf:RDF>
  </metadata>

	<g id="provinces">
		
		<path fill="#d9534f" stroke="#666" stroke-width="0.5" d="M427.6970246963988,160.07481103562088L428.17702292726943,161.20446947520836L428.38647491429253,162.68063801233995L427.7756504858269,162.52995541979783L426.7355509433084,164.18986566664913L426.92272430203354,164.85958084915993L426.72110831507837,164.62779627325403L425.3018977817759,165.11445176402103L423.81633224872553,166.14454130659135L423.2452056981915,166.30390879540985L423.63136310311074,168.44921701684365L423.0461591545279,169.05845180471042L423.3003381556472,170.71377603792666L423.0296056767977,171.107997351801L423.27028019794915,171.64899825314367L423.34190402336657,172.86008139926486L423.08156470561187,172.93467205297048L423.62593997728686,175.09727148270412L423.6685310808707,175.67937784850568L424.47250824333236,177.75582721167967L424.7599720804087,178.34595370777268L425.53561138049434,178.6320654900668L426.0596345539702,176.87140542072228L427.3779823666188,177.44838434996097L427.08524134437965,178.50539959306275L426.9067272853145,179.08026901781432L428.1471556971529,179.39421482475754L428.6155024582479,178.95950404910027L428.9754492310225,179.1968241265935L429.8727184384585,178.7767396972348L429.1169655001404,177.90961548862788L428.71257429811067,177.89600106189215L428.77950668244443,177.3648778177625L429.55924156327376,177.16597512450267L429.6977260786566,177.7870076959129L430.56295859180705,177.9586467576168L430.6456343987333,177.3332613207021L430.23657523307907,177.09412605022942L429.8506383556419,174.7223963655948L428.7515392005347,174.91050143237103L428.43317163303675,173.78574590667978L430.1853574825692,172.45820743479817L430.8790755679192,173.3706978516085L432.022920171996,173.3269550927236L432.1301513134585,174.4921521890272L433.06037816810704,175.9940486948521L435.00467974219976,175.16125779705777L434.38439000309904,173.94235544870958L435.43070062757306,173.52879127931126L435.2883385428987,173.0378241065333L436.6710555403474,173.53725391086812L437.3302262114935,172.6244746484837L437.8960886471016,173.97226002825158L437.5259076103223,174.3619515420349L435.8524124417322,174.8000785127412L436.13083731356494,175.6040975048167L435.99323584906386,176.71339876132626L436.7130801106498,176.83385026274286L436.7350582333318,177.59325355672013L434.89790562993653,178.19188830969307L433.6446054003766,178.59836763281996L433.01433947512123,180.49671049580968L433.97701532697357,181.01631183160345L433.1652246419194,182.14968239965998L432.53121834757246,183.8228530078611L432.8814028389437,184.32105446820896L432.5764310190133,185.69749917428365L432.4524112753118,186.09627504292155L430.88262352963113,185.4612868433831L430.5618418370284,187.32342369099237L430.71005771161333,189.071261224323L430.151549136736,190.02435917184064L427.79234958774043,189.99206928227494L427.20795337919924,190.28079660160353L426.67240486757186,189.46866238495346L425.23075856299005,189.4210994791627L423.44132701193473,188.78192168570223L422.7845206682094,188.66590492908102L421.45379208909145,189.73770861924748L421.0356449712872,191.73981760501775L419.81656072570655,191.2508378865116L419.483852675837,191.72647122617877L418.6628303456893,191.7956900006301L419.0583716554613,192.43634716212838L418.5863747640957,192.68246420393814L418.1801522634065,193.96211196239062L419.13676249977016,194.62024064815625L419.3063563344484,195.83486308102644L419.5207603845655,195.61631309168678L419.36454162265375,197.48472126150247L422.15531838919134,198.36759961173928L422.26356077783834,199.93621770444008L423.6792987766727,200.657825678004L423.66929202072834,200.9657987884334L424.8274784700945,201.71507794486905L425.72346943858855,201.16353532229087L426.96231902118996,200.94378514142105L427.790739529893,200.6039107515851L428.1582381096465,202.00367047502226L428.7731065808111,201.8465544180363L429.42346487260403,203.8727201680383L427.187574568298,204.7815576046143L426.3674079193149,206.36700792197234L426.2656045179553,207.96460066356576L423.96134493252936,207.71083223493008L423.0931936581512,207.45728832119266L422.6390778593421,207.57305061845494L422.16102317784737,208.05572002005164L422.3296023203382,208.8675523371803L420.71096108689517,208.49557759984867L420.37029028354715,207.72581095738582L418.95074373170286,207.19490662807445L418.8327087071156,207.85528632483815L418.8546915431423,210.2632935086654L418.18640024448104,210.24243231884316L418.23165733900987,210.74191548923844L417.3433617951414,211.15313414124046L417.62612804812824,211.83785018892038L416.18893967785493,211.92402815287198L416.1726170679038,212.4571837748232L414.8489471089202,212.41689057405216L414.21217500005093,214.59159469755048L414.57628044904965,214.60257737191284L414.9418700134461,216.1672230288218L413.0858005649487,216.51462031413632L412.8176528248823,216.95728838204894L412.1923927224487,217.1640574080766L412.2973753606791,218.94610430987143L411.7514951756268,220.17523571536987L410.976918795709,220.11687792406383L410.99011435859563,219.6665945801019L409.75699654028284,219.93900895768022L409.745320167489,220.34189921049236L409.22984891646024,220.5523287950901L409.6185207885077,221.37002525968458L409.1008026873177,221.66342457289295L408.4460592854504,221.24137956634212L407.9090031794167,220.5144569219863L407.9753807922551,219.8877944381536L407.6383827091088,218.94131038015647L406.97872215896086,219.1005128591745L407.3659973329258,219.56212512750923L407.04421495629504,220.2171434225246L406.62583311315586,220.4306691025388L405.86470466993705,220.32629793193178L405.9941485421089,219.16770851810094L405.75082852832077,218.75769640203097L405.1954481654215,218.6592202089594L403.83800116881883,217.720495419879L403.8015026684116,217.28072059827025L403.29954314912163,216.99425560941793L402.51091803964397,216.08345393916045L402.0920034233114,214.5068532693461L402.36734857324535,213.75535402581363L402.31623829516724,213.39823355919458L401.57389355636127,212.5363747060007L401.0130859692139,212.60440872237814L400.9645130595826,212.60311596822373L400.4971064076274,212.81600543238238L400.2220769796795,213.56763148609855L399.2428016027451,213.85018967566543L399.0732290971615,214.29635615985472L398.6374243435807,215.17434319735668L397.96999776804034,215.1570404389102L397.5695403645081,215.14671517238753L396.08574891708383,215.23926247902443L395.15428224877354,215.58336477528536L395.1683000510426,216.95923524263412L394.4692084483461,216.27770240383376L394.02496306233627,215.59076396836934L393.5153481467221,215.57816030866323L392.59318353503147,215.5555278037868L392.17083851904835,215.9483962508408L390.89805487780046,215.8702355961119L390.9310140760555,214.495562565814L389.6512829920448,214.69038364589437L389.3421530849678,214.4103721389829L390.0170236000432,214.118041692757L390.04261670396374,213.03965046222356L389.1483495255232,213.87223978775634L389.0591243917238,211.46319050843516L387.11670032569225,211.37068505154105L385.63462047785026,210.80341989799152L384.8681727368488,210.8336334231426L384.59931102423843,211.4441631135306L383.1474803950331,210.03676266204536L383.358997531102,209.81613485696488L382.8232535497793,208.73737787134655L381.95009342000355,208.62359272017778L381.729160723883,209.28275786103939L382.12496203898286,210.09750146771395L380.6845611100438,210.37487521637672L378.8759571974797,210.8348191702822L378.5220784082597,208.55118220895426L377.1336196828735,208.65314431674403L376.8963349013517,207.7591796102098L376.6400451675995,207.8014222489772L376.34272841925497,206.85887581545987L378.10056754230254,206.5745055202168L378.66740069381393,206.2305410577558L378.50562835186736,204.04588826417864L377.42004528432574,201.7475785566531L378.8855238055975,200.4025890163536L380.1460691966676,199.57542729657945L381.0695215894861,199.14452562255855L381.9124585130934,198.49874393573037L381.2848097946669,196.4820325975289L380.7843341230647,193.61479311403525L382.8756842388558,194.01525919489399L383.0146443334695,192.67890681457862L384.8080092363076,192.76576994692692L385.0374394396093,191.78709770437337L385.407635724588,189.43673281629685L385.86473978503716,189.22179513425846L386.0996872488743,188.01817952498263L386.0499275571467,185.88376294097415L386.35457494561,185.93804115354135L386.1728599476841,184.77251416546255L386.58875743685724,184.7819131064787L386.44687963119463,184.02023367554204L387.9569186712804,183.82950705311237L388.5769149194036,183.48829010426888L389.8734238609634,183.02080218766665L390.6701256429721,182.47076409873813L390.67658382957023,182.1983478588744L391.97578819287156,181.6486781662638L392.19746582423926,183.12353325190475L392.7079970213531,183.27809084862395L393.3028875419865,184.48955178882426L395.123258006517,183.64554935376205L395.1455153291297,185.2105223410831L396.5947804745389,184.52391248041852L397.9039183758613,184.0712932057797L398.52815758456137,183.60140809445787L398.76155557118636,182.6237465745055L399.7984816716619,182.781031935179L399.5095036129746,183.5320085066951L399.6045094427051,184.1152223947062L399.960545274432,184.077107511819L400.08801711290556,183.4167386693288L400.8742308126576,182.85666276855457L401.9707094047427,182.6131523269285L401.7427032842442,181.05453203471473L401.6554470115234,180.64926988294357L402.64365954344277,180.35566736504967L401.71585358508236,178.37549766075452L401.974423066091,178.3349731359471L401.8541838932224,176.86231778585943L402.28770000131624,176.245809736941L402.75451622613144,176.2227522808379L402.6710357400841,175.67541073106491L402.57621488339856,175.0922251868114L402.11715147507516,174.81926949194786L402.33860500020216,174.3393399477233L402.8887163798338,173.05062460420268L403.3501803416318,173.24077667584942L403.7634866486314,173.39413402648034L404.432135108441,173.63743176471775L404.8973436036545,173.68568230907994L405.05429079020325,173.33449223442017L405.1289459996898,172.85070952566946L404.34717967660697,172.69901161206633L403.28072679798686,172.17247300775736L403.6641506174256,171.16380535237337L404.09116666729517,170.81990404575205L404.66333415633335,170.56294937361756L404.41291155055455,170.28360575344888L403.81947686154274,169.50919795139825L403.31896621434765,168.92697287890152L402.5812916275014,169.39296266878506L401.8862189941743,168.26072913452458L402.701973713171,166.7185652077487L403.0596561648203,166.6807571646733L403.63825249131634,166.66078509452626L404.9881916017037,168.11919862369936L405.3567587798023,168.12929594302977L405.6687853104992,167.96015010266638L407.04764171841356,167.0149597668124L407.0855722119046,167.4188491016821L407.60530955774067,167.30305059180245L409.17734575511776,166.94459051877848L409.2089834949275,165.83178566374963L409.99123045160667,165.5816060694157L410.83299121246637,166.68396606076482L412.09591269373385,166.4007201017334L412.14507703773586,166.402155352338L412.4547800432362,166.3282737352076L412.5039453145922,166.32971357966636L413.0243597736687,166.20281461938208L413.05431762203085,165.18476595593972L415.56904405607725,164.63164508529644L415.68559064002005,165.66593565603833L417.2945752228595,165.7621217192446L417.46813973063405,165.31718805944104L419.4859032403448,165.33202102545116L419.48382871975025,163.8153820286165L419.85158228823593,163.47139298573072L422.4541168714952,163.3283123697564L423.5634622142732,164.44201826021416L424.48716558140165,162.90784106772688L425.0038596421763,162.92460812949213L425.14192940133813,162.08788400377978L424.3640390279184,162.14558043045653L423.28948473477334,159.93103510136936L424.33399718886255,159.64477578994058L424.8553543332454,159.53134024044385L426.2361825076915,158.77078833606512L427.3258150180779,158.62897889369805Z">
			<title>
			</title>
		</path>
		
	</g>
</svg>