<?xml version="1.0" encoding="UTF-8" standalone="no"?>

<svg
   xmlns:dc="http://purl.org/dc/elements/1.1/"
   xmlns:cc="http://creativecommons.org/ns#"
   xmlns:rdf="http://www.w3.org/1999/02/22-rdf-syntax-ns#"
   xmlns:svg="http://www.w3.org/2000/svg"
   xmlns="http://www.w3.org/2000/svg"
   version="1.1"
   width="600"
   height="600"
   id="za-map">
  <metadata
     id="metadata109">
    <rdf:RDF>
      <cc:Work
         rdf:about="">
        <dc:format>image/svg+xml</dc:format>
        <dc:type
           rdf:resource="http://purl.org/dc/dcmitype/StillImage" />
        <dc:title></dc:title>
      </cc:Work>
    </rdf:RDF>
  </metadata>
  <defs
     id="defs">
    <clipPath
       id="mapclip">
      <rect
         width="600"
         height="600"
         x="0"
         y="0"
         id="cliprect" />
    </clipPath>
  </defs>
	<g id="provinces">
		
		<path fill="#fefefe" stroke="#666" stroke-width="0.5" d="M528.3500539546617,123.7893033593129L528.5372058247165,126.96356852731333L528.6744024136248,130.76329295465L530.792731827974,134.90628115135524L530.9432602376204,135.093031972856L531.4546216995363,140.46922852694019L531.1033061541123,144.68033924741314L530.4932407300187,148.6631085787586L530.5194586246223,156.9180662462501L530.6912991209723,161.88609720169308L530.6637091682401,164.19749501980857L530.4951166823905,165.9786072864355L530.3232610416788,168.02059961053456L529.5555833356042,173.01680331455245L528.6248750475603,174.78837445238034L528.1801880407378,176.05517716415983L528.235975908761,177.80274905947488L528.6959995692744,177.92512342984975L528.7951586564897,181.40793223035186L528.752727586716,182.11741923354347L528.3831443781964,183.16338624010183L527.7828796996653,183.75655295284704L527.4063598551925,184.71914273745568L526.6083027458254,186.99783503791264L525.9748279445568,188.78801508321504L527.0830654020397,192.8299290880912L525.0748429761536,193.64858000638404L523.6935392362706,194.23198597624287L521.480035050965,192.500479435423L520.4840819108937,191.7188143534318L519.3018342400723,190.76058253403102L515.7930449473298,188.02105616341365L513.8687454578455,186.47701863061013L512.326157344048,185.32308820557316L511.5387840081135,184.69803440194505L510.15124376623044,183.60113560037323L506.9610396293389,184.26947774966803L505.2319174773949,186.53724063158012L500.74586653688937,190.23784378010794L500.23533231218903,192.26366070799702L499.4920670256241,193.60108602382525L498.7326192978078,195.25819371120053L497.9946643810945,196.51315045731963L496.244030097881,199.63825057028936L495.9625641130333,200.12213651011575L495.8395204884109,200.37686391633855L494.94326182887585,201.8972218517014L492.56314661456815,204.0543801034362L491.4887185149679,206.0055948450545L490.6267947778148,206.89974959712316L489.7624445858348,208.82640561758654L489.5400144064266,210.10882807082004L489.17212067794173,212.35717471986266L489.0586435461603,213.65697839233783L488.8568527693111,217.7058648647187L488.88529352651267,218.11081540320805L488.8788012957405,218.24104701799803L488.99749765695515,220.97681459871427L489.29558237018705,222.0599388708779L490.4182907130049,221.22604649748752L491.87731997394087,220.7181053661251L491.9922119563935,221.56667070102128L492.048276356673,222.37665633195488L493.20567231675614,223.729402069823L494.18380723682264,224.53918424832392L494.21065399208464,226.14308814969348L493.5776818252626,227.3689181383604L494.31312344533467,229.10420587682907L495.38240046466035,230.22777446762905L496.55200531659864,231.27380967204675L499.0999238202846,235.1114867299106L502.83534151426375,236.78280299203598L501.43219254804865,238.35795962574718L501.3839493005104,238.35538140794796L500.5622646838942,239.2495503778644L499.24981291350593,240.97276597162872L498.4998655677363,240.75506716884493L497.33148400784086,239.75571338978492L496.6566384372152,239.94600756600954L496.0491879611859,239.77187415527652L495.62550250084166,240.2484980420698L494.35257427523936,240.0876265971969L494.2878625796642,240.40484312901373L493.62487542543664,240.37070423266923L492.3916481496799,240.61618858807748L492.3363287202575,239.80606137534784L491.85710060432797,239.247387791172L491.8595124126092,239.20002295361104L491.9481526551915,238.40912144691436L491.3330572558739,238.37784334061158L490.0487526776658,238.66900654222584L489.9605117260404,239.45995471999623L488.9275020320655,239.81164407546248L488.37862294294825,239.42801552486486L488.26055718547843,238.88790339621363L487.59730312308284,238.85482540914023L487.1366990806516,238.87940749595742L486.96517811904664,238.19424116100691L486.3234604311938,237.72323738380337L485.8586480228711,237.83086917133176L485.6292433793809,237.33286207616783L483.80119301332405,237.37386509833476L481.547900459934,238.46356683629796L480.5263045357542,238.5925435627618L479.67660738837634,238.16022574510694L478.7184250459577,237.9722302673086L477.2217799291707,238.43569496040536L476.57675674463155,238.01372330191546L476.65221675702196,236.40301588931152L475.7893769127138,236.4932531907013L474.88053596980103,236.272955208445L474.76197747715696,237.78670974004984L473.6120752370165,237.2944161930672L472.7634750953081,237.8726149354457L472.1641417263711,237.76210984679852L471.9701550123514,239.62854543396324L470.94932050978525,239.7601199669352L470.5873499944089,240.01669597024406L470.3483697684103,239.42431003848492L469.506677032818,239.06589507681383L468.49218594130525,240.13603696970094L467.97794617358556,240.29109854968817L467.6344729326888,240.9523029494551L466.02596984676836,239.36191392167558L465.4754804400053,239.24275183503525L464.570042388687,240.05759292771972L463.79921851493543,240.28509207136412L462.714451799212,239.39546454313083L460.86228627702747,238.63948597714096L460.585804058075,239.1735952929663L460.2596565291909,239.74121329254422L460.2114309920087,239.73916212285147L459.6060879700665,239.487987922893L459.55785919140857,239.48594511952922L459.5076242588499,239.53128735281678L458.43852536429563,239.39123901231758L458.43653273344296,239.4386239839303L457.8109053095293,241.10937545176787L456.9589681421895,242.14182047085072L456.2535002517319,241.98193723693356L455.8122960864881,241.56017242084243L455.37099160340125,241.1384603887063L454.65798007607094,241.15657882555448L453.9699348920486,241.74545952936617L454.0042867790953,243.2658289033391L452.53093170427127,243.30076662631689L452.4240156358893,243.55750467186806L451.4103934782135,243.56405598849636L451.0151520510914,243.1921773925076L450.94236937910284,242.29926660796437L450.24759727393246,241.86801725255663L449.7305258132424,240.90998309427798L449.32073514500127,240.89371347834572L449.42188140559153,239.86536948454756L448.83837895000454,239.04724892089763L448.2271166380033,238.92822647153818L448.060237211658,238.25717954829457L447.4418730795709,238.31599759395613L447.6659388813939,237.83827539074105L447.0803323760681,237.05598090602348L447.20973180518337,236.52708191765254L446.9273841024608,235.70921910681415L445.9566459288207,234.55619473433018L445.6065290453439,234.54266518238205L445.05640410980936,234.07060137122366L444.02992632715984,234.35162964236085L443.2728840949489,234.227885825182L443.1581670489676,233.10824567061124L442.7573863271406,232.83204258364492L442.14542773506525,233.02250721999116L441.911836436738,232.47981421601355L441.060250896358,231.96145588643776L440.59454236921954,232.12204705314105L440.04893458155004,231.8288893828681L439.84303870602173,230.5280720174607L438.67896874435144,230.25973362616287L437.75691638934927,230.32089992272705L437.0309112203412,230.65039945004014L436.4989053948957,231.30736289676184L436.0460244718663,229.7724786810444L434.7784206323163,227.98313906931762L435.1700510904185,227.19043334587383L434.62851364166363,226.411876147915L434.77076189340846,225.4797765278262L434.20659039321026,225.32922213922308L433.84135910629095,225.71961119839187L433.48626705615527,225.48166809525424L431.98331468542074,224.80020318151367L431.60755199035543,225.49885608422545L430.2201674372786,225.676211438224L429.65749409723327,225.47894212074056L429.4484475243506,225.92254749420144L429.8432910042894,226.06657174984264L429.6659810625964,226.99761813513516L429.20790786030585,226.9344831749229L428.92206027876034,226.08249734531302L428.57881221384247,225.8454266036651L428.05091105149387,226.40876039032747L427.1313796189529,226.37772788265104L427.15090267543417,225.79714119044752L425.9830202932454,225.5801210072212L426.0948458285165,225.1330957747923L425.45306498218633,224.75589890186473L424.82987606758604,224.91320583961613L424.5475660298305,224.28709288785217L423.9476348849017,223.73361980216728L423.22633672241557,223.92356341152038L422.13811179624463,223.09356903652784L421.81753825453285,223.2611531744115L421.34598989526245,223.60183686404795L420.8105823784433,224.4268487184093L421.10449081884553,224.7090572176675L421.6348891331813,224.41768137007642L422.39062677418144,224.65556420108274L422.11461969816713,225.32274679286132L421.7031331741538,225.30948210645334L421.4062742916971,225.12201900504152L420.9009704977829,225.01094094663117L420.04406952523476,226.05116573444633L419.0261569359369,226.0664303209878L418.4327977088,225.28868110974338L417.6329749825452,224.90788650172684L417.8638450749473,224.10852626116568L417.0596699990166,223.46679369668516L416.65607116804193,223.58479673323757L415.8934907682106,223.15809859837384L415.58532444882394,223.32658191616622L416.07608264584076,223.9227803811101L415.07506976441545,224.95966501293037L414.87470542633883,224.77566251080523L415.30105874772863,224.30234427485703L414.5344399042624,222.80834543303047L414.5505786370798,222.2751146800636L412.9681043963666,222.0852279403502L412.13933320308985,222.64173203995182L411.0809146977691,221.94635283976245L410.80305095065603,221.0842921916531L410.3319326047583,221.43818960379554L410.29797156276743,220.93908576396143L409.745320167489,220.34189921049236L409.75699654028284,219.93900895768022L410.99011435859563,219.6665945801019L410.976918795709,220.11687792406383L411.7514951756268,220.17523571536987L412.2973753606791,218.94610430987143L412.1923927224487,217.1640574080766L412.8176528248823,216.95728838204894L413.0858005649487,216.51462031413632L414.9418700134461,216.1672230288218L414.57628044904965,214.60257737191284L414.21217500005093,214.59159469755048L414.8489471089202,212.41689057405216L416.1726170679038,212.4571837748232L416.18893967785493,211.92402815287198L417.62612804812824,211.83785018892038L417.3433617951414,211.15313414124046L418.23165733900987,210.74191548923844L418.18640024448104,210.24243231884316L418.8546915431423,210.2632935086654L418.8327087071156,207.85528632483815L418.95074373170286,207.19490662807445L420.37029028354715,207.72581095738582L420.71096108689517,208.49557759984867L422.3296023203382,208.8675523371803L422.16102317784737,208.05572002005164L422.6390778593421,207.57305061845494L423.0931936581512,207.45728832119266L423.96134493252936,207.71083223493008L426.2656045179553,207.96460066356576L426.3674079193149,206.36700792197234L427.187574568298,204.7815576046143L429.42346487260403,203.8727201680383L428.7731065808111,201.8465544180363L428.1582381096465,202.00367047502226L427.790739529893,200.6039107515851L426.96231902118996,200.94378514142105L425.72346943858855,201.16353532229087L424.8274784700945,201.71507794486905L423.66929202072834,200.9657987884334L423.6792987766727,200.657825678004L422.26356077783834,199.93621770444008L422.15531838919134,198.36759961173928L419.36454162265375,197.48472126150247L419.5207603845655,195.61631309168678L419.3063563344484,195.83486308102644L419.13676249977016,194.62024064815625L418.1801522634065,193.96211196239062L418.5863747640957,192.68246420393814L419.0583716554613,192.43634716212838L418.6628303456893,191.7956900006301L419.483852675837,191.72647122617877L419.81656072570655,191.2508378865116L421.0356449712872,191.73981760501775L421.45379208909145,189.73770861924748L422.7845206682094,188.66590492908102L423.44132701193473,188.78192168570223L425.23075856299005,189.4210994791627L426.67240486757186,189.46866238495346L427.20795337919924,190.28079660160353L427.79234958774043,189.99206928227494L430.151549136736,190.02435917184064L430.71005771161333,189.071261224323L430.5618418370284,187.32342369099237L430.88262352963113,185.4612868433831L432.4524112753118,186.09627504292155L432.5764310190133,185.69749917428365L432.8814028389437,184.32105446820896L432.53121834757246,183.8228530078611L433.1652246419194,182.14968239965998L433.97701532697357,181.01631183160345L433.01433947512123,180.49671049580968L433.6446054003766,178.59836763281996L434.89790562993653,178.19188830969307L436.7350582333318,177.59325355672013L436.7130801106498,176.83385026274286L435.99323584906386,176.71339876132626L436.13083731356494,175.6040975048167L435.8524124417322,174.8000785127412L437.5259076103223,174.3619515420349L437.8960886471016,173.97226002825158L437.3302262114935,172.6244746484837L436.6710555403474,173.53725391086812L435.2883385428987,173.0378241065333L435.43070062757306,173.52879127931126L434.38439000309904,173.94235544870958L435.00467974219976,175.16125779705777L433.06037816810704,175.9940486948521L432.1301513134585,174.4921521890272L432.022920171996,173.3269550927236L430.8790755679192,173.3706978516085L430.1853574825692,172.45820743479817L428.43317163303675,173.78574590667978L428.7515392005347,174.91050143237103L429.8506383556419,174.7223963655948L430.23657523307907,177.09412605022942L430.6456343987333,177.3332613207021L430.56295859180705,177.9586467576168L429.6977260786566,177.7870076959129L429.55924156327376,177.16597512450267L428.77950668244443,177.3648778177625L428.71257429811067,177.89600106189215L429.1169655001404,177.90961548862788L429.8727184384585,178.7767396972348L428.9754492310225,179.1968241265935L428.6155024582479,178.95950404910027L428.1471556971529,179.39421482475754L426.9067272853145,179.08026901781432L427.08524134437965,178.50539959306275L427.3779823666188,177.44838434996097L426.0596345539702,176.87140542072228L425.53561138049434,178.6320654900668L424.7599720804087,178.34595370777268L424.47250824333236,177.75582721167967L423.6685310808707,175.67937784850568L423.62593997728686,175.09727148270412L423.08156470561187,172.93467205297048L423.34190402336657,172.86008139926486L423.27028019794915,171.64899825314367L423.0296056767977,171.107997351801L423.3003381556472,170.71377603792666L423.0461591545279,169.05845180471042L423.63136310311074,168.44921701684365L423.2452056981915,166.30390879540985L423.81633224872553,166.14454130659135L425.3018977817759,165.11445176402103L426.72110831507837,164.62779627325403L426.92272430203354,164.85958084915993L426.7355509433084,164.18986566664913L427.7756504858269,162.52995541979783L428.38647491429253,162.68063801233995L428.17702292726943,161.20446947520836L427.6970246963988,160.07481103562088L427.3258150180779,158.62897889369805L426.2361825076915,158.77078833606512L424.8553543332454,159.53134024044385L424.33399718886255,159.64477578994058L424.26836009204055,158.6238134417714L423.89316513739936,158.78941895052873L423.8817348690574,159.14445830212483L421.8423065174204,159.70722499428786L420.73980243948097,159.88571190805496L420.57388083458835,160.46101099119943L418.7256652610749,161.25650912800066L417.9886229336496,161.58924097926405L416.6403872026867,161.77320571443383L416.17214941569097,160.14785799473748L415.7628309220201,159.82750920187235L417.3850603646807,159.1658728127931L417.4480765251116,159.12041007853813L419.419832176358,159.13371173816077L418.7892883847372,157.59787149882527L421.7104426471087,157.25081234274424L423.0112587699981,157.06707791521453L423.13350086969933,156.71559994053936L423.9113129311604,156.69316800172356L423.7132417834945,156.33141534739065L423.0360528510665,154.7460809187104L424.1576776017671,154.0239564387373L424.371500631713,153.90055356301798L426.5215632512143,153.08214801322447L427.9762993859271,151.6613802349693L430.4625945968782,151.9223906954494L430.813041399665,152.51468894079218L433.18284872293657,151.4823636928468L433.722956747632,152.6500803345116L432.13042589315796,153.35328653163023L432.468272066286,154.30072284838897L432.6485407983622,155.15986322595782L433.4329303157633,154.96187082579755L433.7702958917631,155.5540570054694L434.4938276346181,157.45109875383952L435.8032520506324,157.0468644918665L436.0156353883265,156.9714298625559L437.60469956159136,157.38332550365115L438.0439978993563,158.20470843362662L438.0427247117598,158.24020679173074L438.0312659695327,158.55969351631023L439.0670181508958,158.90503665817565L439.36675178531937,159.14099975525681L438.04486745837704,159.89904220107195L438.12764093111264,160.34041189840593L437.9693022125165,160.28733494321276L437.6628058719788,160.24080850882578L436.6366790834728,159.97910388668151L436.63499792963916,160.02643789573074L436.65778119313,162.1600258613631L436.194691851887,163.7550985867053L436.1934337047409,163.7906026378479L436.22333275955555,164.3367455381208L436.3570451014431,164.73253102962522L437.1359875100097,164.98540260495326L437.9500165671376,165.28709721861574L438.07155523640546,166.35799452228522L439.6365873942917,165.96425250443866L439.9451926235068,165.9399319700891L440.36659869408817,165.86050349554444L440.55608614690544,166.40071351276538L440.2029975292415,167.64400478337933L439.43935950077463,168.6828004971141L441.16637685562034,168.21261298869646L441.4654907160483,169.77618644452548L442.6220662914796,169.42788575259434L443.3342214953634,168.47071855318748L445.08417458608596,168.71423994473184L445.7701117967297,168.46763365732517L445.9366405661141,169.58805852780773L446.33829840420856,169.69817288197328L447.5194931295894,170.0041550441746L449.18734207988183,169.80788028068014L451.2398117260066,170.46902431899963L451.3627779868967,169.8456639048624L453.39087842461333,169.57060720294965L454.21884488660476,169.78158970176133L456.1745127439399,168.8768601335757L457.816180251801,169.34702772346162L459.12886164792315,170.029482636689L459.9110267119455,168.67511080697392L460.1198512400488,168.68381630356728L460.9448455524994,168.67090531957692L461.37580259120165,169.5424770953104L462.9164926138567,168.89633143580448L462.95617008707984,167.9615625173911L464.5158657782109,167.75544429302977L466.1627832014311,168.09901296902802L466.6357995394658,167.97726575962963L466.55868293564964,166.06544909486738L466.9204686183616,164.82469133910288L466.9254236364192,161.30465683747116L466.16719337932545,159.44665037878255L467.7920908129414,159.244580698455L467.8230403665592,158.53484124500847L469.62624278745545,160.17834298848993L469.6483556642521,160.79563338593212L470.5917060921055,160.6595715430685L471.313746345294,160.78648252652724L471.5131314671829,159.63383716028386L471.604352575671,157.58753352255067L471.93046443199773,157.47171789625654L473.1609072670701,157.8350142299116L472.3989634713769,156.10606070939488L472.44291027736347,155.12439685122476L473.2373830715167,151.4627492033031L476.0344050253559,151.94494341290695L478.28779347723355,152.67658124884926L478.343585795036,151.47040848332045L479.47017379945544,151.97300576204248L479.4910926868952,151.5236583008403L480.5663683389181,151.79902975766143L480.9714200333593,152.12614367472295L481.311301304237,153.836838647807L482.39090024522056,155.04927190971893L482.6520184652536,155.0142362274915L482.70024016788966,153.99725879910625L484.8657707151042,153.42499030781437L486.30997041398,152.7004643395313L486.7175019682111,151.6890908160133L487.1708511763803,152.03106661439332L487.9191003108079,150.63343440893658L488.2411557888173,149.3573716153735L487.33100928791,148.7323867030998L487.48291670672955,147.89838632835225L488.7779526760237,147.99706971748057L490.12709547139616,146.99676034979808L489.88395354217084,145.64574092043898L488.969364050576,144.0841571953106L489.7620196726682,142.83147653939227L490.6150797338305,143.63179803269261L490.8190173666404,141.5090860677319L490.8057730185271,139.76676868411326L491.8125845106721,138.47779263547696L492.993992246866,139.92274417449408L495.2142534475047,141.40863373871744L496.5378378542692,140.98989031721993L497.85595482998554,140.92678338368333L497.89547457617084,143.06171927071327L500.10009747747415,142.86715428773462L501.3682340973845,142.80267719320133L501.41770051180896,142.8052552176597L503.4551280221229,142.73423174711226L504.92379895894385,142.63407456456287L506.38815666407686,142.6171971072094L507.38570586261426,140.66782778312054L505.8999644514805,138.04075133583433L504.53159017585534,138.32364240965785L504.6440296862859,136.1968285127661L507.2643877454757,135.98079160436268L506.0277815704989,133.77030647399408L504.4775431135955,134.17389874634074L502.90595044331985,134.2807987046106L501.448374573137,134.1099314347189L501.63791013770026,132.378333308057L501.5603745302195,131.00015819327265L501.4801422945415,129.43238887765557L503.39351437944686,128.06348400476182L503.0748859876904,127.01631285865852L503.70319563443854,127.14400417866418L503.90618742775064,126.12421175748096L502.80396205082843,126.24411689949494L502.12764789496845,126.07855078557657L503.27014302538225,125.42758998713018L504.73844147024477,125.45738300356098L505.4900989810493,125.14178313219588L505.67921798432803,124.3937967802677L506.37454508097426,124.20566306218302L506.87504389596177,124.63498631466425L507.58220692508803,125.15834033478797L507.97104942697143,125.8069062929394L508.13469329063423,126.7040343336225L508.8291276869286,126.52813457902542L509.43671236298223,125.88571882462782L510.1548231158946,126.19696999981684L511.69707099703425,125.78329543602402L512.4118915536146,125.24194223998083L512.8044805020547,125.80831954830902L513.932013459787,125.24250485155193L514.1972714749693,124.27399846369863L515.4823168365351,124.70045434193474L516.3545010285327,125.15170417910787L516.6923553760064,125.57329955067394L517.3755480402865,125.61150040800425L517.5721052367965,124.99469055898666L518.2005829987509,124.89966250760017L518.7942611985947,125.64382921209267L519.2112561852734,125.76212647022419L519.8978531083528,124.64005553653809L520.9092915115699,124.38948171806769L521.3767474919755,124.49902774559325L521.8122227208155,126.04021263134973L522.9727233129826,126.01193793900717L523.5168143449407,125.65228970903172L523.536466921181,124.445079132464L524.6341409024185,123.57257935510165L525.111199423406,123.51728063547557L526.0200090346092,124.18607809798817L526.4707275647586,123.72663456152796Z">
			<title>
			</title>
		</path>
		
	</g>
</svg>