<?xml version="1.0" encoding="UTF-8" standalone="no"?>

<svg
   xmlns:dc="http://purl.org/dc/elements/1.1/"
   xmlns:cc="http://creativecommons.org/ns#"
   xmlns:rdf="http://www.w3.org/1999/02/22-rdf-syntax-ns#"
   xmlns:svg="http://www.w3.org/2000/svg"
   xmlns="http://www.w3.org/2000/svg"
   version="1.1"
   width="600"
   height="600"
   id="za-map">
  <metadata
     id="metadata109">
    <rdf:RDF>
      <cc:Work
         rdf:about="">
        <dc:format>image/svg+xml</dc:format>
        <dc:type
           rdf:resource="http://purl.org/dc/dcmitype/StillImage" />
        <dc:title></dc:title>
      </cc:Work>
    </rdf:RDF>
  </metadata>
  <defs
     id="defs">
    <clipPath
       id="mapclip">
      <rect
         width="600"
         height="600"
         x="0"
         y="0"
         id="cliprect" />
    </clipPath>
  </defs>
	<g id="provinces">
		<path fill="#fefefe" stroke="#666" stroke-width="0.5" d="M116.2002078977311,465.98330480383436L116.65786636609366,465.6051081132937L116.94156645310957,466.4765956349572L116.3254284255286,466.42579776887476ZM236.20623849172736,470.2267029765845L234.21357569407513,470.8412249732283L232.2071210270903,470.70217698579927L232.149629808467,470.6560940515569L232.10436022343282,470.65696289156307L232.05909064952436,470.65783231106303L232.0138210867489,470.6587023100576L231.91196461124804,470.6606619265698L231.7761560651246,470.663279312099L231.71956920059057,470.66437142868244L231.62811833122117,470.61895255463446L231.34426493898462,470.57726584258285L231.29899434493922,470.5781449920431L231.2424061182143,470.5792447438008L231.19713554950906,470.58012519715237L230.14459802093467,470.60075910389514L228.53167355883537,470.9043088214015L226.45749272535295,471.8787500606447L226.27057396703307,472.1421550303197L225.5767494792131,473.05316391916614L225.25242299918676,473.76771757673737L225.22491174178185,474.6057189770789L225.46529691166046,474.7421702653078L226.61707986165163,475.20160906848935L226.06205795612678,475.6967273305636L225.25510612269852,476.03213996406896L222.50279803200215,476.31555090103967L222.4463016118234,476.3167914018213L221.5029306520193,476.5970945641153L220.46626054319296,477.245337240878L219.72764073012934,478.0639675989968L219.5576841998813,479.0347994944548L220.27511859019376,479.28972449571836L220.38470661948608,479.6409953306255L219.49264729344125,480.1446858285889L219.3672058847248,481.079027316434L218.8924636518692,481.0545440467637L218.47892757048925,481.7243420536987L216.77882248169342,482.388939693503L214.69719839313518,482.6509229438989L214.55714184704033,482.9254808484046L213.37294276499713,482.9543907753197L212.36246194183883,482.70820510764497L210.10793864623753,481.9278591743272L208.82736479945413,481.73671741818475L207.59562390891054,482.1225206870487L206.2206392248072,482.2059976540387L205.56582905061668,482.6243728649604L205.52071267328648,482.6255820023057L205.6216738882801,483.0237605265741L204.2295016842055,484.122447865549L203.50665763357995,484.09501228006775L203.09184421476385,484.60157453889315L202.0145788706099,484.8082230946644L201.47589449579868,484.5049232595124L199.41664946407786,483.9028584728508L199.36650209839303,483.7274299170417L197.24590586454315,482.9868319884067L194.90967566878754,482.6194254897126L193.38165956174842,482.4884345293913L191.34117203971033,482.5861278046559L190.11295488319206,483.02515267421217L189.04683727675788,483.9429708158069L189.2596198476155,484.60839810991735L189.64842966564044,484.7730652503472L189.72118521774325,485.6551042855803L189.22243627662,486.29565147071503L188.26621107877304,486.37302922995457L187.17174233690895,486.0070556016442L185.0204077855508,485.75829280425046L182.87813116499876,485.79352156936403L181.55553467554336,486.0500076857998L180.00453056227744,486.55059784934514L177.91358125798766,487.7308527229138L176.94703387402336,488.79028624519776L176.55802695659946,489.91215117060585L176.24238319714576,490.229765284065L174.79150036293265,490.94131255546733L174.34456860720937,491.67636611348235L172.4303662172423,492.62943567406455L171.97085723105934,492.9997840232902L171.60785544387485,493.54347386784985L171.69976330930209,494.5184480729556L169.8965144255234,494.76158128283316L168.45998306522065,495.47514873384216L167.44018755265841,496.1853248711667L166.6647514338508,497.0986370371013L166.42425149590323,498.1684579455027L166.96445345319657,498.77251950770835L165.94682597308213,499.2119240734942L165.3946227047115,499.76335379201157L164.77729118649998,499.78710045501026L163.9112884292248,499.19602763682275L163.42719466447068,499.1794877238053L161.521126312005,497.60424643899773L158.39559619213344,497.6464636801967L158.06770901249774,497.8836534497641L157.16354524788275,497.7789001925645L156.21487689187668,497.687986113849L155.62816765292038,498.46642339740407L155.06869380612167,498.53663523013233L154.49511479723435,497.4524007516414L153.89399697175062,497.60703547458695L153.54576984312703,497.3504373995589L153.31991781288843,496.52292476125274L152.7621373530962,496.64058105479705L152.07502573264932,496.09182792621914L151.55635919009111,495.00552869872627L151.15875803598925,494.656871300328L150.39640658322057,494.7364196423789L150.29544923685816,494.48133770336364L149.2404321527877,494.3024413414571L148.8329990729283,493.47100398038464L148.18049446770468,492.7090995125824L147.60078397004222,492.5926863540757L147.24139466742608,492.8795058705215L146.34375601270847,492.96580840117895L146.2130115181844,493.3252856068757L145.63745806422165,493.3033555711101L145.5262878610406,492.8247645624159L146.15705230604377,491.01637863658993L146.8449273350368,490.5028139239486L146.6595930420836,489.3550656612075L145.72455160551212,487.57947163688857L144.37758487128235,486.21138045830054L143.78726815345405,485.8836018714327L143.0380447266355,486.0466927951925L142.62617160469946,486.430797603339L142.58268328115116,486.4681336766654L142.08448273449497,486.9387385280619L141.73276312302355,486.6478072992535L141.0086391535843,486.3619030550785L140.01015085786,486.5015175358087L139.29014193505557,486.310151313823L139.29491532623294,485.42506172573025L138.34846324478286,484.48905594067355L137.71000152762923,484.11722506417937L136.9382773306919,483.79885972885245L136.04447522276718,484.01734291773676L135.52364482887958,483.9944187947924L135.01855113630666,484.54904323624885L133.12081716816937,484.5558358134056L132.57108729973288,485.1129335576882L132.1816990560518,485.00166412449335L130.92724966776427,485.46286920717404L130.4284040521825,484.95583575874707L130.80248203832346,484.04098222100276L130.50815761349244,483.7955017043309L130.21125030404832,482.5588027920464L130.6487797689737,481.7823964194716L131.11415496428685,481.5830309102382L131.38666276927822,481.133282090542L131.29813309748818,480.4647328951652L130.65250575769016,479.74023337616575L130.2176999221465,478.69873231450435L131.31988702959345,477.8431343418845L131.36506463295132,477.8409753627095L131.59606546265604,477.7000882289741L130.893560545979,476.97812109750146L130.59191506635932,476.5911798334514L130.54672146447524,476.5933487097899L130.43428761820496,476.37442850982853L130.3890912417075,476.37659940396856L129.9279582789185,475.7376119352143L128.56241739309442,475.1424357384943L127.69247310362408,474.9604236109583L125.88159339510807,475.00199697484L125.12193074910587,474.99229457258855L124.54779405593979,475.0680008863643L124.07540480667481,475.138731923969L124.03019261258873,475.14098421805L122.4809944463378,475.6554234527896L120.97144594766803,476.05045876906365L120.17343784407367,476.3980284194675L119.00345935743977,477.66224218601457L118.84548164240906,479.2170982204731L119.6199802620194,479.5316082611009L120.39476365570854,480.7434942540622L120.4282034657198,482.2882337374083L120.14010404243211,483.95546644642604L120.79386981334193,484.80737029274155L120.5300640086677,485.17487831598214L120.02059834336205,484.49271191396656L119.63731342706797,484.5123160024458L118.40329400569516,483.5960186053902L118.32845138687102,483.02147411870703L117.80427706214974,482.06874126503925L117.34695837023375,479.79025364589415L116.78856898810398,479.0635630721806L116.36137047887706,479.1211956590613L115.89363394723023,478.40169129945684L115.81343362786535,477.7328130369589L116.55672102294409,477.43431865255667L116.75908857827227,476.7507181337096L116.53459195274269,476.1364987989102L117.01076984499196,475.0489341054191L116.8479481771524,474.75031422775L116.84550532056085,474.7032005582216L116.40430685992266,474.5017097530139L116.23969599028652,475.04172675755393L115.2080409830127,474.3869266715614L115.88837336739309,473.73724738648866L116.15808715988925,472.60113735472873L116.94077623256715,471.9463082173846L117.09166371825481,471.1352778313846L116.99397740480381,470.1244443352383L117.62475780483302,469.37126517253546L117.99655021114356,469.3166783993112L118.0549765099546,469.3491128292637L118.10026284607702,469.346784047121L118.19810156369556,469.48351283845534L118.19991804406916,469.518858824913L118.1570564824118,469.56831417792625L118.80264295289354,469.9840748342143L119.5472331101684,469.6743188543395L119.94803391577238,469.07506632216405L120.14568344676638,468.273526460208L120.00295522066926,467.25298056653236L119.8854128098518,466.9517887884955L118.8385297822247,465.13842129004485L118.3165607164477,463.38089565599125L118.57534219018939,462.883142862877L118.3527979189341,462.0909607255601L117.97856904630592,461.448355512952L117.18352916303343,459.9291956830555L116.44763700423695,459.5653406639332L115.74978867029569,458.1831134660488L115.39496704497321,457.92967930114753L114.39114384681088,457.8992883895891L114.57044963855444,455.8802713302882L114.18536877510886,454.83638443019964L112.8984271279119,453.3432527057226L111.84644925477318,452.42920477698533L109.6498054414717,451.03251212584246L109.28626792840532,450.42521152054485L109.66632040667335,450.2747650592391L109.47540133888305,449.4807879969269L108.88265469586437,448.2234239022686L108.24653992269239,447.2286156105689L106.8037293638138,445.48497352995327L104.78422266376171,443.6785881331497L104.44016961637553,443.66196065059L103.75240990938269,443.4276566371424L103.86886407014387,442.8415127171205L103.1717903622201,442.44216729477137L103.23831263641168,441.988882615153L103.90431840811982,441.8220360908946L103.90325223923733,440.9701773294137L104.33951390274166,440.9935437510969L104.81903610283936,441.8073379530957L104.97529537154224,442.7808007502924L105.46403215096865,442.93155899733546L105.30170739823592,443.52013801588373L106.04200906772485,443.88200614353104L106.5137652054197,444.56616707805557L107.36333962827882,445.0524617730822L107.48131247378453,445.54291719362976L108.28037166311256,445.09762111736L108.30184923016057,444.64694700745895L107.18642126148816,444.52969762442876L107.3901369133581,443.85619895929256L107.11938846069586,443.29115694435893L106.38357731234976,443.0116272635731L105.46846003754814,442.1741173574462L105.33146612993892,441.34154527411226L105.67911134215416,440.79014328265237L105.26571400208326,439.298120160567L104.20293540928128,438.50428192832624L104.15466434428433,438.45959618057304L103.28476609595401,438.471940995041L102.78160083479236,438.90206285406714L102.95251309944342,439.50796376457356L101.9056240154095,440.4534404856337L101.34945626891104,440.1293753142139L101.43614036953494,439.01218481086454L100.75519628311068,438.9199695853889L100.63265254487024,438.5717869406178L100.94038238754158,437.92738214770714L100.79860068416005,436.20737195155687L100.03486530490113,435.67010491731946L100.18164469590155,434.809688386714L100.7324385465621,434.1989389055338L100.546914014924,433.5464340822692L99.49552764915992,432.8003358640144L101.12253297099241,431.72693166370885L101.2247060576066,430.880762250531L100.81171189914059,429.64886717584L101.5561856248869,428.9918780457011L101.53851177271551,428.6732058251996L102.42384035766193,428.8965076318656L102.82971843983759,428.34137255940004L103.3548497197684,429.1175077964368L104.14141088740647,429.42951205860356L104.26641211988027,429.82516407130925L105.05981056897167,430.2671851194619L105.57650435014352,430.90195095184987L107.5450213429927,430.5824101744157L108.80189491586725,429.6153946165832L109.60104276539283,428.23516018961544L110.79329769106289,427.10654098788734L112.07026857927494,424.73082412260305L112.94460612340634,421.879154184199L113.1342517142312,419.99849343254976L113.05981475632325,418.5696005260945L112.94680363641748,417.28474243398335L112.38750148610475,414.95724816052365L112.29709256005307,414.1092508471497L112.87447362851739,414.12650762158717L113.04905164787664,413.7147419210551L113.03975604060199,412.6492853204888L112.37814436947795,410.13715629465537L111.89440243895817,409.27401108846357L111.45561364371844,406.4064738217936L111.83072815812645,406.06698395615723L111.62283454112168,404.9642113624052L111.00643483208145,403.349639186705L110.81185679488732,402.5067605653902L110.15573857335085,401.249717842236L110.42346666319244,400.6194678747976L110.45247030336006,399.4092779490438L109.69402690363191,397.97976859646826L108.95379521871615,396.90488970995006L108.50346787652944,394.74805018767097L108.5815470297263,394.4713144380205L108.57904206334928,394.4240386749344L107.26112179310465,392.5384127322046L106.84383294064523,392.11026537514044L105.59970639495424,389.9010010508903L105.1407251078866,389.5700631058389L105.10252237875704,388.86084050414354L104.73547425488002,388.29973705834516L103.33049366057759,386.810883975621L102.71579261460414,386.405656201892L102.43828554233332,385.7924053504386L101.57143563406916,385.0335474987802L100.82450974992568,383.9244022719541L99.68215431651475,382.8253249156039L99.08002605965217,381.8269930786495L98.30703862034025,381.11096477689773L97.44045702538222,379.5582855387322L97.53490333401444,378.7465653059613L96.94851843134444,377.8424013447303L94.82902625331636,376.0045828040532L94.40004341374018,375.22228292514257L93.6031189859381,374.33041387730555L95.90571102861637,375.04247104974127L95.05460082893734,372.14869219665144L96.965414491984,370.21470200655824L98.32833308513904,369.1068567511497L96.78649882093936,367.0098712159097L96.78556895010306,366.15575935928365L97.7759814918735,366.1006155699604L98.39078616856304,365.80552921079396L99.51592217856728,365.64850248786325L100.16660113617215,365.7906812211433L99.97381569836892,362.2778210045243L100.26995902304196,361.2768689411998L101.80705319760835,360.7065658007784L102.76235790691047,361.0581349373165L105.24293333334276,363.0245406841272L106.28502412654558,362.3877271658828L105.96509227836745,361.87091874348914L106.48977820193991,361.6176337487069L107.65388493677906,362.1728803555639L107.98762162979114,361.8468595327157L108.97029453833582,359.8378999144851L110.89605990540986,356.11933173417106L110.8184184299553,353.7150123426446L111.93160611392622,351.42708382177966L110.87578136312888,349.1560491136847L110.82406068432343,349.0638027207133L112.837847877444,350.79922341224164L114.58619481808728,353.1184962380498L114.992763872473,353.2758396187405L114.0421904057743,350.951327380286L114.44958209168189,348.3442025515295L116.45089896964734,347.7568168785285L117.99918256912977,350.0878550153003L119.2356601622356,352.0788587598755L122.3526532458414,352.28190689760083L123.5375983483095,354.2410327890708L123.56346057730735,355.74619488771316L125.7148283045303,357.3864063472369L128.36346221713302,358.1978298631531L128.41239733447625,358.24296792165785L128.8093346162738,362.45808157953593L126.33778006503314,363.33398718288527L129.6753001991015,365.2278998678244L127.57410879832932,366.48885727732835L127.43269177409465,368.6773386120825L128.8775726781412,371.11083923775396L129.07495290681936,374.31445474202917L128.97840983154222,375.4807946943208L129.694759316494,377.0949082011549L131.14724380197964,377.785704637773L130.25298356901914,379.56990666854006L131.0495147466336,379.9357291650833L131.82916139557557,380.6936394565625L131.8128334259646,381.5951933280976L132.2237375324919,381.9317241987387L132.09227471728,383.36005556389205L131.65906954778814,384.54161795299206L131.2852901441348,384.9975107463607L131.77384155396223,384.7614631512914L132.32734463080163,385.1742949958765L133.10394280199264,385.138426523967L133.60706954682968,385.4708044895656L132.74980678165727,387.0271813701038L133.7367130154431,387.02912112702995L133.91643274788322,387.90962734887796L133.37653110648154,388.78763327174477L133.65232246842328,389.4859155620442L133.49416037764334,390.3344906673409L132.96829074320055,390.5009289037406L133.36333785521285,391.77423128193095L134.2657763992832,393.2493201876969L134.18013732310018,393.6560763431511L133.4576145613879,393.81963200165535L133.48431609326423,394.39894087585543L134.02211909577673,394.50451539074976L133.90784939119627,395.0429013425498L133.37710474460636,395.33983476344247L133.02847605775997,396.0667683556742L132.49137371399877,396.2219623309535L132.46916255553674,397.73938721532403L133.30518859762282,397.7954504591261L134.3482339989252,398.32788767645883L135.97987315210509,398.833796735831L136.39830480172793,398.3646694348148L136.80700219841845,398.7015295001914L137.6189117571389,398.4872211526326L138.03330546326285,399.98476193672843L139.68713547293638,397.6366532252215L140.19493648697116,397.0810917593967L140.06560689312965,398.60300938108765L139.61956220067327,400.541636885247L140.02194286457436,401.0093738198692L140.39286519759804,400.5073316294709L141.39150692058627,401.1265321631556L141.63078680240844,402.0990260902686L142.33472770797871,402.60110973427714L142.65786558163276,403.11991735749217L143.1345583328788,402.92149695739505L143.58411875402342,402.0966460997692L144.48591090313795,402.6379260426364L145.75833045507414,404.0161538041695L146.35194107388244,404.12105055781007L146.42073870551587,404.6509899933459L146.94352471986247,404.4511184552195L147.22524826137385,405.37462115002813L146.11060574555896,406.5824917984246L146.94489670854645,407.7428092437898L146.71816500188172,408.3799796988214L146.8540102068447,409.1319384942597L146.531269766545,409.67846769767186L146.75366943301566,410.29646525596837L144.39223273181472,411.6883205578123L144.8484593372501,413.4443653123003L145.5076588327441,415.10873559176946L145.85471046208474,415.4134260639132L147.23424349830677,418.0649712132471L147.82556366314375,418.4422540017258L147.22451750751762,418.91753236151635L147.08161130197126,421.23138065464013L147.48477274417905,422.8709274752249L148.44647248778054,424.96001401808064L150.15191540323272,424.000856276119L150.6513274991085,423.30555639065733L150.75583942964792,421.123913347668L150.57515500625047,420.3740743403654L151.0977995128319,418.83755359107573L150.9023860144909,417.73318853594185L151.8214444580478,416.5826143622337L152.5932253045191,417.4384874443839L153.9199416300969,416.67415226408286L153.3470949233104,415.89269676904433L154.01075519369928,415.5105887237373L154.12610875068773,414.6655571063753L154.98774009208256,415.4710095331444L156.0679716389228,414.8476168949797L156.51653142802834,413.6815948478067L157.44354701023025,413.8222382269709L158.19225961965088,414.40806722955085L160.02357590122776,414.12321383549886L160.86268018017543,413.191124903655L161.9939194443324,412.35451444036704L162.91610366076043,411.1592984792056L163.29591066917286,409.62975978185074L164.55875577122885,409.4872992337779L165.036943097615,408.0962355832442L166.0764229357179,407.20511558581603L166.9489232469047,407.08990030623113L166.5672387288214,408.61918718160314L168.74032458444796,408.4445720285663L169.24020991049326,411.4090303917692L168.11580040640933,411.22522257997457L166.62369180426722,412.9372064211882L166.85864188344163,413.9936195297362L165.7962610940355,415.4532580435932L164.21286116766902,414.6725332201646L164.85685977887798,417.40553444319124L164.89511731435843,418.4217306589206L165.68545704423644,420.1787309602156L165.50848122536277,420.670463296916L166.193096241898,422.0764302204045L166.43260629734922,423.26238398124144L167.57480279655388,424.02443232430204L167.8828166054373,424.59271030540407L167.87785061246245,426.946835325358L168.83685998936397,428.0707046277412L170.1046129611627,428.55669791975856L171.22185157310756,428.6937233367986L172.48955500210536,430.4814107755461L172.98928280089387,430.67649381446336L173.22936871311077,432.27621548622983L173.65449842877246,431.98919189184943L175.44008012666367,433.2626952046021L177.22590065921906,433.24819529745116L178.93773491527722,431.04961594681356L179.90723788340563,432.62502239877085L179.88093200898948,433.2052667803114L180.84166528189698,433.17310547106365L181.59623339675372,432.793323895267L183.97822910137603,433.15266788425765L184.32965256877407,431.9825930401888L185.90038683461364,431.31729152767366L186.34009564025413,430.0144691714187L186.82147347081445,428.568422405849L186.69208972654124,427.3781589496616L185.52687327519783,425.72409045391987L185.45533864112525,424.92215679079476L186.3999416561559,424.31255267023556L186.99404641142405,423.13468196589207L190.44515583639463,422.2350858992276L192.19678514410776,422.4421870874797L193.3186888501045,422.71613003160905L194.32568637015544,422.6035110544683L196.0905446782467,421.7003650974715L195.56872117773793,420.3435162237323L196.8821834947531,417.27739719271966L197.1656650682404,417.1391431366957L198.10665635980615,415.8583826604507L199.5335934683942,415.0610697770391L200.173724873925,413.67091124881904L200.10308368512545,412.78556531773586L201.66920533347889,413.2274393700832L203.24624186713618,412.38015125594814L203.88496390530534,412.5878004426988L204.2456784103373,411.86832424457907L205.2024586554644,411.0384561658808L206.5075010975002,411.18175648061214L207.37295561660937,410.804427220204L207.70790880989864,410.39355482884525L207.1912349592085,409.11720388689395L206.9044809956643,407.38526405895414L208.58770494687298,406.93981708989054L208.92676386238946,406.67090375721375L210.0317140925423,406.5957925633296L210.93814334250874,407.8156566857631L211.484167084172,407.99149945110685L212.03810632793358,407.07867637505507L212.70178303780142,406.3999060703629L213.06460876238742,407.10107031640126L213.83876788240656,407.17711567103015L214.05353705264417,407.9647213884529L216.26289170194792,408.81182690824744L217.66370790635875,408.6020335747899L217.78758369198735,407.9721424140909L218.33590747720052,408.26727367619293L218.63890196165593,406.8879526812143L219.66009401192798,406.6757107742169L220.3752694402907,406.1747157998054L220.94084455573648,403.0502765840224L222.47298227171956,401.85731960575504L223.09833247100843,404.1158862216407L223.9239769582697,401.6962401422878L224.35299510161644,401.23753411853454L223.12722702197553,400.60075558411575L222.56369810735123,399.63056050649755L223.14013107044315,399.0383364182468L222.970078712904,398.107002434872L222.41210390741773,396.87623598985783L223.22183964180124,396.36182478559044L223.1971860240976,395.20241736956734L222.70032186172807,394.68037863643144L222.5916153004847,393.92515990030637L223.67272248226965,394.1744037228176L224.12798972555774,394.9223472068588L225.19786188093133,395.2077738603574L225.44616605049094,392.6696104691596L224.94043353010642,392.27761314824346L226.29366977663875,391.669740302879L226.18106123261694,390.6895178642939L227.11031653261801,388.5398085825377L227.47630401131983,387.14732197317954L227.76497580070532,387.094194125934L228.1102421427638,384.63656131973573L229.27417505066623,384.25845386991824L230.31901203214505,384.9130713245709L232.88154466356073,386.1551559637519L234.65054216663714,387.18827879663803L236.81064506928695,387.4577232761467L236.87886309278014,388.71136218065965L238.44896560284513,389.08679194129076L238.16779801938148,389.5769222875753L237.28188796078535,391.91222243584104L238.35676879418682,392.50922561909204L238.89604093493688,392.2396711528304L239.52429623569662,392.4421583171413L240.15699468239703,392.21857641071904L241.90608425904747,391.6100668963904L243.199436455247,393.637130125535L244.61091703850406,392.9050832130862L245.5723259501753,392.2158360126706L246.08080181168836,393.7231751501817L246.8626996349305,394.19683505632247L248.41733611265983,393.73640533067373L249.0526653146902,393.6800507762903L250.9107483382092,394.234244806727L251.79545927650267,394.67205258171686L251.31948503457002,395.38850781973053L251.53678303667874,396.9358503131619L251.91757013124112,396.8952573472066L252.76041433531623,397.7243134820638L252.90254803461346,397.10711323520417L253.91511602630965,396.77453598691784L254.88270792447182,395.60259087043346L256.5634694512568,394.06718448746034L256.40416354100466,393.32350919059616L257.5102424940371,391.9729587798361L257.5970215854186,390.49247428992936L258.6446463657194,388.9771391973952L259.91084249740504,388.2882010369226L261.76480725210297,388.3628309112456L261.56265520857005,387.8678295007576L262.19325650586154,387.24566725005946L264.40127139201957,387.93348938467904L265.17807206702156,388.0087885852343L265.52135737883367,387.5675433854948L266.69040121513507,387.46190191379014L267.2607003569328,386.474230976989L267.98679762316084,386.02976166412014L268.6276373739479,386.4266171829215L270.825540192898,385.95842867204163L271.4067390078363,386.17869882812056L272.055396992524,387.6414021837446L272.69282317234655,387.6838830906239L273.8205640816778,388.255533712406L274.5967475858877,388.28551064243896L274.7970871492954,388.78122849878037L273.63627992816384,389.98492285797613L274.47097430241047,390.15646920980294L274.52110992171646,390.7005464266599L275.7016267679389,392.42033039640376L276.1884088909091,392.55910636901854L276.82112185263003,392.01059813840254L276.8614156565652,391.0753775769275L277.7825295966595,390.3121433179721L277.88156261237674,389.47121058996555L278.31426242777843,388.2613239104977L278.2081797687973,387.9542190207734L280.65199997381416,387.94032916912806L280.1239044100267,388.79539001189363L280.55927511539886,390.0831146751058L280.9544541651652,390.3887321157639L281.39975613442374,391.4515745133584L282.323054478577,390.96170821143176L283.79217216750385,390.82463916158633L283.84877717132747,393.1321447037625L282.96857333345383,392.87583153163007L282.446701767564,394.9729336729326L283.4174916665958,394.92101245894656L283.6588015626211,394.6004060828116L284.19137507293806,394.775540214874L285.17710380691216,395.528698509197L284.8781365219706,395.89676658661483L285.9095878892647,396.63807032618354L284.74865734128963,398.07452326988516L285.084869489194,398.380754519364L284.50972066328757,398.9156177792867L283.48063139399903,398.6125511872782L283.0029770099089,400.17655729583197L282.41624806053085,400.5816351661002L282.2346126137356,401.19774375292013L283.3444996097031,401.64202002844377L283.348598432214,402.52929653635647L282.34043979112334,403.9537111303166L280.49454382382623,403.785782473822L280.69488828013885,404.5891277535951L280.30510728585665,404.9934412096371L278.94589687041247,405.178570616554L278.267449366259,405.4546749512459L277.5007473578987,406.3465655458282L277.0633932269924,406.43212723636395L276.2387395644685,407.1945139938033L275.0260537344764,406.76506097823733L273.4581404578891,405.08470397280865L272.48578762709315,404.5596639578594L271.94982445910017,405.3208954183442L271.31794063293125,405.5861199708823L270.35709171764313,406.48109298873277L269.6784439834059,406.6286924934601L269.06302212550463,408.76306781698906L269.9471902530299,409.8319069039704L269.5602848507194,410.3673967009224L267.0379032517113,410.21221657987024L265.3884439126465,409.8728813426062L263.19937113731345,409.71719279342597L262.58828148202537,410.740675519363L262.06045628584326,411.9880591175195L260.3139167158268,411.1671870525739L259.8136647747687,410.68781666019675L259.06072334674934,412.29298725102944L258.0498757356265,412.4347373225212L256.55361399011485,413.3395148013103L257.34059894331244,414.7137494497259L257.26874917240787,416.4056459920238L258.5941393222527,417.72631080512633L259.1458245189561,419.7655241087481L258.967434010498,421.2336211886567L258.0572731737747,421.9180394494703L259.9517239267384,423.04311875219474L260.5465741345629,423.934959854191L260.5138662957769,425.129246044879L261.86651423632173,425.1145903549782L261.305017650508,427.26006711428624L259.1795500933657,426.7517786224075L257.5783654576413,426.0493573813082L256.1213370268883,425.936888451875L255.6782329152299,425.3276677524959L254.5772393697108,425.2941773521292L252.85018639386118,426.4749267263454L253.64441003640394,428.50939753510374L253.12519179070173,429.0953043447871L250.4680572888704,429.08382510576735L250.38874538117642,429.97135087483747L248.8235808258737,431.8134354073188L249.41707228701438,433.3176317808835L248.4660881551801,434.00478721687966L248.42478361744838,434.31261840773436L249.11081838149983,435.1062971302803L249.0674791041825,436.0758226593464L247.27459994212612,438.51213188518363L246.81872297777585,440.11379729087105L245.78613003564078,441.28705355165346L244.38463520268687,444.36802081953726L243.90651531614287,444.4227623757648L243.87077172378346,445.049322484109L242.9003151927954,444.9702574923051L242.84911831713094,447.4630931259435L243.96730665951924,448.28378975627436L245.5959386726635,448.25851992010274L248.63073550068833,448.5794971868155L252.45481664146456,447.49897260138135L253.7990177108418,447.481271989828L254.4653819347252,447.02393354453L256.19669140916835,446.96678241076455L259.1712818504953,447.0140905103192L259.80496745710064,447.63275486303803L260.58098884543585,448.7813024690263L262.01807329637336,448.97821633015695L262.83656544899236,448.83968599058716L264.1369715456349,449.0506911273237L264.94367198318866,448.8655341495715L265.53082226778844,449.5210269626019L267.4048970462191,450.2590231295202L268.1374081549412,450.70104499960155L267.91068470785825,453.32400026076607L268.5357747078589,453.2711902437742L268.6443821671599,453.9785277117534L270.2350114051733,455.1688896149437L270.05561035511136,456.81108345790307L269.4303105588825,456.7692004266945L266.79481410174566,456.8400839327197L266.3664276355033,457.1982066061546L266.37190660503006,457.77648810410216L264.4703990990756,458.467750527397L263.4591945961867,458.4308100708185L263.19144581110385,459.9914142586472L262.14759556597215,461.1116952969161L264.308581363234,461.57310410096846L264.88725157191607,461.56732604504805L264.88199316165185,461.03635822345063L265.729687174579,460.67404381252356L266.89106778670464,461.0642327674916L267.0387649584008,462.30186986453486L268.33315777246105,462.4198665004726L268.72196927541404,462.7703992261189L271.1100853361544,463.50527033855576L270.63897561866844,464.1344716505797L269.733426957868,464.31906837901255L269.78481582777863,465.0265190617235L269.2642060927724,465.12538168220783L269.46300637796105,465.83152157093383L269.18666683290223,466.6361238906835L269.5232683339646,467.5651434995582L266.8508102791428,467.6717381501205L266.0978944681668,468.3040670577678L264.23012128157654,468.40502568366753L262.9999353946102,468.8187349763091L262.3371362715101,469.32114439175194L261.7673805669516,470.0349713648137L261.5855848826726,471.01590255326295L261.69548077741194,471.7577418427161L259.785588437444,471.9676537758263L258.59604738276187,471.839858478235L257.539068448423,471.4513940015685L255.63596000402023,471.2978450769902L255.5793832902499,471.29855540782836L254.77720184554943,471.40308033950726L253.76723842401907,471.19204542633736L253.29493993134002,471.4223498724956L252.5355732309774,471.33810571651287L251.14958168336153,470.95595939493387L250.29218632598963,471.15662686353164L250.00231153557826,471.4673780722271L249.38692429912453,471.16946890619823L245.64413547157068,469.9275177350881L244.21097260940783,469.5133740438366L244.15436734340958,469.51426718849257L244.02262056076745,469.77586633938023L241.52966993281677,468.97864114200445L239.03034468676302,468.5371463149146L237.9891429378015,468.5906315807344L237.61348528345258,469.12810675168544L236.33803106716655,470.00019599308524Z">
			<title>
			</title>
		</path>
	</g>
</svg>